G75*
%MOIN*%
%OFA0B0*%
%FSLAX25Y25*%
%IPPOS*%
%LPD*%
%AMOC8*
5,1,8,0,0,1.08239X$1,22.5*
%
%ADD10C,0.00200*%
%ADD11C,0.00600*%
%ADD12C,0.00300*%
%ADD13C,0.00400*%
%ADD14C,0.00800*%
%ADD15C,0.01200*%
%ADD16C,0.00900*%
%ADD17C,0.00500*%
%ADD18C,0.00000*%
%ADD19C,0.01000*%
%ADD20C,0.00700*%
D10*
X0224823Y0040354D02*
X0224823Y0059646D01*
X0240177Y0059646D01*
X0240177Y0040354D01*
X0224823Y0040354D01*
X0224823Y0085354D02*
X0224823Y0104646D01*
X0240177Y0104646D01*
X0240177Y0085354D01*
X0224823Y0085354D01*
X0224823Y0127854D02*
X0224823Y0147146D01*
X0240177Y0147146D01*
X0240177Y0127854D01*
X0224823Y0127854D01*
X0224823Y0165354D02*
X0224823Y0184646D01*
X0240177Y0184646D01*
X0240177Y0165354D01*
X0224823Y0165354D01*
D11*
X0223500Y0164000D02*
X0223500Y0186000D01*
X0241500Y0186000D01*
X0241500Y0164000D01*
X0223500Y0164000D01*
X0223500Y0148500D02*
X0241500Y0148500D01*
X0241500Y0126500D01*
X0223500Y0126500D01*
X0223500Y0148500D01*
X0225600Y0145400D02*
X0225602Y0145463D01*
X0225608Y0145525D01*
X0225618Y0145587D01*
X0225631Y0145649D01*
X0225649Y0145709D01*
X0225670Y0145768D01*
X0225695Y0145826D01*
X0225724Y0145882D01*
X0225756Y0145936D01*
X0225791Y0145988D01*
X0225829Y0146037D01*
X0225871Y0146085D01*
X0225915Y0146129D01*
X0225963Y0146171D01*
X0226012Y0146209D01*
X0226064Y0146244D01*
X0226118Y0146276D01*
X0226174Y0146305D01*
X0226232Y0146330D01*
X0226291Y0146351D01*
X0226351Y0146369D01*
X0226413Y0146382D01*
X0226475Y0146392D01*
X0226537Y0146398D01*
X0226600Y0146400D01*
X0226663Y0146398D01*
X0226725Y0146392D01*
X0226787Y0146382D01*
X0226849Y0146369D01*
X0226909Y0146351D01*
X0226968Y0146330D01*
X0227026Y0146305D01*
X0227082Y0146276D01*
X0227136Y0146244D01*
X0227188Y0146209D01*
X0227237Y0146171D01*
X0227285Y0146129D01*
X0227329Y0146085D01*
X0227371Y0146037D01*
X0227409Y0145988D01*
X0227444Y0145936D01*
X0227476Y0145882D01*
X0227505Y0145826D01*
X0227530Y0145768D01*
X0227551Y0145709D01*
X0227569Y0145649D01*
X0227582Y0145587D01*
X0227592Y0145525D01*
X0227598Y0145463D01*
X0227600Y0145400D01*
X0227598Y0145337D01*
X0227592Y0145275D01*
X0227582Y0145213D01*
X0227569Y0145151D01*
X0227551Y0145091D01*
X0227530Y0145032D01*
X0227505Y0144974D01*
X0227476Y0144918D01*
X0227444Y0144864D01*
X0227409Y0144812D01*
X0227371Y0144763D01*
X0227329Y0144715D01*
X0227285Y0144671D01*
X0227237Y0144629D01*
X0227188Y0144591D01*
X0227136Y0144556D01*
X0227082Y0144524D01*
X0227026Y0144495D01*
X0226968Y0144470D01*
X0226909Y0144449D01*
X0226849Y0144431D01*
X0226787Y0144418D01*
X0226725Y0144408D01*
X0226663Y0144402D01*
X0226600Y0144400D01*
X0226537Y0144402D01*
X0226475Y0144408D01*
X0226413Y0144418D01*
X0226351Y0144431D01*
X0226291Y0144449D01*
X0226232Y0144470D01*
X0226174Y0144495D01*
X0226118Y0144524D01*
X0226064Y0144556D01*
X0226012Y0144591D01*
X0225963Y0144629D01*
X0225915Y0144671D01*
X0225871Y0144715D01*
X0225829Y0144763D01*
X0225791Y0144812D01*
X0225756Y0144864D01*
X0225724Y0144918D01*
X0225695Y0144974D01*
X0225670Y0145032D01*
X0225649Y0145091D01*
X0225631Y0145151D01*
X0225618Y0145213D01*
X0225608Y0145275D01*
X0225602Y0145337D01*
X0225600Y0145400D01*
X0225600Y0182900D02*
X0225602Y0182963D01*
X0225608Y0183025D01*
X0225618Y0183087D01*
X0225631Y0183149D01*
X0225649Y0183209D01*
X0225670Y0183268D01*
X0225695Y0183326D01*
X0225724Y0183382D01*
X0225756Y0183436D01*
X0225791Y0183488D01*
X0225829Y0183537D01*
X0225871Y0183585D01*
X0225915Y0183629D01*
X0225963Y0183671D01*
X0226012Y0183709D01*
X0226064Y0183744D01*
X0226118Y0183776D01*
X0226174Y0183805D01*
X0226232Y0183830D01*
X0226291Y0183851D01*
X0226351Y0183869D01*
X0226413Y0183882D01*
X0226475Y0183892D01*
X0226537Y0183898D01*
X0226600Y0183900D01*
X0226663Y0183898D01*
X0226725Y0183892D01*
X0226787Y0183882D01*
X0226849Y0183869D01*
X0226909Y0183851D01*
X0226968Y0183830D01*
X0227026Y0183805D01*
X0227082Y0183776D01*
X0227136Y0183744D01*
X0227188Y0183709D01*
X0227237Y0183671D01*
X0227285Y0183629D01*
X0227329Y0183585D01*
X0227371Y0183537D01*
X0227409Y0183488D01*
X0227444Y0183436D01*
X0227476Y0183382D01*
X0227505Y0183326D01*
X0227530Y0183268D01*
X0227551Y0183209D01*
X0227569Y0183149D01*
X0227582Y0183087D01*
X0227592Y0183025D01*
X0227598Y0182963D01*
X0227600Y0182900D01*
X0227598Y0182837D01*
X0227592Y0182775D01*
X0227582Y0182713D01*
X0227569Y0182651D01*
X0227551Y0182591D01*
X0227530Y0182532D01*
X0227505Y0182474D01*
X0227476Y0182418D01*
X0227444Y0182364D01*
X0227409Y0182312D01*
X0227371Y0182263D01*
X0227329Y0182215D01*
X0227285Y0182171D01*
X0227237Y0182129D01*
X0227188Y0182091D01*
X0227136Y0182056D01*
X0227082Y0182024D01*
X0227026Y0181995D01*
X0226968Y0181970D01*
X0226909Y0181949D01*
X0226849Y0181931D01*
X0226787Y0181918D01*
X0226725Y0181908D01*
X0226663Y0181902D01*
X0226600Y0181900D01*
X0226537Y0181902D01*
X0226475Y0181908D01*
X0226413Y0181918D01*
X0226351Y0181931D01*
X0226291Y0181949D01*
X0226232Y0181970D01*
X0226174Y0181995D01*
X0226118Y0182024D01*
X0226064Y0182056D01*
X0226012Y0182091D01*
X0225963Y0182129D01*
X0225915Y0182171D01*
X0225871Y0182215D01*
X0225829Y0182263D01*
X0225791Y0182312D01*
X0225756Y0182364D01*
X0225724Y0182418D01*
X0225695Y0182474D01*
X0225670Y0182532D01*
X0225649Y0182591D01*
X0225631Y0182651D01*
X0225618Y0182713D01*
X0225608Y0182775D01*
X0225602Y0182837D01*
X0225600Y0182900D01*
X0223500Y0106000D02*
X0241500Y0106000D01*
X0241500Y0084000D01*
X0223500Y0084000D01*
X0223500Y0106000D01*
X0225600Y0102900D02*
X0225602Y0102963D01*
X0225608Y0103025D01*
X0225618Y0103087D01*
X0225631Y0103149D01*
X0225649Y0103209D01*
X0225670Y0103268D01*
X0225695Y0103326D01*
X0225724Y0103382D01*
X0225756Y0103436D01*
X0225791Y0103488D01*
X0225829Y0103537D01*
X0225871Y0103585D01*
X0225915Y0103629D01*
X0225963Y0103671D01*
X0226012Y0103709D01*
X0226064Y0103744D01*
X0226118Y0103776D01*
X0226174Y0103805D01*
X0226232Y0103830D01*
X0226291Y0103851D01*
X0226351Y0103869D01*
X0226413Y0103882D01*
X0226475Y0103892D01*
X0226537Y0103898D01*
X0226600Y0103900D01*
X0226663Y0103898D01*
X0226725Y0103892D01*
X0226787Y0103882D01*
X0226849Y0103869D01*
X0226909Y0103851D01*
X0226968Y0103830D01*
X0227026Y0103805D01*
X0227082Y0103776D01*
X0227136Y0103744D01*
X0227188Y0103709D01*
X0227237Y0103671D01*
X0227285Y0103629D01*
X0227329Y0103585D01*
X0227371Y0103537D01*
X0227409Y0103488D01*
X0227444Y0103436D01*
X0227476Y0103382D01*
X0227505Y0103326D01*
X0227530Y0103268D01*
X0227551Y0103209D01*
X0227569Y0103149D01*
X0227582Y0103087D01*
X0227592Y0103025D01*
X0227598Y0102963D01*
X0227600Y0102900D01*
X0227598Y0102837D01*
X0227592Y0102775D01*
X0227582Y0102713D01*
X0227569Y0102651D01*
X0227551Y0102591D01*
X0227530Y0102532D01*
X0227505Y0102474D01*
X0227476Y0102418D01*
X0227444Y0102364D01*
X0227409Y0102312D01*
X0227371Y0102263D01*
X0227329Y0102215D01*
X0227285Y0102171D01*
X0227237Y0102129D01*
X0227188Y0102091D01*
X0227136Y0102056D01*
X0227082Y0102024D01*
X0227026Y0101995D01*
X0226968Y0101970D01*
X0226909Y0101949D01*
X0226849Y0101931D01*
X0226787Y0101918D01*
X0226725Y0101908D01*
X0226663Y0101902D01*
X0226600Y0101900D01*
X0226537Y0101902D01*
X0226475Y0101908D01*
X0226413Y0101918D01*
X0226351Y0101931D01*
X0226291Y0101949D01*
X0226232Y0101970D01*
X0226174Y0101995D01*
X0226118Y0102024D01*
X0226064Y0102056D01*
X0226012Y0102091D01*
X0225963Y0102129D01*
X0225915Y0102171D01*
X0225871Y0102215D01*
X0225829Y0102263D01*
X0225791Y0102312D01*
X0225756Y0102364D01*
X0225724Y0102418D01*
X0225695Y0102474D01*
X0225670Y0102532D01*
X0225649Y0102591D01*
X0225631Y0102651D01*
X0225618Y0102713D01*
X0225608Y0102775D01*
X0225602Y0102837D01*
X0225600Y0102900D01*
X0223500Y0061000D02*
X0241500Y0061000D01*
X0241500Y0039000D01*
X0223500Y0039000D01*
X0223500Y0061000D01*
X0225600Y0057900D02*
X0225602Y0057963D01*
X0225608Y0058025D01*
X0225618Y0058087D01*
X0225631Y0058149D01*
X0225649Y0058209D01*
X0225670Y0058268D01*
X0225695Y0058326D01*
X0225724Y0058382D01*
X0225756Y0058436D01*
X0225791Y0058488D01*
X0225829Y0058537D01*
X0225871Y0058585D01*
X0225915Y0058629D01*
X0225963Y0058671D01*
X0226012Y0058709D01*
X0226064Y0058744D01*
X0226118Y0058776D01*
X0226174Y0058805D01*
X0226232Y0058830D01*
X0226291Y0058851D01*
X0226351Y0058869D01*
X0226413Y0058882D01*
X0226475Y0058892D01*
X0226537Y0058898D01*
X0226600Y0058900D01*
X0226663Y0058898D01*
X0226725Y0058892D01*
X0226787Y0058882D01*
X0226849Y0058869D01*
X0226909Y0058851D01*
X0226968Y0058830D01*
X0227026Y0058805D01*
X0227082Y0058776D01*
X0227136Y0058744D01*
X0227188Y0058709D01*
X0227237Y0058671D01*
X0227285Y0058629D01*
X0227329Y0058585D01*
X0227371Y0058537D01*
X0227409Y0058488D01*
X0227444Y0058436D01*
X0227476Y0058382D01*
X0227505Y0058326D01*
X0227530Y0058268D01*
X0227551Y0058209D01*
X0227569Y0058149D01*
X0227582Y0058087D01*
X0227592Y0058025D01*
X0227598Y0057963D01*
X0227600Y0057900D01*
X0227598Y0057837D01*
X0227592Y0057775D01*
X0227582Y0057713D01*
X0227569Y0057651D01*
X0227551Y0057591D01*
X0227530Y0057532D01*
X0227505Y0057474D01*
X0227476Y0057418D01*
X0227444Y0057364D01*
X0227409Y0057312D01*
X0227371Y0057263D01*
X0227329Y0057215D01*
X0227285Y0057171D01*
X0227237Y0057129D01*
X0227188Y0057091D01*
X0227136Y0057056D01*
X0227082Y0057024D01*
X0227026Y0056995D01*
X0226968Y0056970D01*
X0226909Y0056949D01*
X0226849Y0056931D01*
X0226787Y0056918D01*
X0226725Y0056908D01*
X0226663Y0056902D01*
X0226600Y0056900D01*
X0226537Y0056902D01*
X0226475Y0056908D01*
X0226413Y0056918D01*
X0226351Y0056931D01*
X0226291Y0056949D01*
X0226232Y0056970D01*
X0226174Y0056995D01*
X0226118Y0057024D01*
X0226064Y0057056D01*
X0226012Y0057091D01*
X0225963Y0057129D01*
X0225915Y0057171D01*
X0225871Y0057215D01*
X0225829Y0057263D01*
X0225791Y0057312D01*
X0225756Y0057364D01*
X0225724Y0057418D01*
X0225695Y0057474D01*
X0225670Y0057532D01*
X0225649Y0057591D01*
X0225631Y0057651D01*
X0225618Y0057713D01*
X0225608Y0057775D01*
X0225602Y0057837D01*
X0225600Y0057900D01*
X0189200Y0032468D02*
X0188633Y0033035D01*
X0186364Y0033035D01*
X0185797Y0032468D01*
X0185797Y0030766D01*
X0189200Y0030766D01*
X0189200Y0032468D01*
X0189200Y0029352D02*
X0185797Y0029352D01*
X0185797Y0027083D02*
X0189200Y0029352D01*
X0189200Y0027083D02*
X0185797Y0027083D01*
X0186364Y0025669D02*
X0185797Y0025101D01*
X0185797Y0023967D01*
X0186364Y0023400D01*
X0188633Y0023400D01*
X0189200Y0023967D01*
X0189200Y0025101D01*
X0188633Y0025669D01*
X0187499Y0025669D01*
X0187499Y0024534D01*
X0179200Y0023967D02*
X0178633Y0023400D01*
X0176364Y0023400D01*
X0175797Y0023967D01*
X0175797Y0025101D01*
X0176364Y0025669D01*
X0177499Y0025669D02*
X0177499Y0024534D01*
X0177499Y0025669D02*
X0178633Y0025669D01*
X0179200Y0025101D01*
X0179200Y0023967D01*
X0179200Y0027083D02*
X0175797Y0027083D01*
X0179200Y0029352D01*
X0175797Y0029352D01*
X0175797Y0030766D02*
X0175797Y0032468D01*
X0176364Y0033035D01*
X0178633Y0033035D01*
X0179200Y0032468D01*
X0179200Y0030766D01*
X0175797Y0030766D01*
X0169200Y0028217D02*
X0168066Y0029352D01*
X0165797Y0029352D01*
X0165797Y0027083D02*
X0168066Y0027083D01*
X0169200Y0028217D01*
X0168633Y0025669D02*
X0167499Y0025669D01*
X0166931Y0025101D01*
X0166931Y0024534D01*
X0167499Y0023400D01*
X0165797Y0023400D01*
X0165797Y0025669D01*
X0168633Y0025669D02*
X0169200Y0025101D01*
X0169200Y0023967D01*
X0168633Y0023400D01*
X0159200Y0023967D02*
X0158633Y0023400D01*
X0159200Y0023967D02*
X0159200Y0025101D01*
X0158633Y0025669D01*
X0158066Y0025669D01*
X0157499Y0025101D01*
X0157499Y0024534D01*
X0157499Y0025101D02*
X0156931Y0025669D01*
X0156364Y0025669D01*
X0155797Y0025101D01*
X0155797Y0023967D01*
X0156364Y0023400D01*
X0158633Y0027083D02*
X0158633Y0027650D01*
X0159200Y0027650D01*
X0159200Y0027083D01*
X0158633Y0027083D01*
X0158633Y0028925D02*
X0159200Y0029492D01*
X0159200Y0030626D01*
X0158633Y0031193D01*
X0158066Y0031193D01*
X0157499Y0030626D01*
X0157499Y0030059D01*
X0157499Y0030626D02*
X0156931Y0031193D01*
X0156364Y0031193D01*
X0155797Y0030626D01*
X0155797Y0029492D01*
X0156364Y0028925D01*
X0155797Y0032608D02*
X0158066Y0032608D01*
X0159200Y0033742D01*
X0158066Y0034876D01*
X0155797Y0034876D01*
X0149200Y0034449D02*
X0149200Y0036718D01*
X0147499Y0035584D02*
X0147499Y0034449D01*
X0148066Y0033035D02*
X0148633Y0033035D01*
X0149200Y0032468D01*
X0149200Y0031333D01*
X0148633Y0030766D01*
X0147499Y0031333D02*
X0147499Y0032468D01*
X0148066Y0033035D01*
X0146364Y0033035D02*
X0145797Y0032468D01*
X0145797Y0031333D01*
X0146364Y0030766D01*
X0146931Y0030766D01*
X0147499Y0031333D01*
X0149200Y0029352D02*
X0149200Y0027083D01*
X0145797Y0027083D01*
X0145797Y0029352D01*
X0147499Y0028217D02*
X0147499Y0027083D01*
X0147499Y0025669D02*
X0146364Y0025669D01*
X0145797Y0025101D01*
X0145797Y0023400D01*
X0149200Y0023400D01*
X0148066Y0023400D02*
X0148066Y0025101D01*
X0147499Y0025669D01*
X0148066Y0024534D02*
X0149200Y0025669D01*
X0149200Y0034449D02*
X0145797Y0034449D01*
X0145797Y0036718D01*
X0145797Y0038133D02*
X0145797Y0040401D01*
X0145797Y0039267D02*
X0149200Y0039267D01*
X0195230Y0027650D02*
X0195797Y0027650D01*
X0196931Y0027650D02*
X0199200Y0027650D01*
X0199200Y0027083D02*
X0199200Y0028217D01*
X0199200Y0029539D02*
X0196931Y0029539D01*
X0196931Y0031240D01*
X0197499Y0031807D01*
X0199200Y0031807D01*
X0196931Y0027650D02*
X0196931Y0027083D01*
X0195797Y0025669D02*
X0198066Y0025669D01*
X0199200Y0024534D01*
X0198066Y0023400D01*
X0195797Y0023400D01*
X0382500Y0042500D02*
X0385000Y0040000D01*
X0382500Y0042500D02*
X0382500Y0047500D01*
X0385000Y0050000D01*
X0400000Y0050000D01*
X0402500Y0052500D01*
X0402500Y0057500D01*
X0400000Y0060000D01*
X0385000Y0060000D01*
X0382500Y0062500D01*
X0382500Y0067500D01*
X0385000Y0070000D01*
X0400000Y0070000D01*
X0402500Y0072500D01*
X0402500Y0077500D01*
X0400000Y0080000D01*
X0385000Y0080000D01*
X0382500Y0082500D01*
X0382500Y0087500D01*
X0385000Y0090000D01*
X0400000Y0090000D01*
X0402500Y0092500D01*
X0402500Y0097500D01*
X0400000Y0100000D01*
X0385000Y0100000D01*
X0382500Y0102500D01*
X0382500Y0107500D01*
X0385000Y0110000D01*
X0400000Y0110000D01*
X0402500Y0107500D01*
X0402500Y0102500D01*
X0400000Y0100000D01*
X0400000Y0110000D02*
X0402500Y0112500D01*
X0402500Y0117500D01*
X0400000Y0120000D01*
X0385000Y0120000D01*
X0382500Y0117500D01*
X0382500Y0112500D01*
X0385000Y0110000D01*
X0385000Y0100000D02*
X0382500Y0097500D01*
X0382500Y0092500D01*
X0385000Y0090000D01*
X0400000Y0090000D02*
X0402500Y0087500D01*
X0402500Y0082500D01*
X0400000Y0080000D01*
X0400000Y0070000D02*
X0402500Y0067500D01*
X0402500Y0062500D01*
X0400000Y0060000D01*
X0400000Y0050000D02*
X0402500Y0047500D01*
X0402500Y0042500D01*
X0400000Y0040000D01*
X0405300Y0035236D02*
X0405300Y0032967D01*
X0405867Y0032400D01*
X0407001Y0032400D01*
X0407569Y0032967D01*
X0407569Y0034101D01*
X0406434Y0034101D01*
X0405300Y0035236D02*
X0405867Y0035803D01*
X0407001Y0035803D01*
X0407569Y0035236D01*
X0408983Y0035803D02*
X0411252Y0032400D01*
X0411252Y0035803D01*
X0412666Y0035803D02*
X0414368Y0035803D01*
X0414935Y0035236D01*
X0414935Y0032967D01*
X0414368Y0032400D01*
X0412666Y0032400D01*
X0412666Y0035803D01*
X0408983Y0035803D02*
X0408983Y0032400D01*
X0385000Y0050000D02*
X0382500Y0052500D01*
X0382500Y0057500D01*
X0385000Y0060000D01*
X0385000Y0070000D02*
X0382500Y0072500D01*
X0382500Y0077500D01*
X0385000Y0080000D01*
X0385000Y0120000D02*
X0382500Y0122500D01*
X0382500Y0127500D01*
X0385000Y0130000D01*
X0400000Y0130000D01*
X0402500Y0132500D01*
X0402500Y0137500D01*
X0400000Y0140000D01*
X0385000Y0140000D01*
X0382500Y0142500D01*
X0382500Y0147500D01*
X0385000Y0150000D01*
X0400000Y0150000D01*
X0402500Y0152500D01*
X0402500Y0157500D01*
X0400000Y0160000D01*
X0385000Y0160000D01*
X0382500Y0162500D01*
X0382500Y0167500D01*
X0385000Y0170000D01*
X0400000Y0170000D01*
X0402500Y0172500D01*
X0402500Y0177500D01*
X0400000Y0180000D01*
X0385000Y0180000D01*
X0382500Y0182500D01*
X0382500Y0187500D01*
X0385000Y0190000D01*
X0400000Y0190000D01*
X0402500Y0187500D01*
X0402500Y0182500D01*
X0400000Y0180000D01*
X0400000Y0190000D02*
X0402500Y0192500D01*
X0402500Y0197500D01*
X0400000Y0200000D01*
X0385000Y0200000D02*
X0382500Y0197500D01*
X0382500Y0192500D01*
X0385000Y0190000D01*
X0385000Y0180000D02*
X0382500Y0177500D01*
X0382500Y0172500D01*
X0385000Y0170000D01*
X0400000Y0170000D02*
X0402500Y0167500D01*
X0402500Y0162500D01*
X0400000Y0160000D01*
X0400000Y0150000D02*
X0402500Y0147500D01*
X0402500Y0142500D01*
X0400000Y0140000D01*
X0400000Y0130000D02*
X0402500Y0127500D01*
X0402500Y0122500D01*
X0400000Y0120000D01*
X0385000Y0130000D02*
X0382500Y0132500D01*
X0382500Y0137500D01*
X0385000Y0140000D01*
X0385000Y0150000D02*
X0382500Y0152500D01*
X0382500Y0157500D01*
X0385000Y0160000D01*
D12*
X0290825Y0159713D02*
X0288357Y0159713D01*
X0290825Y0162182D01*
X0290825Y0162799D01*
X0290208Y0163416D01*
X0288974Y0163416D01*
X0288357Y0162799D01*
X0287142Y0162799D02*
X0286525Y0163416D01*
X0285291Y0163416D01*
X0284673Y0162799D01*
X0284673Y0160330D01*
X0285291Y0159713D01*
X0286525Y0159713D01*
X0287142Y0160330D01*
X0256302Y0177650D02*
X0253833Y0177650D01*
X0252619Y0177650D02*
X0251384Y0178884D01*
X0252002Y0178884D02*
X0250150Y0178884D01*
X0250150Y0177650D02*
X0250150Y0181353D01*
X0252002Y0181353D01*
X0252619Y0180736D01*
X0252619Y0179502D01*
X0252002Y0178884D01*
X0253833Y0180119D02*
X0255068Y0181353D01*
X0255068Y0177650D01*
X0244418Y0161412D02*
X0244418Y0157709D01*
X0243184Y0157709D02*
X0245652Y0157709D01*
X0243184Y0160178D02*
X0244418Y0161412D01*
X0241969Y0160795D02*
X0241352Y0161412D01*
X0240118Y0161412D01*
X0239500Y0160795D01*
X0239500Y0158326D01*
X0240118Y0157709D01*
X0241352Y0157709D01*
X0241969Y0158326D01*
X0221302Y0155736D02*
X0220685Y0156353D01*
X0219450Y0156353D01*
X0218833Y0155736D01*
X0217619Y0156353D02*
X0217619Y0153267D01*
X0217002Y0152650D01*
X0215767Y0152650D01*
X0215150Y0153267D01*
X0215150Y0156353D01*
X0218833Y0152650D02*
X0221302Y0155119D01*
X0221302Y0155736D01*
X0221302Y0152650D02*
X0218833Y0152650D01*
X0250150Y0138853D02*
X0252002Y0138853D01*
X0252619Y0138236D01*
X0252619Y0137002D01*
X0252002Y0136384D01*
X0250150Y0136384D01*
X0250150Y0135150D02*
X0250150Y0138853D01*
X0253833Y0138236D02*
X0254450Y0138853D01*
X0255685Y0138853D01*
X0256302Y0138236D01*
X0256302Y0137619D01*
X0253833Y0135150D01*
X0256302Y0135150D01*
X0252619Y0135150D02*
X0251384Y0136384D01*
X0243968Y0124794D02*
X0242734Y0124794D01*
X0242116Y0124177D01*
X0240902Y0124177D02*
X0240285Y0124794D01*
X0239051Y0124794D01*
X0238433Y0124177D01*
X0238433Y0121708D01*
X0239051Y0121091D01*
X0240285Y0121091D01*
X0240902Y0121708D01*
X0242116Y0121708D02*
X0242734Y0121091D01*
X0243968Y0121091D01*
X0244585Y0121708D01*
X0244585Y0122325D01*
X0243968Y0122943D01*
X0243351Y0122943D01*
X0243968Y0122943D02*
X0244585Y0123560D01*
X0244585Y0124177D01*
X0243968Y0124794D01*
X0226302Y0113236D02*
X0225685Y0113853D01*
X0224450Y0113853D01*
X0223833Y0113236D01*
X0222619Y0113853D02*
X0222619Y0110767D01*
X0222002Y0110150D01*
X0220767Y0110150D01*
X0220150Y0110767D01*
X0220150Y0113853D01*
X0223833Y0110767D02*
X0224450Y0110150D01*
X0225685Y0110150D01*
X0226302Y0110767D01*
X0226302Y0111384D01*
X0225685Y0112002D01*
X0225068Y0112002D01*
X0225685Y0112002D02*
X0226302Y0112619D01*
X0226302Y0113236D01*
X0250150Y0093853D02*
X0252002Y0093853D01*
X0252619Y0093236D01*
X0252619Y0092002D01*
X0252002Y0091384D01*
X0250150Y0091384D01*
X0250150Y0090150D02*
X0250150Y0093853D01*
X0251384Y0091384D02*
X0252619Y0090150D01*
X0253833Y0090767D02*
X0254450Y0090150D01*
X0255685Y0090150D01*
X0256302Y0090767D01*
X0256302Y0091384D01*
X0255685Y0092002D01*
X0255068Y0092002D01*
X0255685Y0092002D02*
X0256302Y0092619D01*
X0256302Y0093236D01*
X0255685Y0093853D01*
X0254450Y0093853D01*
X0253833Y0093236D01*
X0244585Y0079794D02*
X0242116Y0079794D01*
X0242116Y0077943D01*
X0243351Y0078560D01*
X0243968Y0078560D01*
X0244585Y0077943D01*
X0244585Y0076708D01*
X0243968Y0076091D01*
X0242734Y0076091D01*
X0242116Y0076708D01*
X0240902Y0076708D02*
X0240285Y0076091D01*
X0239051Y0076091D01*
X0238433Y0076708D01*
X0238433Y0079177D01*
X0239051Y0079794D01*
X0240285Y0079794D01*
X0240902Y0079177D01*
X0225685Y0068853D02*
X0223833Y0067002D01*
X0226302Y0067002D01*
X0225685Y0068853D02*
X0225685Y0065150D01*
X0222619Y0065767D02*
X0222619Y0068853D01*
X0220150Y0068853D02*
X0220150Y0065767D01*
X0220767Y0065150D01*
X0222002Y0065150D01*
X0222619Y0065767D01*
X0196912Y0069704D02*
X0196295Y0069087D01*
X0195061Y0069087D01*
X0194443Y0069704D01*
X0194443Y0070321D01*
X0195061Y0070939D01*
X0196295Y0070939D01*
X0196912Y0070321D01*
X0196912Y0069704D01*
X0196295Y0070939D02*
X0196912Y0071556D01*
X0196912Y0072173D01*
X0196295Y0072790D01*
X0195061Y0072790D01*
X0194443Y0072173D01*
X0194443Y0071556D01*
X0195061Y0070939D01*
X0193229Y0072173D02*
X0192612Y0072790D01*
X0191377Y0072790D01*
X0190760Y0072173D01*
X0190760Y0069704D01*
X0191377Y0069087D01*
X0192612Y0069087D01*
X0193229Y0069704D01*
X0161912Y0057173D02*
X0161912Y0054704D01*
X0161295Y0054087D01*
X0160061Y0054087D01*
X0159443Y0054704D01*
X0158229Y0054704D02*
X0157612Y0054087D01*
X0156377Y0054087D01*
X0155760Y0054704D01*
X0155760Y0057173D01*
X0156377Y0057790D01*
X0157612Y0057790D01*
X0158229Y0057173D01*
X0159443Y0057173D02*
X0159443Y0056556D01*
X0160061Y0055939D01*
X0161912Y0055939D01*
X0161912Y0057173D02*
X0161295Y0057790D01*
X0160061Y0057790D01*
X0159443Y0057173D01*
X0202650Y0033236D02*
X0202650Y0030767D01*
X0203267Y0030150D01*
X0204502Y0030150D01*
X0205119Y0030767D01*
X0206333Y0030150D02*
X0208802Y0030150D01*
X0207568Y0030150D02*
X0207568Y0033853D01*
X0206333Y0032619D01*
X0205119Y0033236D02*
X0204502Y0033853D01*
X0203267Y0033853D01*
X0202650Y0033236D01*
X0210016Y0033236D02*
X0210016Y0030767D01*
X0212485Y0033236D01*
X0212485Y0030767D01*
X0211868Y0030150D01*
X0210633Y0030150D01*
X0210016Y0030767D01*
X0210016Y0033236D02*
X0210633Y0033853D01*
X0211868Y0033853D01*
X0212485Y0033236D01*
X0220933Y0034208D02*
X0221551Y0033591D01*
X0222785Y0033591D01*
X0223402Y0034208D01*
X0224616Y0034208D02*
X0224616Y0033591D01*
X0224616Y0034208D02*
X0227085Y0036677D01*
X0227085Y0037294D01*
X0224616Y0037294D01*
X0223402Y0036677D02*
X0222785Y0037294D01*
X0221551Y0037294D01*
X0220933Y0036677D01*
X0220933Y0034208D01*
X0250150Y0045150D02*
X0250150Y0048853D01*
X0252002Y0048853D01*
X0252619Y0048236D01*
X0252619Y0047002D01*
X0252002Y0046384D01*
X0250150Y0046384D01*
X0251384Y0046384D02*
X0252619Y0045150D01*
X0253833Y0047002D02*
X0256302Y0047002D01*
X0255685Y0048853D02*
X0255685Y0045150D01*
X0253833Y0047002D02*
X0255685Y0048853D01*
X0284673Y0070330D02*
X0285291Y0069713D01*
X0286525Y0069713D01*
X0287142Y0070330D01*
X0288357Y0070330D02*
X0288974Y0069713D01*
X0290208Y0069713D01*
X0290825Y0070330D01*
X0290825Y0070947D01*
X0290208Y0071565D01*
X0288357Y0071565D01*
X0288357Y0070330D01*
X0288357Y0071565D02*
X0289591Y0072799D01*
X0290825Y0073416D01*
X0287142Y0072799D02*
X0286525Y0073416D01*
X0285291Y0073416D01*
X0284673Y0072799D01*
X0284673Y0070330D01*
X0285291Y0114713D02*
X0286525Y0114713D01*
X0287142Y0115330D01*
X0288357Y0116565D02*
X0290825Y0116565D01*
X0290208Y0118416D02*
X0290208Y0114713D01*
X0288357Y0116565D02*
X0290208Y0118416D01*
X0287142Y0117799D02*
X0286525Y0118416D01*
X0285291Y0118416D01*
X0284673Y0117799D01*
X0284673Y0115330D01*
X0285291Y0114713D01*
X0221302Y0187650D02*
X0218833Y0187650D01*
X0220068Y0187650D02*
X0220068Y0191353D01*
X0218833Y0190119D01*
X0217619Y0191353D02*
X0217619Y0188267D01*
X0217002Y0187650D01*
X0215767Y0187650D01*
X0215150Y0188267D01*
X0215150Y0191353D01*
X0074985Y0182650D02*
X0072516Y0182650D01*
X0073751Y0182650D02*
X0073751Y0186353D01*
X0072516Y0185119D01*
X0071302Y0185736D02*
X0071302Y0184502D01*
X0070685Y0183884D01*
X0068833Y0183884D01*
X0068833Y0182650D02*
X0068833Y0186353D01*
X0070685Y0186353D01*
X0071302Y0185736D01*
X0067619Y0186353D02*
X0066384Y0186353D01*
X0067002Y0186353D02*
X0067002Y0183267D01*
X0066384Y0182650D01*
X0065767Y0182650D01*
X0065150Y0183267D01*
X0022650Y0133008D02*
X0022149Y0132507D01*
X0022149Y0131507D01*
X0021649Y0131006D01*
X0021148Y0131507D01*
X0021148Y0133008D01*
X0022650Y0133008D02*
X0023150Y0132507D01*
X0023150Y0131006D01*
X0023150Y0129969D02*
X0023150Y0128468D01*
X0022650Y0127968D01*
X0021649Y0127968D01*
X0021148Y0128468D01*
X0021148Y0129969D01*
X0020147Y0129969D02*
X0023150Y0129969D01*
X0021148Y0126937D02*
X0021148Y0126436D01*
X0022149Y0125435D01*
X0023150Y0125435D02*
X0021148Y0125435D01*
X0021649Y0124398D02*
X0023150Y0124398D01*
X0023150Y0122897D01*
X0022650Y0122397D01*
X0022149Y0122897D01*
X0022149Y0124398D01*
X0021649Y0124398D02*
X0021148Y0123898D01*
X0021148Y0122897D01*
X0021148Y0121360D02*
X0022650Y0121360D01*
X0023150Y0120859D01*
X0022650Y0120359D01*
X0023150Y0119859D01*
X0022650Y0119358D01*
X0021148Y0119358D01*
X0021148Y0118333D02*
X0021148Y0117332D01*
X0020648Y0117833D02*
X0022650Y0117833D01*
X0023150Y0118333D01*
X0023150Y0116296D02*
X0021148Y0116296D01*
X0023150Y0116296D02*
X0023150Y0114794D01*
X0022650Y0114294D01*
X0021148Y0114294D01*
X0021649Y0113257D02*
X0021148Y0112757D01*
X0021148Y0111756D01*
X0021649Y0111255D01*
X0022650Y0111255D01*
X0023150Y0111756D01*
X0023150Y0112757D01*
X0022650Y0113257D01*
X0021649Y0113257D01*
X0021148Y0080508D02*
X0021148Y0079007D01*
X0021649Y0078506D01*
X0022149Y0079007D01*
X0022149Y0080007D01*
X0022650Y0080508D01*
X0023150Y0080007D01*
X0023150Y0078506D01*
X0023150Y0077469D02*
X0020147Y0077469D01*
X0021148Y0077469D02*
X0021148Y0075968D01*
X0021649Y0075468D01*
X0022650Y0075468D01*
X0023150Y0075968D01*
X0023150Y0077469D01*
X0021148Y0074437D02*
X0021148Y0073936D01*
X0022149Y0072935D01*
X0023150Y0072935D02*
X0021148Y0072935D01*
X0021649Y0071898D02*
X0023150Y0071898D01*
X0023150Y0070397D01*
X0022650Y0069897D01*
X0022149Y0070397D01*
X0022149Y0071898D01*
X0021649Y0071898D02*
X0021148Y0071398D01*
X0021148Y0070397D01*
X0021148Y0068860D02*
X0022650Y0068860D01*
X0023150Y0068359D01*
X0022650Y0067859D01*
X0023150Y0067359D01*
X0022650Y0066858D01*
X0021148Y0066858D01*
X0021148Y0065833D02*
X0021148Y0064832D01*
X0020648Y0065333D02*
X0022650Y0065333D01*
X0023150Y0065833D01*
X0023150Y0063796D02*
X0021148Y0063796D01*
X0023150Y0063796D02*
X0023150Y0062294D01*
X0022650Y0061794D01*
X0021148Y0061794D01*
X0021649Y0060757D02*
X0021148Y0060257D01*
X0021148Y0059256D01*
X0021649Y0058755D01*
X0022650Y0058755D01*
X0023150Y0059256D01*
X0023150Y0060257D01*
X0022650Y0060757D01*
X0021649Y0060757D01*
D13*
X0144705Y0052795D02*
X0144705Y0043740D01*
X0145885Y0036260D02*
X0145980Y0035977D01*
X0146082Y0035696D01*
X0146191Y0035419D01*
X0146306Y0035143D01*
X0146428Y0034871D01*
X0146557Y0034602D01*
X0146692Y0034336D01*
X0146834Y0034074D01*
X0146982Y0033815D01*
X0147136Y0033559D01*
X0147297Y0033308D01*
X0147464Y0033060D01*
X0147636Y0032817D01*
X0147815Y0032578D01*
X0147999Y0032343D01*
X0148189Y0032113D01*
X0148385Y0031888D01*
X0148586Y0031668D01*
X0148792Y0031452D01*
X0149004Y0031242D01*
X0149220Y0031037D01*
X0149442Y0030837D01*
X0149669Y0030643D01*
X0149900Y0030454D01*
X0150135Y0030271D01*
X0150375Y0030094D01*
X0150620Y0029923D01*
X0150868Y0029758D01*
X0151121Y0029599D01*
X0151377Y0029446D01*
X0151637Y0029299D01*
X0151900Y0029159D01*
X0152167Y0029025D01*
X0152437Y0028898D01*
X0152710Y0028778D01*
X0152985Y0028664D01*
X0153264Y0028557D01*
X0153545Y0028457D01*
X0153828Y0028364D01*
X0154114Y0028277D01*
X0154402Y0028198D01*
X0154691Y0028126D01*
X0154982Y0028061D01*
X0155275Y0028003D01*
X0155569Y0027952D01*
X0155864Y0027908D01*
X0156160Y0027872D01*
X0156457Y0027843D01*
X0156755Y0027821D01*
X0157053Y0027806D01*
X0157351Y0027799D01*
X0157649Y0027799D01*
X0157947Y0027806D01*
X0158245Y0027821D01*
X0158543Y0027843D01*
X0158840Y0027872D01*
X0159136Y0027908D01*
X0159431Y0027952D01*
X0159725Y0028003D01*
X0160018Y0028061D01*
X0160309Y0028126D01*
X0160598Y0028198D01*
X0160886Y0028277D01*
X0161172Y0028364D01*
X0161455Y0028457D01*
X0161736Y0028557D01*
X0162015Y0028664D01*
X0162290Y0028778D01*
X0162563Y0028898D01*
X0162833Y0029025D01*
X0163100Y0029159D01*
X0163363Y0029299D01*
X0163623Y0029446D01*
X0163879Y0029599D01*
X0164132Y0029758D01*
X0164380Y0029923D01*
X0164625Y0030094D01*
X0164865Y0030271D01*
X0165100Y0030454D01*
X0165331Y0030643D01*
X0165558Y0030837D01*
X0165780Y0031037D01*
X0165996Y0031242D01*
X0166208Y0031452D01*
X0166414Y0031668D01*
X0166615Y0031888D01*
X0166811Y0032113D01*
X0167001Y0032343D01*
X0167185Y0032578D01*
X0167364Y0032817D01*
X0167536Y0033060D01*
X0167703Y0033308D01*
X0167864Y0033559D01*
X0168018Y0033815D01*
X0168166Y0034074D01*
X0168308Y0034336D01*
X0168443Y0034602D01*
X0168572Y0034871D01*
X0168694Y0035143D01*
X0168809Y0035419D01*
X0168918Y0035696D01*
X0169020Y0035977D01*
X0169115Y0036260D01*
X0170295Y0036260D02*
X0170295Y0033898D01*
X0163602Y0027205D01*
X0144705Y0027205D01*
X0144705Y0036260D01*
X0145885Y0043740D02*
X0145980Y0044023D01*
X0146082Y0044304D01*
X0146191Y0044581D01*
X0146306Y0044857D01*
X0146428Y0045129D01*
X0146557Y0045398D01*
X0146692Y0045664D01*
X0146834Y0045926D01*
X0146982Y0046185D01*
X0147136Y0046441D01*
X0147297Y0046692D01*
X0147464Y0046940D01*
X0147636Y0047183D01*
X0147815Y0047422D01*
X0147999Y0047657D01*
X0148189Y0047887D01*
X0148385Y0048112D01*
X0148586Y0048332D01*
X0148792Y0048548D01*
X0149004Y0048758D01*
X0149220Y0048963D01*
X0149442Y0049163D01*
X0149669Y0049357D01*
X0149900Y0049546D01*
X0150135Y0049729D01*
X0150375Y0049906D01*
X0150620Y0050077D01*
X0150868Y0050242D01*
X0151121Y0050401D01*
X0151377Y0050554D01*
X0151637Y0050701D01*
X0151900Y0050841D01*
X0152167Y0050975D01*
X0152437Y0051102D01*
X0152710Y0051222D01*
X0152985Y0051336D01*
X0153264Y0051443D01*
X0153545Y0051543D01*
X0153828Y0051636D01*
X0154114Y0051723D01*
X0154402Y0051802D01*
X0154691Y0051874D01*
X0154982Y0051939D01*
X0155275Y0051997D01*
X0155569Y0052048D01*
X0155864Y0052092D01*
X0156160Y0052128D01*
X0156457Y0052157D01*
X0156755Y0052179D01*
X0157053Y0052194D01*
X0157351Y0052201D01*
X0157649Y0052201D01*
X0157947Y0052194D01*
X0158245Y0052179D01*
X0158543Y0052157D01*
X0158840Y0052128D01*
X0159136Y0052092D01*
X0159431Y0052048D01*
X0159725Y0051997D01*
X0160018Y0051939D01*
X0160309Y0051874D01*
X0160598Y0051802D01*
X0160886Y0051723D01*
X0161172Y0051636D01*
X0161455Y0051543D01*
X0161736Y0051443D01*
X0162015Y0051336D01*
X0162290Y0051222D01*
X0162563Y0051102D01*
X0162833Y0050975D01*
X0163100Y0050841D01*
X0163363Y0050701D01*
X0163623Y0050554D01*
X0163879Y0050401D01*
X0164132Y0050242D01*
X0164380Y0050077D01*
X0164625Y0049906D01*
X0164865Y0049729D01*
X0165100Y0049546D01*
X0165331Y0049357D01*
X0165558Y0049163D01*
X0165780Y0048963D01*
X0165996Y0048758D01*
X0166208Y0048548D01*
X0166414Y0048332D01*
X0166615Y0048112D01*
X0166811Y0047887D01*
X0167001Y0047657D01*
X0167185Y0047422D01*
X0167364Y0047183D01*
X0167536Y0046940D01*
X0167703Y0046692D01*
X0167864Y0046441D01*
X0168018Y0046185D01*
X0168166Y0045926D01*
X0168308Y0045664D01*
X0168443Y0045398D01*
X0168572Y0045129D01*
X0168694Y0044857D01*
X0168809Y0044581D01*
X0168918Y0044304D01*
X0169020Y0044023D01*
X0169115Y0043740D01*
X0170295Y0043740D02*
X0170295Y0046102D01*
X0163602Y0052795D01*
X0144705Y0052795D01*
X0179705Y0043898D02*
X0179705Y0062795D01*
X0188760Y0062795D01*
X0196240Y0062795D02*
X0205295Y0062795D01*
X0205295Y0043898D01*
X0198602Y0037205D01*
X0196240Y0037205D01*
X0188760Y0037205D02*
X0186398Y0037205D01*
X0179705Y0043898D01*
X0196240Y0038385D02*
X0196523Y0038480D01*
X0196804Y0038582D01*
X0197081Y0038691D01*
X0197357Y0038806D01*
X0197629Y0038928D01*
X0197898Y0039057D01*
X0198164Y0039192D01*
X0198426Y0039334D01*
X0198685Y0039482D01*
X0198941Y0039636D01*
X0199192Y0039797D01*
X0199440Y0039964D01*
X0199683Y0040136D01*
X0199922Y0040315D01*
X0200157Y0040499D01*
X0200387Y0040689D01*
X0200612Y0040885D01*
X0200832Y0041086D01*
X0201048Y0041292D01*
X0201258Y0041504D01*
X0201463Y0041720D01*
X0201663Y0041942D01*
X0201857Y0042169D01*
X0202046Y0042400D01*
X0202229Y0042635D01*
X0202406Y0042875D01*
X0202577Y0043120D01*
X0202742Y0043368D01*
X0202901Y0043621D01*
X0203054Y0043877D01*
X0203201Y0044137D01*
X0203341Y0044400D01*
X0203475Y0044667D01*
X0203602Y0044937D01*
X0203722Y0045210D01*
X0203836Y0045485D01*
X0203943Y0045764D01*
X0204043Y0046045D01*
X0204136Y0046328D01*
X0204223Y0046614D01*
X0204302Y0046902D01*
X0204374Y0047191D01*
X0204439Y0047482D01*
X0204497Y0047775D01*
X0204548Y0048069D01*
X0204592Y0048364D01*
X0204628Y0048660D01*
X0204657Y0048957D01*
X0204679Y0049255D01*
X0204694Y0049553D01*
X0204701Y0049851D01*
X0204701Y0050149D01*
X0204694Y0050447D01*
X0204679Y0050745D01*
X0204657Y0051043D01*
X0204628Y0051340D01*
X0204592Y0051636D01*
X0204548Y0051931D01*
X0204497Y0052225D01*
X0204439Y0052518D01*
X0204374Y0052809D01*
X0204302Y0053098D01*
X0204223Y0053386D01*
X0204136Y0053672D01*
X0204043Y0053955D01*
X0203943Y0054236D01*
X0203836Y0054515D01*
X0203722Y0054790D01*
X0203602Y0055063D01*
X0203475Y0055333D01*
X0203341Y0055600D01*
X0203201Y0055863D01*
X0203054Y0056123D01*
X0202901Y0056379D01*
X0202742Y0056632D01*
X0202577Y0056880D01*
X0202406Y0057125D01*
X0202229Y0057365D01*
X0202046Y0057600D01*
X0201857Y0057831D01*
X0201663Y0058058D01*
X0201463Y0058280D01*
X0201258Y0058496D01*
X0201048Y0058708D01*
X0200832Y0058914D01*
X0200612Y0059115D01*
X0200387Y0059311D01*
X0200157Y0059501D01*
X0199922Y0059685D01*
X0199683Y0059864D01*
X0199440Y0060036D01*
X0199192Y0060203D01*
X0198941Y0060364D01*
X0198685Y0060518D01*
X0198426Y0060666D01*
X0198164Y0060808D01*
X0197898Y0060943D01*
X0197629Y0061072D01*
X0197357Y0061194D01*
X0197081Y0061309D01*
X0196804Y0061418D01*
X0196523Y0061520D01*
X0196240Y0061615D01*
X0188760Y0061615D02*
X0188477Y0061520D01*
X0188196Y0061418D01*
X0187919Y0061309D01*
X0187643Y0061194D01*
X0187371Y0061072D01*
X0187102Y0060943D01*
X0186836Y0060808D01*
X0186574Y0060666D01*
X0186315Y0060518D01*
X0186059Y0060364D01*
X0185808Y0060203D01*
X0185560Y0060036D01*
X0185317Y0059864D01*
X0185078Y0059685D01*
X0184843Y0059501D01*
X0184613Y0059311D01*
X0184388Y0059115D01*
X0184168Y0058914D01*
X0183952Y0058708D01*
X0183742Y0058496D01*
X0183537Y0058280D01*
X0183337Y0058058D01*
X0183143Y0057831D01*
X0182954Y0057600D01*
X0182771Y0057365D01*
X0182594Y0057125D01*
X0182423Y0056880D01*
X0182258Y0056632D01*
X0182099Y0056379D01*
X0181946Y0056123D01*
X0181799Y0055863D01*
X0181659Y0055600D01*
X0181525Y0055333D01*
X0181398Y0055063D01*
X0181278Y0054790D01*
X0181164Y0054515D01*
X0181057Y0054236D01*
X0180957Y0053955D01*
X0180864Y0053672D01*
X0180777Y0053386D01*
X0180698Y0053098D01*
X0180626Y0052809D01*
X0180561Y0052518D01*
X0180503Y0052225D01*
X0180452Y0051931D01*
X0180408Y0051636D01*
X0180372Y0051340D01*
X0180343Y0051043D01*
X0180321Y0050745D01*
X0180306Y0050447D01*
X0180299Y0050149D01*
X0180299Y0049851D01*
X0180306Y0049553D01*
X0180321Y0049255D01*
X0180343Y0048957D01*
X0180372Y0048660D01*
X0180408Y0048364D01*
X0180452Y0048069D01*
X0180503Y0047775D01*
X0180561Y0047482D01*
X0180626Y0047191D01*
X0180698Y0046902D01*
X0180777Y0046614D01*
X0180864Y0046328D01*
X0180957Y0046045D01*
X0181057Y0045764D01*
X0181164Y0045485D01*
X0181278Y0045210D01*
X0181398Y0044937D01*
X0181525Y0044667D01*
X0181659Y0044400D01*
X0181799Y0044137D01*
X0181946Y0043877D01*
X0182099Y0043621D01*
X0182258Y0043368D01*
X0182423Y0043120D01*
X0182594Y0042875D01*
X0182771Y0042635D01*
X0182954Y0042400D01*
X0183143Y0042169D01*
X0183337Y0041942D01*
X0183537Y0041720D01*
X0183742Y0041504D01*
X0183952Y0041292D01*
X0184168Y0041086D01*
X0184388Y0040885D01*
X0184613Y0040689D01*
X0184843Y0040499D01*
X0185078Y0040315D01*
X0185317Y0040136D01*
X0185560Y0039964D01*
X0185808Y0039797D01*
X0186059Y0039636D01*
X0186315Y0039482D01*
X0186574Y0039334D01*
X0186836Y0039192D01*
X0187102Y0039057D01*
X0187371Y0038928D01*
X0187643Y0038806D01*
X0187919Y0038691D01*
X0188196Y0038582D01*
X0188477Y0038480D01*
X0188760Y0038385D01*
X0257205Y0061398D02*
X0257205Y0063760D01*
X0257205Y0061398D02*
X0263898Y0054705D01*
X0282795Y0054705D01*
X0282795Y0063760D01*
X0282795Y0071240D02*
X0282795Y0080295D01*
X0263898Y0080295D01*
X0257205Y0073602D01*
X0257205Y0071240D01*
X0258385Y0071240D02*
X0258480Y0071523D01*
X0258582Y0071804D01*
X0258691Y0072081D01*
X0258806Y0072357D01*
X0258928Y0072629D01*
X0259057Y0072898D01*
X0259192Y0073164D01*
X0259334Y0073426D01*
X0259482Y0073685D01*
X0259636Y0073941D01*
X0259797Y0074192D01*
X0259964Y0074440D01*
X0260136Y0074683D01*
X0260315Y0074922D01*
X0260499Y0075157D01*
X0260689Y0075387D01*
X0260885Y0075612D01*
X0261086Y0075832D01*
X0261292Y0076048D01*
X0261504Y0076258D01*
X0261720Y0076463D01*
X0261942Y0076663D01*
X0262169Y0076857D01*
X0262400Y0077046D01*
X0262635Y0077229D01*
X0262875Y0077406D01*
X0263120Y0077577D01*
X0263368Y0077742D01*
X0263621Y0077901D01*
X0263877Y0078054D01*
X0264137Y0078201D01*
X0264400Y0078341D01*
X0264667Y0078475D01*
X0264937Y0078602D01*
X0265210Y0078722D01*
X0265485Y0078836D01*
X0265764Y0078943D01*
X0266045Y0079043D01*
X0266328Y0079136D01*
X0266614Y0079223D01*
X0266902Y0079302D01*
X0267191Y0079374D01*
X0267482Y0079439D01*
X0267775Y0079497D01*
X0268069Y0079548D01*
X0268364Y0079592D01*
X0268660Y0079628D01*
X0268957Y0079657D01*
X0269255Y0079679D01*
X0269553Y0079694D01*
X0269851Y0079701D01*
X0270149Y0079701D01*
X0270447Y0079694D01*
X0270745Y0079679D01*
X0271043Y0079657D01*
X0271340Y0079628D01*
X0271636Y0079592D01*
X0271931Y0079548D01*
X0272225Y0079497D01*
X0272518Y0079439D01*
X0272809Y0079374D01*
X0273098Y0079302D01*
X0273386Y0079223D01*
X0273672Y0079136D01*
X0273955Y0079043D01*
X0274236Y0078943D01*
X0274515Y0078836D01*
X0274790Y0078722D01*
X0275063Y0078602D01*
X0275333Y0078475D01*
X0275600Y0078341D01*
X0275863Y0078201D01*
X0276123Y0078054D01*
X0276379Y0077901D01*
X0276632Y0077742D01*
X0276880Y0077577D01*
X0277125Y0077406D01*
X0277365Y0077229D01*
X0277600Y0077046D01*
X0277831Y0076857D01*
X0278058Y0076663D01*
X0278280Y0076463D01*
X0278496Y0076258D01*
X0278708Y0076048D01*
X0278914Y0075832D01*
X0279115Y0075612D01*
X0279311Y0075387D01*
X0279501Y0075157D01*
X0279685Y0074922D01*
X0279864Y0074683D01*
X0280036Y0074440D01*
X0280203Y0074192D01*
X0280364Y0073941D01*
X0280518Y0073685D01*
X0280666Y0073426D01*
X0280808Y0073164D01*
X0280943Y0072898D01*
X0281072Y0072629D01*
X0281194Y0072357D01*
X0281309Y0072081D01*
X0281418Y0071804D01*
X0281520Y0071523D01*
X0281615Y0071240D01*
X0281615Y0063760D02*
X0281520Y0063477D01*
X0281418Y0063196D01*
X0281309Y0062919D01*
X0281194Y0062643D01*
X0281072Y0062371D01*
X0280943Y0062102D01*
X0280808Y0061836D01*
X0280666Y0061574D01*
X0280518Y0061315D01*
X0280364Y0061059D01*
X0280203Y0060808D01*
X0280036Y0060560D01*
X0279864Y0060317D01*
X0279685Y0060078D01*
X0279501Y0059843D01*
X0279311Y0059613D01*
X0279115Y0059388D01*
X0278914Y0059168D01*
X0278708Y0058952D01*
X0278496Y0058742D01*
X0278280Y0058537D01*
X0278058Y0058337D01*
X0277831Y0058143D01*
X0277600Y0057954D01*
X0277365Y0057771D01*
X0277125Y0057594D01*
X0276880Y0057423D01*
X0276632Y0057258D01*
X0276379Y0057099D01*
X0276123Y0056946D01*
X0275863Y0056799D01*
X0275600Y0056659D01*
X0275333Y0056525D01*
X0275063Y0056398D01*
X0274790Y0056278D01*
X0274515Y0056164D01*
X0274236Y0056057D01*
X0273955Y0055957D01*
X0273672Y0055864D01*
X0273386Y0055777D01*
X0273098Y0055698D01*
X0272809Y0055626D01*
X0272518Y0055561D01*
X0272225Y0055503D01*
X0271931Y0055452D01*
X0271636Y0055408D01*
X0271340Y0055372D01*
X0271043Y0055343D01*
X0270745Y0055321D01*
X0270447Y0055306D01*
X0270149Y0055299D01*
X0269851Y0055299D01*
X0269553Y0055306D01*
X0269255Y0055321D01*
X0268957Y0055343D01*
X0268660Y0055372D01*
X0268364Y0055408D01*
X0268069Y0055452D01*
X0267775Y0055503D01*
X0267482Y0055561D01*
X0267191Y0055626D01*
X0266902Y0055698D01*
X0266614Y0055777D01*
X0266328Y0055864D01*
X0266045Y0055957D01*
X0265764Y0056057D01*
X0265485Y0056164D01*
X0265210Y0056278D01*
X0264937Y0056398D01*
X0264667Y0056525D01*
X0264400Y0056659D01*
X0264137Y0056799D01*
X0263877Y0056946D01*
X0263621Y0057099D01*
X0263368Y0057258D01*
X0263120Y0057423D01*
X0262875Y0057594D01*
X0262635Y0057771D01*
X0262400Y0057954D01*
X0262169Y0058143D01*
X0261942Y0058337D01*
X0261720Y0058537D01*
X0261504Y0058742D01*
X0261292Y0058952D01*
X0261086Y0059168D01*
X0260885Y0059388D01*
X0260689Y0059613D01*
X0260499Y0059843D01*
X0260315Y0060078D01*
X0260136Y0060317D01*
X0259964Y0060560D01*
X0259797Y0060808D01*
X0259636Y0061059D01*
X0259482Y0061315D01*
X0259334Y0061574D01*
X0259192Y0061836D01*
X0259057Y0062102D01*
X0258928Y0062371D01*
X0258806Y0062643D01*
X0258691Y0062919D01*
X0258582Y0063196D01*
X0258480Y0063477D01*
X0258385Y0063760D01*
X0263898Y0099705D02*
X0257205Y0106398D01*
X0257205Y0108760D01*
X0257205Y0116240D02*
X0257205Y0118602D01*
X0263898Y0125295D01*
X0282795Y0125295D01*
X0282795Y0116240D01*
X0282795Y0108760D02*
X0282795Y0099705D01*
X0263898Y0099705D01*
X0258385Y0116240D02*
X0258480Y0116523D01*
X0258582Y0116804D01*
X0258691Y0117081D01*
X0258806Y0117357D01*
X0258928Y0117629D01*
X0259057Y0117898D01*
X0259192Y0118164D01*
X0259334Y0118426D01*
X0259482Y0118685D01*
X0259636Y0118941D01*
X0259797Y0119192D01*
X0259964Y0119440D01*
X0260136Y0119683D01*
X0260315Y0119922D01*
X0260499Y0120157D01*
X0260689Y0120387D01*
X0260885Y0120612D01*
X0261086Y0120832D01*
X0261292Y0121048D01*
X0261504Y0121258D01*
X0261720Y0121463D01*
X0261942Y0121663D01*
X0262169Y0121857D01*
X0262400Y0122046D01*
X0262635Y0122229D01*
X0262875Y0122406D01*
X0263120Y0122577D01*
X0263368Y0122742D01*
X0263621Y0122901D01*
X0263877Y0123054D01*
X0264137Y0123201D01*
X0264400Y0123341D01*
X0264667Y0123475D01*
X0264937Y0123602D01*
X0265210Y0123722D01*
X0265485Y0123836D01*
X0265764Y0123943D01*
X0266045Y0124043D01*
X0266328Y0124136D01*
X0266614Y0124223D01*
X0266902Y0124302D01*
X0267191Y0124374D01*
X0267482Y0124439D01*
X0267775Y0124497D01*
X0268069Y0124548D01*
X0268364Y0124592D01*
X0268660Y0124628D01*
X0268957Y0124657D01*
X0269255Y0124679D01*
X0269553Y0124694D01*
X0269851Y0124701D01*
X0270149Y0124701D01*
X0270447Y0124694D01*
X0270745Y0124679D01*
X0271043Y0124657D01*
X0271340Y0124628D01*
X0271636Y0124592D01*
X0271931Y0124548D01*
X0272225Y0124497D01*
X0272518Y0124439D01*
X0272809Y0124374D01*
X0273098Y0124302D01*
X0273386Y0124223D01*
X0273672Y0124136D01*
X0273955Y0124043D01*
X0274236Y0123943D01*
X0274515Y0123836D01*
X0274790Y0123722D01*
X0275063Y0123602D01*
X0275333Y0123475D01*
X0275600Y0123341D01*
X0275863Y0123201D01*
X0276123Y0123054D01*
X0276379Y0122901D01*
X0276632Y0122742D01*
X0276880Y0122577D01*
X0277125Y0122406D01*
X0277365Y0122229D01*
X0277600Y0122046D01*
X0277831Y0121857D01*
X0278058Y0121663D01*
X0278280Y0121463D01*
X0278496Y0121258D01*
X0278708Y0121048D01*
X0278914Y0120832D01*
X0279115Y0120612D01*
X0279311Y0120387D01*
X0279501Y0120157D01*
X0279685Y0119922D01*
X0279864Y0119683D01*
X0280036Y0119440D01*
X0280203Y0119192D01*
X0280364Y0118941D01*
X0280518Y0118685D01*
X0280666Y0118426D01*
X0280808Y0118164D01*
X0280943Y0117898D01*
X0281072Y0117629D01*
X0281194Y0117357D01*
X0281309Y0117081D01*
X0281418Y0116804D01*
X0281520Y0116523D01*
X0281615Y0116240D01*
X0281615Y0108760D02*
X0281520Y0108477D01*
X0281418Y0108196D01*
X0281309Y0107919D01*
X0281194Y0107643D01*
X0281072Y0107371D01*
X0280943Y0107102D01*
X0280808Y0106836D01*
X0280666Y0106574D01*
X0280518Y0106315D01*
X0280364Y0106059D01*
X0280203Y0105808D01*
X0280036Y0105560D01*
X0279864Y0105317D01*
X0279685Y0105078D01*
X0279501Y0104843D01*
X0279311Y0104613D01*
X0279115Y0104388D01*
X0278914Y0104168D01*
X0278708Y0103952D01*
X0278496Y0103742D01*
X0278280Y0103537D01*
X0278058Y0103337D01*
X0277831Y0103143D01*
X0277600Y0102954D01*
X0277365Y0102771D01*
X0277125Y0102594D01*
X0276880Y0102423D01*
X0276632Y0102258D01*
X0276379Y0102099D01*
X0276123Y0101946D01*
X0275863Y0101799D01*
X0275600Y0101659D01*
X0275333Y0101525D01*
X0275063Y0101398D01*
X0274790Y0101278D01*
X0274515Y0101164D01*
X0274236Y0101057D01*
X0273955Y0100957D01*
X0273672Y0100864D01*
X0273386Y0100777D01*
X0273098Y0100698D01*
X0272809Y0100626D01*
X0272518Y0100561D01*
X0272225Y0100503D01*
X0271931Y0100452D01*
X0271636Y0100408D01*
X0271340Y0100372D01*
X0271043Y0100343D01*
X0270745Y0100321D01*
X0270447Y0100306D01*
X0270149Y0100299D01*
X0269851Y0100299D01*
X0269553Y0100306D01*
X0269255Y0100321D01*
X0268957Y0100343D01*
X0268660Y0100372D01*
X0268364Y0100408D01*
X0268069Y0100452D01*
X0267775Y0100503D01*
X0267482Y0100561D01*
X0267191Y0100626D01*
X0266902Y0100698D01*
X0266614Y0100777D01*
X0266328Y0100864D01*
X0266045Y0100957D01*
X0265764Y0101057D01*
X0265485Y0101164D01*
X0265210Y0101278D01*
X0264937Y0101398D01*
X0264667Y0101525D01*
X0264400Y0101659D01*
X0264137Y0101799D01*
X0263877Y0101946D01*
X0263621Y0102099D01*
X0263368Y0102258D01*
X0263120Y0102423D01*
X0262875Y0102594D01*
X0262635Y0102771D01*
X0262400Y0102954D01*
X0262169Y0103143D01*
X0261942Y0103337D01*
X0261720Y0103537D01*
X0261504Y0103742D01*
X0261292Y0103952D01*
X0261086Y0104168D01*
X0260885Y0104388D01*
X0260689Y0104613D01*
X0260499Y0104843D01*
X0260315Y0105078D01*
X0260136Y0105317D01*
X0259964Y0105560D01*
X0259797Y0105808D01*
X0259636Y0106059D01*
X0259482Y0106315D01*
X0259334Y0106574D01*
X0259192Y0106836D01*
X0259057Y0107102D01*
X0258928Y0107371D01*
X0258806Y0107643D01*
X0258691Y0107919D01*
X0258582Y0108196D01*
X0258480Y0108477D01*
X0258385Y0108760D01*
X0263898Y0144705D02*
X0257205Y0151398D01*
X0257205Y0153760D01*
X0258385Y0161240D02*
X0258480Y0161523D01*
X0258582Y0161804D01*
X0258691Y0162081D01*
X0258806Y0162357D01*
X0258928Y0162629D01*
X0259057Y0162898D01*
X0259192Y0163164D01*
X0259334Y0163426D01*
X0259482Y0163685D01*
X0259636Y0163941D01*
X0259797Y0164192D01*
X0259964Y0164440D01*
X0260136Y0164683D01*
X0260315Y0164922D01*
X0260499Y0165157D01*
X0260689Y0165387D01*
X0260885Y0165612D01*
X0261086Y0165832D01*
X0261292Y0166048D01*
X0261504Y0166258D01*
X0261720Y0166463D01*
X0261942Y0166663D01*
X0262169Y0166857D01*
X0262400Y0167046D01*
X0262635Y0167229D01*
X0262875Y0167406D01*
X0263120Y0167577D01*
X0263368Y0167742D01*
X0263621Y0167901D01*
X0263877Y0168054D01*
X0264137Y0168201D01*
X0264400Y0168341D01*
X0264667Y0168475D01*
X0264937Y0168602D01*
X0265210Y0168722D01*
X0265485Y0168836D01*
X0265764Y0168943D01*
X0266045Y0169043D01*
X0266328Y0169136D01*
X0266614Y0169223D01*
X0266902Y0169302D01*
X0267191Y0169374D01*
X0267482Y0169439D01*
X0267775Y0169497D01*
X0268069Y0169548D01*
X0268364Y0169592D01*
X0268660Y0169628D01*
X0268957Y0169657D01*
X0269255Y0169679D01*
X0269553Y0169694D01*
X0269851Y0169701D01*
X0270149Y0169701D01*
X0270447Y0169694D01*
X0270745Y0169679D01*
X0271043Y0169657D01*
X0271340Y0169628D01*
X0271636Y0169592D01*
X0271931Y0169548D01*
X0272225Y0169497D01*
X0272518Y0169439D01*
X0272809Y0169374D01*
X0273098Y0169302D01*
X0273386Y0169223D01*
X0273672Y0169136D01*
X0273955Y0169043D01*
X0274236Y0168943D01*
X0274515Y0168836D01*
X0274790Y0168722D01*
X0275063Y0168602D01*
X0275333Y0168475D01*
X0275600Y0168341D01*
X0275863Y0168201D01*
X0276123Y0168054D01*
X0276379Y0167901D01*
X0276632Y0167742D01*
X0276880Y0167577D01*
X0277125Y0167406D01*
X0277365Y0167229D01*
X0277600Y0167046D01*
X0277831Y0166857D01*
X0278058Y0166663D01*
X0278280Y0166463D01*
X0278496Y0166258D01*
X0278708Y0166048D01*
X0278914Y0165832D01*
X0279115Y0165612D01*
X0279311Y0165387D01*
X0279501Y0165157D01*
X0279685Y0164922D01*
X0279864Y0164683D01*
X0280036Y0164440D01*
X0280203Y0164192D01*
X0280364Y0163941D01*
X0280518Y0163685D01*
X0280666Y0163426D01*
X0280808Y0163164D01*
X0280943Y0162898D01*
X0281072Y0162629D01*
X0281194Y0162357D01*
X0281309Y0162081D01*
X0281418Y0161804D01*
X0281520Y0161523D01*
X0281615Y0161240D01*
X0282795Y0161240D02*
X0282795Y0170295D01*
X0263898Y0170295D01*
X0257205Y0163602D01*
X0257205Y0161240D01*
X0258385Y0153760D02*
X0258480Y0153477D01*
X0258582Y0153196D01*
X0258691Y0152919D01*
X0258806Y0152643D01*
X0258928Y0152371D01*
X0259057Y0152102D01*
X0259192Y0151836D01*
X0259334Y0151574D01*
X0259482Y0151315D01*
X0259636Y0151059D01*
X0259797Y0150808D01*
X0259964Y0150560D01*
X0260136Y0150317D01*
X0260315Y0150078D01*
X0260499Y0149843D01*
X0260689Y0149613D01*
X0260885Y0149388D01*
X0261086Y0149168D01*
X0261292Y0148952D01*
X0261504Y0148742D01*
X0261720Y0148537D01*
X0261942Y0148337D01*
X0262169Y0148143D01*
X0262400Y0147954D01*
X0262635Y0147771D01*
X0262875Y0147594D01*
X0263120Y0147423D01*
X0263368Y0147258D01*
X0263621Y0147099D01*
X0263877Y0146946D01*
X0264137Y0146799D01*
X0264400Y0146659D01*
X0264667Y0146525D01*
X0264937Y0146398D01*
X0265210Y0146278D01*
X0265485Y0146164D01*
X0265764Y0146057D01*
X0266045Y0145957D01*
X0266328Y0145864D01*
X0266614Y0145777D01*
X0266902Y0145698D01*
X0267191Y0145626D01*
X0267482Y0145561D01*
X0267775Y0145503D01*
X0268069Y0145452D01*
X0268364Y0145408D01*
X0268660Y0145372D01*
X0268957Y0145343D01*
X0269255Y0145321D01*
X0269553Y0145306D01*
X0269851Y0145299D01*
X0270149Y0145299D01*
X0270447Y0145306D01*
X0270745Y0145321D01*
X0271043Y0145343D01*
X0271340Y0145372D01*
X0271636Y0145408D01*
X0271931Y0145452D01*
X0272225Y0145503D01*
X0272518Y0145561D01*
X0272809Y0145626D01*
X0273098Y0145698D01*
X0273386Y0145777D01*
X0273672Y0145864D01*
X0273955Y0145957D01*
X0274236Y0146057D01*
X0274515Y0146164D01*
X0274790Y0146278D01*
X0275063Y0146398D01*
X0275333Y0146525D01*
X0275600Y0146659D01*
X0275863Y0146799D01*
X0276123Y0146946D01*
X0276379Y0147099D01*
X0276632Y0147258D01*
X0276880Y0147423D01*
X0277125Y0147594D01*
X0277365Y0147771D01*
X0277600Y0147954D01*
X0277831Y0148143D01*
X0278058Y0148337D01*
X0278280Y0148537D01*
X0278496Y0148742D01*
X0278708Y0148952D01*
X0278914Y0149168D01*
X0279115Y0149388D01*
X0279311Y0149613D01*
X0279501Y0149843D01*
X0279685Y0150078D01*
X0279864Y0150317D01*
X0280036Y0150560D01*
X0280203Y0150808D01*
X0280364Y0151059D01*
X0280518Y0151315D01*
X0280666Y0151574D01*
X0280808Y0151836D01*
X0280943Y0152102D01*
X0281072Y0152371D01*
X0281194Y0152643D01*
X0281309Y0152919D01*
X0281418Y0153196D01*
X0281520Y0153477D01*
X0281615Y0153760D01*
X0282795Y0153760D02*
X0282795Y0144705D01*
X0263898Y0144705D01*
X0350228Y0150406D02*
X0350828Y0149806D01*
X0351429Y0149806D01*
X0352029Y0150406D01*
X0352029Y0153409D01*
X0351429Y0153409D02*
X0352630Y0153409D01*
X0353911Y0152808D02*
X0354511Y0153409D01*
X0355712Y0153409D01*
X0356313Y0152808D01*
X0356313Y0152208D01*
X0355712Y0151607D01*
X0356313Y0151007D01*
X0356313Y0150406D01*
X0355712Y0149806D01*
X0354511Y0149806D01*
X0353911Y0150406D01*
X0355112Y0151607D02*
X0355712Y0151607D01*
X0355712Y0108409D02*
X0353911Y0106607D01*
X0356313Y0106607D01*
X0355712Y0104806D02*
X0355712Y0108409D01*
X0352630Y0108409D02*
X0351429Y0108409D01*
X0352029Y0108409D02*
X0352029Y0105406D01*
X0351429Y0104806D01*
X0350828Y0104806D01*
X0350228Y0105406D01*
X0351429Y0063409D02*
X0352630Y0063409D01*
X0352029Y0063409D02*
X0352029Y0060406D01*
X0351429Y0059806D01*
X0350828Y0059806D01*
X0350228Y0060406D01*
X0353911Y0060406D02*
X0354511Y0059806D01*
X0355712Y0059806D01*
X0356313Y0060406D01*
X0356313Y0061607D01*
X0355712Y0062208D01*
X0355112Y0062208D01*
X0353911Y0061607D01*
X0353911Y0063409D01*
X0356313Y0063409D01*
X0356313Y0194806D02*
X0353911Y0194806D01*
X0356313Y0197208D01*
X0356313Y0197808D01*
X0355712Y0198409D01*
X0354511Y0198409D01*
X0353911Y0197808D01*
X0352630Y0198409D02*
X0351429Y0198409D01*
X0352029Y0198409D02*
X0352029Y0195406D01*
X0351429Y0194806D01*
X0350828Y0194806D01*
X0350228Y0195406D01*
D14*
X0017500Y0215000D02*
X0017500Y0005000D01*
X0407500Y0005000D01*
X0407500Y0010000D01*
X0417500Y0020000D01*
X0417500Y0155000D01*
X0407500Y0165000D01*
X0407500Y0205000D01*
X0397500Y0215000D01*
X0017500Y0215000D01*
X0016811Y0215217D02*
X0016811Y0179783D01*
X0037677Y0179783D01*
X0056181Y0179783D02*
X0058937Y0179783D01*
X0058937Y0188051D01*
X0058937Y0206949D02*
X0058937Y0215217D01*
X0016811Y0215217D01*
X0106500Y0207500D02*
X0106500Y0202500D01*
X0109000Y0200000D01*
X0114000Y0200000D01*
X0116500Y0202500D01*
X0119000Y0200000D01*
X0124000Y0200000D01*
X0126500Y0202500D01*
X0129000Y0200000D01*
X0134000Y0200000D01*
X0136500Y0202500D01*
X0139000Y0200000D01*
X0144000Y0200000D01*
X0146500Y0202500D01*
X0149000Y0200000D01*
X0154000Y0200000D01*
X0156500Y0202500D01*
X0159000Y0200000D01*
X0164000Y0200000D01*
X0166500Y0202500D01*
X0169000Y0200000D01*
X0174000Y0200000D01*
X0176500Y0202500D01*
X0179000Y0200000D01*
X0184000Y0200000D01*
X0186500Y0202500D01*
X0186500Y0207500D01*
X0184000Y0210000D01*
X0179000Y0210000D01*
X0176500Y0207500D01*
X0174000Y0210000D01*
X0169000Y0210000D01*
X0166500Y0207500D01*
X0164000Y0210000D01*
X0159000Y0210000D01*
X0156500Y0207500D01*
X0154000Y0210000D01*
X0149000Y0210000D01*
X0146500Y0207500D01*
X0144000Y0210000D01*
X0139000Y0210000D01*
X0136500Y0207500D01*
X0134000Y0210000D01*
X0129000Y0210000D01*
X0126500Y0207500D01*
X0124000Y0210000D01*
X0119000Y0210000D01*
X0116500Y0207500D01*
X0114000Y0210000D01*
X0109000Y0210000D01*
X0106500Y0207500D01*
X0109396Y0196446D02*
X0109396Y0193244D01*
X0114200Y0193244D01*
X0114200Y0191290D02*
X0114200Y0188087D01*
X0109396Y0188087D01*
X0109396Y0191290D01*
X0111798Y0189689D02*
X0111798Y0188087D01*
X0111798Y0186134D02*
X0112599Y0185333D01*
X0112599Y0182931D01*
X0114200Y0182931D02*
X0109396Y0182931D01*
X0109396Y0185333D01*
X0110197Y0186134D01*
X0111798Y0186134D01*
X0112599Y0184532D02*
X0114200Y0186134D01*
X0118896Y0185333D02*
X0118896Y0183731D01*
X0119697Y0182931D01*
X0122899Y0182931D01*
X0123700Y0183731D01*
X0123700Y0185333D01*
X0122899Y0186134D01*
X0121298Y0186134D01*
X0121298Y0184532D01*
X0119697Y0186134D02*
X0118896Y0185333D01*
X0118896Y0188087D02*
X0123700Y0191290D01*
X0118896Y0191290D01*
X0118896Y0193244D02*
X0118896Y0195646D01*
X0119697Y0196446D01*
X0122899Y0196446D01*
X0123700Y0195646D01*
X0123700Y0193244D01*
X0118896Y0193244D01*
X0111798Y0193244D02*
X0111798Y0194845D01*
X0118896Y0188087D02*
X0123700Y0188087D01*
X0128796Y0190001D02*
X0133600Y0190001D01*
X0133600Y0188400D02*
X0133600Y0191603D01*
X0132799Y0193556D02*
X0133600Y0194357D01*
X0133600Y0195958D01*
X0132799Y0196759D01*
X0131999Y0196759D01*
X0131198Y0195958D01*
X0131198Y0195158D01*
X0131198Y0195958D02*
X0130397Y0196759D01*
X0129597Y0196759D01*
X0128796Y0195958D01*
X0128796Y0194357D01*
X0129597Y0193556D01*
X0128796Y0190001D02*
X0130397Y0188400D01*
X0138796Y0190001D02*
X0140397Y0188400D01*
X0138796Y0190001D02*
X0143600Y0190001D01*
X0143600Y0188400D02*
X0143600Y0191603D01*
X0143600Y0193556D02*
X0140397Y0196759D01*
X0139597Y0196759D01*
X0138796Y0195958D01*
X0138796Y0194357D01*
X0139597Y0193556D01*
X0143600Y0193556D02*
X0143600Y0196759D01*
X0148796Y0195158D02*
X0150397Y0193556D01*
X0148796Y0195158D02*
X0153600Y0195158D01*
X0153600Y0196759D02*
X0153600Y0193556D01*
X0153600Y0191603D02*
X0153600Y0188400D01*
X0153600Y0190001D02*
X0148796Y0190001D01*
X0150397Y0188400D01*
X0158796Y0190001D02*
X0163600Y0190001D01*
X0163600Y0188400D02*
X0163600Y0191603D01*
X0162799Y0193556D02*
X0159597Y0196759D01*
X0162799Y0196759D01*
X0163600Y0195958D01*
X0163600Y0194357D01*
X0162799Y0193556D01*
X0159597Y0193556D01*
X0158796Y0194357D01*
X0158796Y0195958D01*
X0159597Y0196759D01*
X0168796Y0195802D02*
X0168796Y0194201D01*
X0169597Y0193400D01*
X0170397Y0193400D01*
X0171198Y0194201D01*
X0171198Y0196603D01*
X0172799Y0196603D02*
X0169597Y0196603D01*
X0168796Y0195802D01*
X0172799Y0196603D02*
X0173600Y0195802D01*
X0173600Y0194201D01*
X0172799Y0193400D01*
X0178796Y0194201D02*
X0178796Y0195802D01*
X0179597Y0196603D01*
X0180397Y0196603D01*
X0181198Y0195802D01*
X0181198Y0194201D01*
X0180397Y0193400D01*
X0179597Y0193400D01*
X0178796Y0194201D01*
X0181198Y0194201D02*
X0181999Y0193400D01*
X0182799Y0193400D01*
X0183600Y0194201D01*
X0183600Y0195802D01*
X0182799Y0196603D01*
X0181999Y0196603D01*
X0181198Y0195802D01*
X0193796Y0196603D02*
X0193796Y0193400D01*
X0193796Y0196603D02*
X0194597Y0196603D01*
X0197799Y0193400D01*
X0198600Y0193400D01*
X0203796Y0196603D02*
X0204597Y0195001D01*
X0206198Y0193400D01*
X0206198Y0195802D01*
X0206999Y0196603D01*
X0207799Y0196603D01*
X0208600Y0195802D01*
X0208600Y0194201D01*
X0207799Y0193400D01*
X0206198Y0193400D01*
X0213796Y0193400D02*
X0216198Y0193400D01*
X0215397Y0195001D01*
X0215397Y0195802D01*
X0216198Y0196603D01*
X0217799Y0196603D01*
X0218600Y0195802D01*
X0218600Y0194201D01*
X0217799Y0193400D01*
X0213796Y0193400D02*
X0213796Y0196603D01*
X0215000Y0200000D02*
X0212500Y0202500D01*
X0210000Y0200000D01*
X0205000Y0200000D01*
X0202500Y0202500D01*
X0200000Y0200000D01*
X0195000Y0200000D01*
X0192500Y0202500D01*
X0192500Y0207500D01*
X0195000Y0210000D01*
X0200000Y0210000D01*
X0202500Y0207500D01*
X0205000Y0210000D01*
X0210000Y0210000D01*
X0212500Y0207500D01*
X0215000Y0210000D01*
X0220000Y0210000D01*
X0222500Y0207500D01*
X0225000Y0210000D01*
X0230000Y0210000D01*
X0232500Y0207500D01*
X0235000Y0210000D01*
X0240000Y0210000D01*
X0242500Y0207500D01*
X0245000Y0210000D01*
X0250000Y0210000D01*
X0252500Y0207500D01*
X0255000Y0210000D01*
X0260000Y0210000D01*
X0262500Y0207500D01*
X0265000Y0210000D01*
X0270000Y0210000D01*
X0272500Y0207500D01*
X0272500Y0202500D01*
X0270000Y0200000D01*
X0265000Y0200000D01*
X0262500Y0202500D01*
X0260000Y0200000D01*
X0255000Y0200000D01*
X0252500Y0202500D01*
X0250000Y0200000D01*
X0245000Y0200000D01*
X0242500Y0202500D01*
X0240000Y0200000D01*
X0235000Y0200000D01*
X0232500Y0202500D01*
X0230000Y0200000D01*
X0225000Y0200000D01*
X0222500Y0202500D01*
X0220000Y0200000D01*
X0215000Y0200000D01*
X0223796Y0195802D02*
X0226198Y0193400D01*
X0226198Y0196603D01*
X0228600Y0195802D02*
X0223796Y0195802D01*
X0233796Y0195802D02*
X0233796Y0194201D01*
X0234597Y0193400D01*
X0236198Y0195001D02*
X0236198Y0195802D01*
X0236999Y0196603D01*
X0237799Y0196603D01*
X0238600Y0195802D01*
X0238600Y0194201D01*
X0237799Y0193400D01*
X0236198Y0195802D02*
X0235397Y0196603D01*
X0234597Y0196603D01*
X0233796Y0195802D01*
X0243796Y0195802D02*
X0243796Y0194201D01*
X0244597Y0193400D01*
X0243796Y0195802D02*
X0244597Y0196603D01*
X0245397Y0196603D01*
X0248600Y0193400D01*
X0248600Y0196603D01*
X0253796Y0195001D02*
X0255397Y0193400D01*
X0253796Y0195001D02*
X0258600Y0195001D01*
X0258600Y0193400D02*
X0258600Y0196603D01*
X0263796Y0195802D02*
X0263796Y0194201D01*
X0264597Y0193400D01*
X0267799Y0193400D01*
X0264597Y0196603D01*
X0267799Y0196603D01*
X0268600Y0195802D01*
X0268600Y0194201D01*
X0267799Y0193400D01*
X0264597Y0196603D02*
X0263796Y0195802D01*
X0267000Y0190000D02*
X0267000Y0185000D01*
X0265000Y0187000D01*
X0267000Y0185000D02*
X0269000Y0187000D01*
X0259000Y0188000D02*
X0257000Y0190000D01*
X0255000Y0188000D01*
X0257000Y0190000D02*
X0257000Y0185000D01*
X0283796Y0191501D02*
X0288600Y0191501D01*
X0288600Y0189900D02*
X0288600Y0193103D01*
X0286198Y0195056D02*
X0286198Y0198259D01*
X0285000Y0200000D02*
X0290000Y0200000D01*
X0292500Y0202500D01*
X0295000Y0200000D01*
X0300000Y0200000D01*
X0302500Y0202500D01*
X0305000Y0200000D01*
X0310000Y0200000D01*
X0312500Y0202500D01*
X0315000Y0200000D01*
X0320000Y0200000D01*
X0322500Y0202500D01*
X0325000Y0200000D01*
X0330000Y0200000D01*
X0332500Y0202500D01*
X0335000Y0200000D01*
X0340000Y0200000D01*
X0342500Y0202500D01*
X0345000Y0200000D01*
X0350000Y0200000D01*
X0352500Y0202500D01*
X0355000Y0200000D01*
X0360000Y0200000D01*
X0362500Y0202500D01*
X0362500Y0207500D01*
X0360000Y0210000D01*
X0355000Y0210000D01*
X0352500Y0207500D01*
X0350000Y0210000D01*
X0345000Y0210000D01*
X0342500Y0207500D01*
X0340000Y0210000D01*
X0335000Y0210000D01*
X0332500Y0207500D01*
X0330000Y0210000D01*
X0325000Y0210000D01*
X0322500Y0207500D01*
X0320000Y0210000D01*
X0315000Y0210000D01*
X0312500Y0207500D01*
X0310000Y0210000D01*
X0305000Y0210000D01*
X0302500Y0207500D01*
X0300000Y0210000D01*
X0295000Y0210000D01*
X0292500Y0207500D01*
X0290000Y0210000D01*
X0285000Y0210000D01*
X0282500Y0207500D01*
X0282500Y0202500D01*
X0285000Y0200000D01*
X0283796Y0197458D02*
X0286198Y0195056D01*
X0288600Y0197458D02*
X0283796Y0197458D01*
X0283796Y0191501D02*
X0285397Y0189900D01*
X0293796Y0191501D02*
X0295397Y0189900D01*
X0293796Y0191501D02*
X0298600Y0191501D01*
X0298600Y0189900D02*
X0298600Y0193103D01*
X0297799Y0195056D02*
X0298600Y0195857D01*
X0298600Y0197458D01*
X0297799Y0198259D01*
X0296198Y0198259D01*
X0295397Y0197458D01*
X0295397Y0196658D01*
X0296198Y0195056D01*
X0293796Y0195056D01*
X0293796Y0198259D01*
X0303796Y0198259D02*
X0304597Y0196658D01*
X0306198Y0195056D01*
X0306198Y0197458D01*
X0306999Y0198259D01*
X0307799Y0198259D01*
X0308600Y0197458D01*
X0308600Y0195857D01*
X0307799Y0195056D01*
X0306198Y0195056D01*
X0308600Y0193103D02*
X0308600Y0189900D01*
X0308600Y0191501D02*
X0303796Y0191501D01*
X0305397Y0189900D01*
X0323796Y0191501D02*
X0325397Y0189900D01*
X0323796Y0191501D02*
X0328600Y0191501D01*
X0328600Y0189900D02*
X0328600Y0193103D01*
X0327799Y0195056D02*
X0326999Y0195056D01*
X0326198Y0195857D01*
X0326198Y0197458D01*
X0326999Y0198259D01*
X0327799Y0198259D01*
X0328600Y0197458D01*
X0328600Y0195857D01*
X0327799Y0195056D01*
X0326198Y0195857D02*
X0325397Y0195056D01*
X0324597Y0195056D01*
X0323796Y0195857D01*
X0323796Y0197458D01*
X0324597Y0198259D01*
X0325397Y0198259D01*
X0326198Y0197458D01*
X0333796Y0197458D02*
X0333796Y0195857D01*
X0334597Y0195056D01*
X0335397Y0195056D01*
X0336198Y0195857D01*
X0336198Y0198259D01*
X0337799Y0198259D02*
X0334597Y0198259D01*
X0333796Y0197458D01*
X0337799Y0198259D02*
X0338600Y0197458D01*
X0338600Y0195857D01*
X0337799Y0195056D01*
X0338600Y0193103D02*
X0338600Y0189900D01*
X0338600Y0191501D02*
X0333796Y0191501D01*
X0335397Y0189900D01*
X0343796Y0190701D02*
X0344597Y0189900D01*
X0343796Y0190701D02*
X0343796Y0192302D01*
X0344597Y0193103D01*
X0345397Y0193103D01*
X0348600Y0189900D01*
X0348600Y0193103D01*
X0347799Y0195056D02*
X0344597Y0195056D01*
X0343796Y0195857D01*
X0343796Y0197458D01*
X0344597Y0198259D01*
X0347799Y0195056D01*
X0348600Y0195857D01*
X0348600Y0197458D01*
X0347799Y0198259D01*
X0344597Y0198259D01*
X0353796Y0196658D02*
X0358600Y0196658D01*
X0358600Y0198259D02*
X0358600Y0195056D01*
X0358600Y0193103D02*
X0358600Y0189900D01*
X0355397Y0193103D01*
X0354597Y0193103D01*
X0353796Y0192302D01*
X0353796Y0190701D01*
X0354597Y0189900D01*
X0355397Y0195056D02*
X0353796Y0196658D01*
X0371000Y0196403D02*
X0371801Y0197204D01*
X0373402Y0197204D01*
X0374203Y0196403D01*
X0374203Y0195603D01*
X0371000Y0192400D01*
X0374203Y0192400D01*
X0376156Y0192400D02*
X0379359Y0195603D01*
X0379359Y0196403D01*
X0378558Y0197204D01*
X0376957Y0197204D01*
X0376156Y0196403D01*
X0376156Y0192400D02*
X0379359Y0192400D01*
X0378558Y0187204D02*
X0376156Y0184802D01*
X0379359Y0184802D01*
X0378558Y0182400D02*
X0378558Y0187204D01*
X0374203Y0186403D02*
X0374203Y0185603D01*
X0371000Y0182400D01*
X0374203Y0182400D01*
X0374203Y0186403D02*
X0373402Y0187204D01*
X0371801Y0187204D01*
X0371000Y0186403D01*
X0371801Y0177204D02*
X0371000Y0176403D01*
X0371801Y0177204D02*
X0373402Y0177204D01*
X0374203Y0176403D01*
X0374203Y0175603D01*
X0371000Y0172400D01*
X0374203Y0172400D01*
X0376156Y0173201D02*
X0376957Y0172400D01*
X0378558Y0172400D01*
X0379359Y0173201D01*
X0379359Y0174001D01*
X0378558Y0174802D01*
X0376156Y0174802D01*
X0376156Y0173201D01*
X0376156Y0174802D02*
X0377758Y0176403D01*
X0379359Y0177204D01*
X0378558Y0167204D02*
X0376957Y0167204D01*
X0376156Y0166403D01*
X0376156Y0165603D01*
X0376957Y0164802D01*
X0378558Y0164802D01*
X0379359Y0164001D01*
X0379359Y0163201D01*
X0378558Y0162400D01*
X0376957Y0162400D01*
X0376156Y0163201D01*
X0376156Y0164001D01*
X0376957Y0164802D01*
X0378558Y0164802D02*
X0379359Y0165603D01*
X0379359Y0166403D01*
X0378558Y0167204D01*
X0374203Y0166403D02*
X0373402Y0167204D01*
X0371801Y0167204D01*
X0371000Y0166403D01*
X0374203Y0166403D02*
X0374203Y0165603D01*
X0371000Y0162400D01*
X0374203Y0162400D01*
X0373402Y0157204D02*
X0371801Y0157204D01*
X0371000Y0156403D01*
X0372601Y0154802D02*
X0373402Y0154802D01*
X0374203Y0154001D01*
X0374203Y0153201D01*
X0373402Y0152400D01*
X0371801Y0152400D01*
X0371000Y0153201D01*
X0373402Y0154802D02*
X0374203Y0155603D01*
X0374203Y0156403D01*
X0373402Y0157204D01*
X0376156Y0156403D02*
X0376957Y0157204D01*
X0378558Y0157204D01*
X0379359Y0156403D01*
X0376156Y0153201D01*
X0376957Y0152400D01*
X0378558Y0152400D01*
X0379359Y0153201D01*
X0379359Y0156403D01*
X0376156Y0156403D02*
X0376156Y0153201D01*
X0376957Y0147204D02*
X0376156Y0146403D01*
X0376957Y0147204D02*
X0378558Y0147204D01*
X0379359Y0146403D01*
X0379359Y0145603D01*
X0376156Y0142400D01*
X0379359Y0142400D01*
X0374203Y0143201D02*
X0373402Y0142400D01*
X0371801Y0142400D01*
X0371000Y0143201D01*
X0372601Y0144802D02*
X0373402Y0144802D01*
X0374203Y0144001D01*
X0374203Y0143201D01*
X0373402Y0144802D02*
X0374203Y0145603D01*
X0374203Y0146403D01*
X0373402Y0147204D01*
X0371801Y0147204D01*
X0371000Y0146403D01*
X0371801Y0137204D02*
X0373402Y0137204D01*
X0374203Y0136403D01*
X0374203Y0135603D01*
X0373402Y0134802D01*
X0374203Y0134001D01*
X0374203Y0133201D01*
X0373402Y0132400D01*
X0371801Y0132400D01*
X0371000Y0133201D01*
X0372601Y0134802D02*
X0373402Y0134802D01*
X0376156Y0134802D02*
X0379359Y0134802D01*
X0378558Y0132400D02*
X0378558Y0137204D01*
X0376156Y0134802D01*
X0371801Y0137204D02*
X0371000Y0136403D01*
X0371801Y0127204D02*
X0373402Y0127204D01*
X0374203Y0126403D01*
X0374203Y0125603D01*
X0373402Y0124802D01*
X0374203Y0124001D01*
X0374203Y0123201D01*
X0373402Y0122400D01*
X0371801Y0122400D01*
X0371000Y0123201D01*
X0372601Y0124802D02*
X0373402Y0124802D01*
X0376156Y0124802D02*
X0378558Y0124802D01*
X0379359Y0124001D01*
X0379359Y0123201D01*
X0378558Y0122400D01*
X0376957Y0122400D01*
X0376156Y0123201D01*
X0376156Y0124802D01*
X0377758Y0126403D01*
X0379359Y0127204D01*
X0371801Y0127204D02*
X0371000Y0126403D01*
X0371801Y0117204D02*
X0373402Y0117204D01*
X0374203Y0116403D01*
X0374203Y0115603D01*
X0373402Y0114802D01*
X0374203Y0114001D01*
X0374203Y0113201D01*
X0373402Y0112400D01*
X0371801Y0112400D01*
X0371000Y0113201D01*
X0372601Y0114802D02*
X0373402Y0114802D01*
X0376156Y0114001D02*
X0376957Y0114802D01*
X0378558Y0114802D01*
X0379359Y0114001D01*
X0379359Y0113201D01*
X0378558Y0112400D01*
X0376957Y0112400D01*
X0376156Y0113201D01*
X0376156Y0114001D01*
X0376957Y0114802D02*
X0376156Y0115603D01*
X0376156Y0116403D01*
X0376957Y0117204D01*
X0378558Y0117204D01*
X0379359Y0116403D01*
X0379359Y0115603D01*
X0378558Y0114802D01*
X0371801Y0117204D02*
X0371000Y0116403D01*
X0373402Y0107204D02*
X0371000Y0104802D01*
X0374203Y0104802D01*
X0376156Y0103201D02*
X0379359Y0106403D01*
X0379359Y0103201D01*
X0378558Y0102400D01*
X0376957Y0102400D01*
X0376156Y0103201D01*
X0376156Y0106403D01*
X0376957Y0107204D01*
X0378558Y0107204D01*
X0379359Y0106403D01*
X0373402Y0107204D02*
X0373402Y0102400D01*
X0373402Y0097204D02*
X0371000Y0094802D01*
X0374203Y0094802D01*
X0376156Y0096403D02*
X0376957Y0097204D01*
X0378558Y0097204D01*
X0379359Y0096403D01*
X0379359Y0095603D01*
X0376156Y0092400D01*
X0379359Y0092400D01*
X0373402Y0092400D02*
X0373402Y0097204D01*
X0373402Y0087204D02*
X0371000Y0084802D01*
X0374203Y0084802D01*
X0376156Y0084802D02*
X0379359Y0084802D01*
X0378558Y0082400D02*
X0378558Y0087204D01*
X0376156Y0084802D01*
X0373402Y0082400D02*
X0373402Y0087204D01*
X0373402Y0077204D02*
X0371000Y0074802D01*
X0374203Y0074802D01*
X0376156Y0074802D02*
X0378558Y0074802D01*
X0379359Y0074001D01*
X0379359Y0073201D01*
X0378558Y0072400D01*
X0376957Y0072400D01*
X0376156Y0073201D01*
X0376156Y0074802D01*
X0377758Y0076403D01*
X0379359Y0077204D01*
X0373402Y0077204D02*
X0373402Y0072400D01*
X0373402Y0067204D02*
X0371000Y0064802D01*
X0374203Y0064802D01*
X0376156Y0064001D02*
X0376957Y0064802D01*
X0378558Y0064802D01*
X0379359Y0064001D01*
X0379359Y0063201D01*
X0378558Y0062400D01*
X0376957Y0062400D01*
X0376156Y0063201D01*
X0376156Y0064001D01*
X0376957Y0064802D02*
X0376156Y0065603D01*
X0376156Y0066403D01*
X0376957Y0067204D01*
X0378558Y0067204D01*
X0379359Y0066403D01*
X0379359Y0065603D01*
X0378558Y0064802D01*
X0373402Y0062400D02*
X0373402Y0067204D01*
X0374203Y0057204D02*
X0371000Y0057204D01*
X0371000Y0054802D01*
X0372601Y0055603D01*
X0373402Y0055603D01*
X0374203Y0054802D01*
X0374203Y0053201D01*
X0373402Y0052400D01*
X0371801Y0052400D01*
X0371000Y0053201D01*
X0376156Y0053201D02*
X0379359Y0056403D01*
X0379359Y0053201D01*
X0378558Y0052400D01*
X0376957Y0052400D01*
X0376156Y0053201D01*
X0376156Y0056403D01*
X0376957Y0057204D01*
X0378558Y0057204D01*
X0379359Y0056403D01*
X0378558Y0047204D02*
X0376957Y0047204D01*
X0376156Y0046403D01*
X0374203Y0047204D02*
X0371000Y0047204D01*
X0371000Y0044802D01*
X0372601Y0045603D01*
X0373402Y0045603D01*
X0374203Y0044802D01*
X0374203Y0043201D01*
X0373402Y0042400D01*
X0371801Y0042400D01*
X0371000Y0043201D01*
X0376156Y0042400D02*
X0379359Y0045603D01*
X0379359Y0046403D01*
X0378558Y0047204D01*
X0379359Y0042400D02*
X0376156Y0042400D01*
X0377198Y0037016D02*
X0378799Y0037016D01*
X0379600Y0036215D01*
X0379600Y0034613D01*
X0378799Y0033813D01*
X0377198Y0033813D02*
X0376397Y0035414D01*
X0376397Y0036215D01*
X0377198Y0037016D01*
X0374796Y0037016D02*
X0374796Y0033813D01*
X0377198Y0033813D01*
X0379600Y0031859D02*
X0379600Y0028656D01*
X0379600Y0030258D02*
X0374796Y0030258D01*
X0376397Y0028656D01*
X0376397Y0026703D02*
X0379600Y0026703D01*
X0377198Y0026703D02*
X0377198Y0023500D01*
X0376397Y0023500D02*
X0379600Y0023500D01*
X0376397Y0023500D02*
X0374796Y0025101D01*
X0376397Y0026703D01*
X0370100Y0026703D02*
X0366897Y0026703D01*
X0365296Y0025101D01*
X0366897Y0023500D01*
X0370100Y0023500D01*
X0367698Y0023500D02*
X0367698Y0026703D01*
X0366897Y0028656D02*
X0365296Y0030258D01*
X0370100Y0030258D01*
X0370100Y0031859D02*
X0370100Y0028656D01*
X0367698Y0033813D02*
X0367698Y0037016D01*
X0370100Y0036215D02*
X0365296Y0036215D01*
X0367698Y0033813D01*
X0360100Y0034613D02*
X0359299Y0033813D01*
X0360100Y0034613D02*
X0360100Y0036215D01*
X0359299Y0037016D01*
X0358499Y0037016D01*
X0357698Y0036215D01*
X0357698Y0035414D01*
X0357698Y0036215D02*
X0356897Y0037016D01*
X0356097Y0037016D01*
X0355296Y0036215D01*
X0355296Y0034613D01*
X0356097Y0033813D01*
X0360100Y0031859D02*
X0360100Y0028656D01*
X0360100Y0030258D02*
X0355296Y0030258D01*
X0356897Y0028656D01*
X0356897Y0026703D02*
X0360100Y0026703D01*
X0357698Y0026703D02*
X0357698Y0023500D01*
X0356897Y0023500D02*
X0355296Y0025101D01*
X0356897Y0026703D01*
X0356897Y0023500D02*
X0360100Y0023500D01*
X0360000Y0020000D02*
X0355000Y0020000D01*
X0352500Y0017500D01*
X0350000Y0020000D01*
X0345000Y0020000D01*
X0342500Y0017500D01*
X0340000Y0020000D01*
X0335000Y0020000D01*
X0332500Y0017500D01*
X0330000Y0020000D01*
X0325000Y0020000D01*
X0322500Y0017500D01*
X0320000Y0020000D01*
X0315000Y0020000D01*
X0312500Y0017500D01*
X0310000Y0020000D01*
X0305000Y0020000D01*
X0302500Y0017500D01*
X0302500Y0012500D01*
X0305000Y0010000D01*
X0310000Y0010000D01*
X0312500Y0012500D01*
X0315000Y0010000D01*
X0320000Y0010000D01*
X0322500Y0012500D01*
X0325000Y0010000D01*
X0330000Y0010000D01*
X0332500Y0012500D01*
X0335000Y0010000D01*
X0340000Y0010000D01*
X0342500Y0012500D01*
X0345000Y0010000D01*
X0350000Y0010000D01*
X0352500Y0012500D01*
X0355000Y0010000D01*
X0360000Y0010000D01*
X0362500Y0012500D01*
X0365000Y0010000D01*
X0370000Y0010000D01*
X0372500Y0012500D01*
X0375000Y0010000D01*
X0380000Y0010000D01*
X0382500Y0012500D01*
X0382500Y0017500D01*
X0380000Y0020000D01*
X0375000Y0020000D01*
X0372500Y0017500D01*
X0370000Y0020000D01*
X0365000Y0020000D01*
X0362500Y0017500D01*
X0360000Y0020000D01*
X0350100Y0023500D02*
X0346897Y0023500D01*
X0345296Y0025101D01*
X0346897Y0026703D01*
X0350100Y0026703D01*
X0350100Y0028656D02*
X0350100Y0031859D01*
X0350100Y0030258D02*
X0345296Y0030258D01*
X0346897Y0028656D01*
X0347698Y0026703D02*
X0347698Y0023500D01*
X0340100Y0023500D02*
X0336897Y0023500D01*
X0335296Y0025101D01*
X0336897Y0026703D01*
X0340100Y0026703D01*
X0340100Y0028656D02*
X0340100Y0031859D01*
X0340100Y0030258D02*
X0335296Y0030258D01*
X0336897Y0028656D01*
X0337698Y0026703D02*
X0337698Y0023500D01*
X0330100Y0023500D02*
X0326897Y0023500D01*
X0325296Y0025101D01*
X0326897Y0026703D01*
X0330100Y0026703D01*
X0330100Y0028656D02*
X0330100Y0031859D01*
X0330100Y0030258D02*
X0325296Y0030258D01*
X0326897Y0028656D01*
X0327698Y0026703D02*
X0327698Y0023500D01*
X0320100Y0023500D02*
X0316897Y0023500D01*
X0315296Y0025101D01*
X0316897Y0026703D01*
X0320100Y0026703D01*
X0319299Y0028656D02*
X0320100Y0029457D01*
X0320100Y0031058D01*
X0319299Y0031859D01*
X0316097Y0031859D01*
X0315296Y0031058D01*
X0315296Y0029457D01*
X0316097Y0028656D01*
X0316897Y0028656D01*
X0317698Y0029457D01*
X0317698Y0031859D01*
X0310100Y0031058D02*
X0310100Y0029457D01*
X0309299Y0028656D01*
X0308499Y0028656D01*
X0307698Y0029457D01*
X0307698Y0031058D01*
X0308499Y0031859D01*
X0309299Y0031859D01*
X0310100Y0031058D01*
X0307698Y0031058D02*
X0306897Y0031859D01*
X0306097Y0031859D01*
X0305296Y0031058D01*
X0305296Y0029457D01*
X0306097Y0028656D01*
X0306897Y0028656D01*
X0307698Y0029457D01*
X0307698Y0026703D02*
X0307698Y0023500D01*
X0306897Y0023500D02*
X0305296Y0025101D01*
X0306897Y0026703D01*
X0310100Y0026703D01*
X0317698Y0026703D02*
X0317698Y0023500D01*
X0310100Y0023500D02*
X0306897Y0023500D01*
X0292500Y0017500D02*
X0292500Y0012500D01*
X0290000Y0010000D01*
X0285000Y0010000D01*
X0282500Y0012500D01*
X0280000Y0010000D01*
X0275000Y0010000D01*
X0272500Y0012500D01*
X0270000Y0010000D01*
X0265000Y0010000D01*
X0262500Y0012500D01*
X0260000Y0010000D01*
X0255000Y0010000D01*
X0252500Y0012500D01*
X0250000Y0010000D01*
X0245000Y0010000D01*
X0242500Y0012500D01*
X0240000Y0010000D01*
X0235000Y0010000D01*
X0232500Y0012500D01*
X0230000Y0010000D01*
X0225000Y0010000D01*
X0222500Y0012500D01*
X0220000Y0010000D01*
X0215000Y0010000D01*
X0212500Y0012500D01*
X0212500Y0017500D01*
X0215000Y0020000D01*
X0220000Y0020000D01*
X0222500Y0017500D01*
X0225000Y0020000D01*
X0230000Y0020000D01*
X0232500Y0017500D01*
X0235000Y0020000D01*
X0240000Y0020000D01*
X0242500Y0017500D01*
X0245000Y0020000D01*
X0250000Y0020000D01*
X0252500Y0017500D01*
X0255000Y0020000D01*
X0260000Y0020000D01*
X0262500Y0017500D01*
X0265000Y0020000D01*
X0270000Y0020000D01*
X0272500Y0017500D01*
X0275000Y0020000D01*
X0280000Y0020000D01*
X0282500Y0017500D01*
X0285000Y0020000D01*
X0290000Y0020000D01*
X0292500Y0017500D01*
X0290100Y0023500D02*
X0286897Y0023500D01*
X0285296Y0025101D01*
X0286897Y0026703D01*
X0290100Y0026703D01*
X0290100Y0028656D02*
X0289299Y0028656D01*
X0286097Y0031859D01*
X0285296Y0031859D01*
X0285296Y0028656D01*
X0287698Y0026703D02*
X0287698Y0023500D01*
X0279600Y0024301D02*
X0278799Y0023500D01*
X0277198Y0023500D01*
X0277198Y0025902D01*
X0277999Y0026703D01*
X0278799Y0026703D01*
X0279600Y0025902D01*
X0279600Y0024301D01*
X0277198Y0023500D02*
X0275597Y0025101D01*
X0274796Y0026703D01*
X0269600Y0026703D02*
X0266397Y0026703D01*
X0264796Y0025101D01*
X0266397Y0023500D01*
X0269600Y0023500D01*
X0267198Y0023500D02*
X0267198Y0026703D01*
X0267198Y0028656D02*
X0266397Y0030258D01*
X0266397Y0031058D01*
X0267198Y0031859D01*
X0268799Y0031859D01*
X0269600Y0031058D01*
X0269600Y0029457D01*
X0268799Y0028656D01*
X0267198Y0028656D02*
X0264796Y0028656D01*
X0264796Y0031859D01*
X0260100Y0031058D02*
X0255296Y0031058D01*
X0257698Y0028656D01*
X0257698Y0031859D01*
X0257698Y0026703D02*
X0257698Y0023500D01*
X0256897Y0023500D02*
X0255296Y0025101D01*
X0256897Y0026703D01*
X0260100Y0026703D01*
X0260100Y0023500D02*
X0256897Y0023500D01*
X0250100Y0023500D02*
X0246897Y0023500D01*
X0245296Y0025101D01*
X0246897Y0026703D01*
X0250100Y0026703D01*
X0249299Y0028656D02*
X0250100Y0029457D01*
X0250100Y0031058D01*
X0249299Y0031859D01*
X0248499Y0031859D01*
X0247698Y0031058D01*
X0247698Y0030258D01*
X0247698Y0031058D02*
X0246897Y0031859D01*
X0246097Y0031859D01*
X0245296Y0031058D01*
X0245296Y0029457D01*
X0246097Y0028656D01*
X0247698Y0026703D02*
X0247698Y0023500D01*
X0240100Y0023500D02*
X0236897Y0023500D01*
X0235296Y0025101D01*
X0236897Y0026703D01*
X0240100Y0026703D01*
X0240100Y0028656D02*
X0236897Y0031859D01*
X0236097Y0031859D01*
X0235296Y0031058D01*
X0235296Y0029457D01*
X0236097Y0028656D01*
X0237698Y0026703D02*
X0237698Y0023500D01*
X0229100Y0023500D02*
X0225897Y0023500D01*
X0224296Y0025101D01*
X0225897Y0026703D01*
X0229100Y0026703D01*
X0229100Y0028656D02*
X0229100Y0031859D01*
X0229100Y0030258D02*
X0224296Y0030258D01*
X0225897Y0028656D01*
X0226698Y0026703D02*
X0226698Y0023500D01*
X0220100Y0023500D02*
X0216897Y0023500D01*
X0215296Y0025101D01*
X0216897Y0026703D01*
X0220100Y0026703D01*
X0219299Y0028656D02*
X0216097Y0028656D01*
X0215296Y0029457D01*
X0215296Y0031058D01*
X0216097Y0031859D01*
X0219299Y0028656D01*
X0220100Y0029457D01*
X0220100Y0031058D01*
X0219299Y0031859D01*
X0216097Y0031859D01*
X0217698Y0026703D02*
X0217698Y0023500D01*
X0202500Y0017500D02*
X0202500Y0012500D01*
X0200000Y0010000D01*
X0195000Y0010000D01*
X0192500Y0012500D01*
X0190000Y0010000D01*
X0185000Y0010000D01*
X0182500Y0012500D01*
X0180000Y0010000D01*
X0175000Y0010000D01*
X0172500Y0012500D01*
X0170000Y0010000D01*
X0165000Y0010000D01*
X0162500Y0012500D01*
X0160000Y0010000D01*
X0155000Y0010000D01*
X0152500Y0012500D01*
X0150000Y0010000D01*
X0145000Y0010000D01*
X0142500Y0012500D01*
X0142500Y0017500D01*
X0145000Y0020000D01*
X0150000Y0020000D01*
X0152500Y0017500D01*
X0155000Y0020000D01*
X0160000Y0020000D01*
X0162500Y0017500D01*
X0165000Y0020000D01*
X0170000Y0020000D01*
X0172500Y0017500D01*
X0175000Y0020000D01*
X0180000Y0020000D01*
X0182500Y0017500D01*
X0185000Y0020000D01*
X0190000Y0020000D01*
X0192500Y0017500D01*
X0195000Y0020000D01*
X0200000Y0020000D01*
X0202500Y0017500D01*
X0240100Y0028656D02*
X0240100Y0031859D01*
X0325296Y0034613D02*
X0325296Y0036215D01*
X0326097Y0037016D01*
X0329299Y0033813D01*
X0330100Y0034613D01*
X0330100Y0036215D01*
X0329299Y0037016D01*
X0326097Y0037016D01*
X0325296Y0034613D02*
X0326097Y0033813D01*
X0329299Y0033813D01*
X0335296Y0035414D02*
X0336897Y0033813D01*
X0335296Y0035414D02*
X0340100Y0035414D01*
X0340100Y0033813D02*
X0340100Y0037016D01*
X0345296Y0036215D02*
X0345296Y0034613D01*
X0346097Y0033813D01*
X0345296Y0036215D02*
X0346097Y0037016D01*
X0346897Y0037016D01*
X0350100Y0033813D01*
X0350100Y0037016D01*
X0382500Y0037500D02*
X0382500Y0032500D01*
X0385000Y0030000D01*
X0400000Y0030000D01*
X0402500Y0032500D01*
X0402500Y0037500D01*
X0400000Y0040000D01*
X0385000Y0040000D01*
X0382500Y0037500D01*
X0405400Y0043301D02*
X0406201Y0042500D01*
X0407802Y0042500D01*
X0408603Y0043301D01*
X0408603Y0044902D01*
X0407802Y0045703D01*
X0407001Y0045703D01*
X0405400Y0044902D01*
X0405400Y0047304D01*
X0408603Y0047304D01*
X0410556Y0046503D02*
X0411357Y0047304D01*
X0412958Y0047304D01*
X0413759Y0046503D01*
X0413759Y0045703D01*
X0412958Y0044902D01*
X0413759Y0044101D01*
X0413759Y0043301D01*
X0412958Y0042500D01*
X0411357Y0042500D01*
X0410556Y0043301D01*
X0412158Y0044902D02*
X0412958Y0044902D01*
X0412158Y0052500D02*
X0412158Y0057304D01*
X0410556Y0055703D01*
X0408603Y0054902D02*
X0408603Y0053301D01*
X0407802Y0052500D01*
X0406201Y0052500D01*
X0405400Y0053301D01*
X0405400Y0054902D02*
X0407001Y0055703D01*
X0407802Y0055703D01*
X0408603Y0054902D01*
X0408603Y0057304D02*
X0405400Y0057304D01*
X0405400Y0054902D01*
X0410556Y0052500D02*
X0413759Y0052500D01*
X0412958Y0062500D02*
X0413759Y0063301D01*
X0413759Y0066503D01*
X0412958Y0067304D01*
X0411357Y0067304D01*
X0410556Y0066503D01*
X0410556Y0065703D01*
X0411357Y0064902D01*
X0413759Y0064902D01*
X0412958Y0062500D02*
X0411357Y0062500D01*
X0410556Y0063301D01*
X0408603Y0064902D02*
X0405400Y0064902D01*
X0407802Y0067304D01*
X0407802Y0062500D01*
X0407802Y0072500D02*
X0407802Y0077304D01*
X0405400Y0074902D01*
X0408603Y0074902D01*
X0410556Y0073301D02*
X0410556Y0072500D01*
X0410556Y0073301D02*
X0413759Y0076503D01*
X0413759Y0077304D01*
X0410556Y0077304D01*
X0411357Y0082500D02*
X0410556Y0083301D01*
X0411357Y0082500D02*
X0412958Y0082500D01*
X0413759Y0083301D01*
X0413759Y0084902D01*
X0412958Y0085703D01*
X0412158Y0085703D01*
X0410556Y0084902D01*
X0410556Y0087304D01*
X0413759Y0087304D01*
X0408603Y0084902D02*
X0405400Y0084902D01*
X0407802Y0087304D01*
X0407802Y0082500D01*
X0407802Y0092500D02*
X0407802Y0097304D01*
X0405400Y0094902D01*
X0408603Y0094902D01*
X0410556Y0093301D02*
X0411357Y0092500D01*
X0412958Y0092500D01*
X0413759Y0093301D01*
X0413759Y0094101D01*
X0412958Y0094902D01*
X0412158Y0094902D01*
X0412958Y0094902D02*
X0413759Y0095703D01*
X0413759Y0096503D01*
X0412958Y0097304D01*
X0411357Y0097304D01*
X0410556Y0096503D01*
X0410556Y0102500D02*
X0413759Y0102500D01*
X0412158Y0102500D02*
X0412158Y0107304D01*
X0410556Y0105703D01*
X0408603Y0104902D02*
X0405400Y0104902D01*
X0407802Y0107304D01*
X0407802Y0102500D01*
X0407802Y0112500D02*
X0406201Y0112500D01*
X0405400Y0113301D01*
X0407001Y0114902D02*
X0407802Y0114902D01*
X0408603Y0114101D01*
X0408603Y0113301D01*
X0407802Y0112500D01*
X0410556Y0113301D02*
X0411357Y0112500D01*
X0412958Y0112500D01*
X0413759Y0113301D01*
X0413759Y0116503D01*
X0412958Y0117304D01*
X0411357Y0117304D01*
X0410556Y0116503D01*
X0410556Y0115703D01*
X0411357Y0114902D01*
X0413759Y0114902D01*
X0408603Y0115703D02*
X0407802Y0114902D01*
X0408603Y0115703D02*
X0408603Y0116503D01*
X0407802Y0117304D01*
X0406201Y0117304D01*
X0405400Y0116503D01*
X0406201Y0122500D02*
X0405400Y0123301D01*
X0406201Y0122500D02*
X0407802Y0122500D01*
X0408603Y0123301D01*
X0408603Y0124101D01*
X0407802Y0124902D01*
X0407001Y0124902D01*
X0407802Y0124902D02*
X0408603Y0125703D01*
X0408603Y0126503D01*
X0407802Y0127304D01*
X0406201Y0127304D01*
X0405400Y0126503D01*
X0410556Y0127304D02*
X0413759Y0127304D01*
X0413759Y0126503D01*
X0410556Y0123301D01*
X0410556Y0122500D01*
X0411357Y0132500D02*
X0410556Y0133301D01*
X0411357Y0132500D02*
X0412958Y0132500D01*
X0413759Y0133301D01*
X0413759Y0134902D01*
X0412958Y0135703D01*
X0412158Y0135703D01*
X0410556Y0134902D01*
X0410556Y0137304D01*
X0413759Y0137304D01*
X0408603Y0136503D02*
X0408603Y0135703D01*
X0407802Y0134902D01*
X0408603Y0134101D01*
X0408603Y0133301D01*
X0407802Y0132500D01*
X0406201Y0132500D01*
X0405400Y0133301D01*
X0407001Y0134902D02*
X0407802Y0134902D01*
X0408603Y0136503D02*
X0407802Y0137304D01*
X0406201Y0137304D01*
X0405400Y0136503D01*
X0406201Y0142500D02*
X0405400Y0143301D01*
X0406201Y0142500D02*
X0407802Y0142500D01*
X0408603Y0143301D01*
X0408603Y0144101D01*
X0407802Y0144902D01*
X0407001Y0144902D01*
X0407802Y0144902D02*
X0408603Y0145703D01*
X0408603Y0146503D01*
X0407802Y0147304D01*
X0406201Y0147304D01*
X0405400Y0146503D01*
X0410556Y0146503D02*
X0411357Y0147304D01*
X0412958Y0147304D01*
X0413759Y0146503D01*
X0413759Y0145703D01*
X0412958Y0144902D01*
X0413759Y0144101D01*
X0413759Y0143301D01*
X0412958Y0142500D01*
X0411357Y0142500D01*
X0410556Y0143301D01*
X0412158Y0144902D02*
X0412958Y0144902D01*
X0412158Y0152500D02*
X0412158Y0157304D01*
X0410556Y0155703D01*
X0408603Y0155703D02*
X0408603Y0156503D01*
X0407802Y0157304D01*
X0406201Y0157304D01*
X0405400Y0156503D01*
X0407001Y0154902D02*
X0407802Y0154902D01*
X0408603Y0154101D01*
X0408603Y0153301D01*
X0407802Y0152500D01*
X0406201Y0152500D01*
X0405400Y0153301D01*
X0407802Y0154902D02*
X0408603Y0155703D01*
X0410556Y0152500D02*
X0413759Y0152500D01*
X0400000Y0200000D02*
X0385000Y0200000D01*
X0382500Y0202500D01*
X0382500Y0207500D01*
X0385000Y0210000D01*
X0400000Y0210000D01*
X0402500Y0207500D01*
X0402500Y0202500D01*
X0400000Y0200000D01*
X0160397Y0188400D02*
X0158796Y0190001D01*
X0114200Y0180977D02*
X0110997Y0180977D01*
X0109396Y0179376D01*
X0110997Y0177774D01*
X0114200Y0177774D01*
X0111798Y0177774D02*
X0111798Y0180977D01*
D15*
X0384500Y0212800D02*
X0387500Y0212800D01*
X0397500Y0212800D01*
X0397500Y0210200D01*
X0387500Y0210300D02*
X0387500Y0212800D01*
X0387500Y0029700D02*
X0387500Y0026800D01*
X0397500Y0026800D01*
X0397500Y0029800D01*
X0402500Y0030000D02*
X0414300Y0030000D01*
D16*
X0365550Y0051450D02*
X0365550Y0054002D01*
X0364699Y0054853D01*
X0361296Y0054853D01*
X0360446Y0054002D01*
X0360446Y0051450D01*
X0365550Y0051450D01*
X0365550Y0056975D02*
X0365550Y0058676D01*
X0365550Y0057825D02*
X0360446Y0057825D01*
X0360446Y0056975D02*
X0360446Y0058676D01*
X0361296Y0060658D02*
X0364699Y0060658D01*
X0365550Y0061509D01*
X0365550Y0063210D01*
X0364699Y0064061D01*
X0362998Y0064061D01*
X0362998Y0062359D01*
X0361296Y0060658D02*
X0360446Y0061509D01*
X0360446Y0063210D01*
X0361296Y0064061D01*
X0360446Y0066183D02*
X0360446Y0067884D01*
X0360446Y0067033D02*
X0365550Y0067033D01*
X0365550Y0066183D02*
X0365550Y0067884D01*
X0360446Y0069866D02*
X0360446Y0073269D01*
X0360446Y0071567D02*
X0365550Y0071567D01*
X0365550Y0075390D02*
X0362147Y0075390D01*
X0360446Y0077092D01*
X0362147Y0078793D01*
X0365550Y0078793D01*
X0365550Y0080915D02*
X0360446Y0080915D01*
X0362998Y0078793D02*
X0362998Y0075390D01*
X0365550Y0080915D02*
X0365550Y0084318D01*
X0199452Y0041704D02*
X0199452Y0040002D01*
X0198601Y0039151D01*
X0196049Y0039151D01*
X0196049Y0037450D02*
X0196049Y0042554D01*
X0198601Y0042554D01*
X0199452Y0041704D01*
X0197750Y0039151D02*
X0199452Y0037450D01*
X0193927Y0037450D02*
X0190524Y0037450D01*
X0190524Y0042554D01*
X0193927Y0042554D01*
X0192226Y0040002D02*
X0190524Y0040002D01*
X0188402Y0037450D02*
X0188402Y0042554D01*
X0184999Y0042554D02*
X0184999Y0037450D01*
X0186701Y0039151D01*
X0188402Y0037450D01*
X0182878Y0038301D02*
X0182878Y0041704D01*
X0182027Y0042554D01*
X0180325Y0042554D01*
X0179475Y0041704D01*
X0179475Y0038301D01*
X0180325Y0037450D01*
X0182027Y0037450D01*
X0182878Y0038301D01*
X0177353Y0040002D02*
X0176502Y0039151D01*
X0173950Y0039151D01*
X0173950Y0037450D02*
X0173950Y0042554D01*
X0176502Y0042554D01*
X0177353Y0041704D01*
X0177353Y0040002D01*
D17*
X0056950Y0067885D02*
X0056199Y0067134D01*
X0053197Y0067134D01*
X0052446Y0067885D01*
X0052446Y0069386D01*
X0053197Y0070137D01*
X0053197Y0071738D02*
X0056199Y0071738D01*
X0056950Y0072489D01*
X0056950Y0073990D01*
X0056199Y0074741D01*
X0053197Y0074741D01*
X0052446Y0073990D01*
X0052446Y0072489D01*
X0053197Y0071738D01*
X0056199Y0070137D02*
X0056950Y0069386D01*
X0056950Y0067885D01*
X0056950Y0076342D02*
X0052446Y0076342D01*
X0056950Y0079345D01*
X0052446Y0079345D01*
X0053197Y0080946D02*
X0052446Y0081697D01*
X0052446Y0083198D01*
X0053197Y0083949D01*
X0053947Y0083949D01*
X0056950Y0080946D01*
X0056950Y0083949D01*
X0048000Y0090000D02*
X0048000Y0050000D01*
X0017800Y0050000D01*
X0017800Y0090000D01*
X0048000Y0090000D01*
X0048000Y0102500D02*
X0017800Y0102500D01*
X0017800Y0142500D01*
X0048000Y0142500D01*
X0048000Y0102500D01*
X0053197Y0119634D02*
X0056199Y0119634D01*
X0056950Y0120385D01*
X0056950Y0121886D01*
X0056199Y0122637D01*
X0056199Y0124238D02*
X0053197Y0124238D01*
X0052446Y0124989D01*
X0052446Y0126490D01*
X0053197Y0127241D01*
X0056199Y0127241D01*
X0056950Y0126490D01*
X0056950Y0124989D01*
X0056199Y0124238D01*
X0053197Y0122637D02*
X0052446Y0121886D01*
X0052446Y0120385D01*
X0053197Y0119634D01*
X0052446Y0128842D02*
X0056950Y0131845D01*
X0052446Y0131845D01*
X0053947Y0133446D02*
X0052446Y0134947D01*
X0056950Y0134947D01*
X0056950Y0133446D02*
X0056950Y0136449D01*
X0056950Y0128842D02*
X0052446Y0128842D01*
X0352500Y0125000D02*
X0352500Y0123500D01*
X0352500Y0168500D02*
X0352500Y0170000D01*
X0378250Y0210250D02*
X0377750Y0210750D01*
X0378250Y0210250D02*
X0379251Y0210250D01*
X0379752Y0210750D01*
X0379752Y0211751D01*
X0379251Y0212252D01*
X0378751Y0212252D01*
X0377750Y0211751D01*
X0377750Y0213253D01*
X0379752Y0213253D01*
X0380973Y0213253D02*
X0380973Y0211251D01*
X0381974Y0210250D01*
X0382974Y0211251D01*
X0382974Y0213253D01*
X0352500Y0080000D02*
X0352500Y0078500D01*
X0352500Y0035000D02*
X0352500Y0033500D01*
D18*
X0391201Y0015000D02*
X0391203Y0015158D01*
X0391209Y0015316D01*
X0391219Y0015474D01*
X0391233Y0015632D01*
X0391251Y0015789D01*
X0391272Y0015946D01*
X0391298Y0016102D01*
X0391328Y0016258D01*
X0391361Y0016413D01*
X0391399Y0016566D01*
X0391440Y0016719D01*
X0391485Y0016871D01*
X0391534Y0017022D01*
X0391587Y0017171D01*
X0391643Y0017319D01*
X0391703Y0017465D01*
X0391767Y0017610D01*
X0391835Y0017753D01*
X0391906Y0017895D01*
X0391980Y0018035D01*
X0392058Y0018172D01*
X0392140Y0018308D01*
X0392224Y0018442D01*
X0392313Y0018573D01*
X0392404Y0018702D01*
X0392499Y0018829D01*
X0392596Y0018954D01*
X0392697Y0019076D01*
X0392801Y0019195D01*
X0392908Y0019312D01*
X0393018Y0019426D01*
X0393131Y0019537D01*
X0393246Y0019646D01*
X0393364Y0019751D01*
X0393485Y0019853D01*
X0393608Y0019953D01*
X0393734Y0020049D01*
X0393862Y0020142D01*
X0393992Y0020232D01*
X0394125Y0020318D01*
X0394260Y0020402D01*
X0394396Y0020481D01*
X0394535Y0020558D01*
X0394676Y0020630D01*
X0394818Y0020700D01*
X0394962Y0020765D01*
X0395108Y0020827D01*
X0395255Y0020885D01*
X0395404Y0020940D01*
X0395554Y0020991D01*
X0395705Y0021038D01*
X0395857Y0021081D01*
X0396010Y0021120D01*
X0396165Y0021156D01*
X0396320Y0021187D01*
X0396476Y0021215D01*
X0396632Y0021239D01*
X0396789Y0021259D01*
X0396947Y0021275D01*
X0397104Y0021287D01*
X0397263Y0021295D01*
X0397421Y0021299D01*
X0397579Y0021299D01*
X0397737Y0021295D01*
X0397896Y0021287D01*
X0398053Y0021275D01*
X0398211Y0021259D01*
X0398368Y0021239D01*
X0398524Y0021215D01*
X0398680Y0021187D01*
X0398835Y0021156D01*
X0398990Y0021120D01*
X0399143Y0021081D01*
X0399295Y0021038D01*
X0399446Y0020991D01*
X0399596Y0020940D01*
X0399745Y0020885D01*
X0399892Y0020827D01*
X0400038Y0020765D01*
X0400182Y0020700D01*
X0400324Y0020630D01*
X0400465Y0020558D01*
X0400604Y0020481D01*
X0400740Y0020402D01*
X0400875Y0020318D01*
X0401008Y0020232D01*
X0401138Y0020142D01*
X0401266Y0020049D01*
X0401392Y0019953D01*
X0401515Y0019853D01*
X0401636Y0019751D01*
X0401754Y0019646D01*
X0401869Y0019537D01*
X0401982Y0019426D01*
X0402092Y0019312D01*
X0402199Y0019195D01*
X0402303Y0019076D01*
X0402404Y0018954D01*
X0402501Y0018829D01*
X0402596Y0018702D01*
X0402687Y0018573D01*
X0402776Y0018442D01*
X0402860Y0018308D01*
X0402942Y0018172D01*
X0403020Y0018035D01*
X0403094Y0017895D01*
X0403165Y0017753D01*
X0403233Y0017610D01*
X0403297Y0017465D01*
X0403357Y0017319D01*
X0403413Y0017171D01*
X0403466Y0017022D01*
X0403515Y0016871D01*
X0403560Y0016719D01*
X0403601Y0016566D01*
X0403639Y0016413D01*
X0403672Y0016258D01*
X0403702Y0016102D01*
X0403728Y0015946D01*
X0403749Y0015789D01*
X0403767Y0015632D01*
X0403781Y0015474D01*
X0403791Y0015316D01*
X0403797Y0015158D01*
X0403799Y0015000D01*
X0403797Y0014842D01*
X0403791Y0014684D01*
X0403781Y0014526D01*
X0403767Y0014368D01*
X0403749Y0014211D01*
X0403728Y0014054D01*
X0403702Y0013898D01*
X0403672Y0013742D01*
X0403639Y0013587D01*
X0403601Y0013434D01*
X0403560Y0013281D01*
X0403515Y0013129D01*
X0403466Y0012978D01*
X0403413Y0012829D01*
X0403357Y0012681D01*
X0403297Y0012535D01*
X0403233Y0012390D01*
X0403165Y0012247D01*
X0403094Y0012105D01*
X0403020Y0011965D01*
X0402942Y0011828D01*
X0402860Y0011692D01*
X0402776Y0011558D01*
X0402687Y0011427D01*
X0402596Y0011298D01*
X0402501Y0011171D01*
X0402404Y0011046D01*
X0402303Y0010924D01*
X0402199Y0010805D01*
X0402092Y0010688D01*
X0401982Y0010574D01*
X0401869Y0010463D01*
X0401754Y0010354D01*
X0401636Y0010249D01*
X0401515Y0010147D01*
X0401392Y0010047D01*
X0401266Y0009951D01*
X0401138Y0009858D01*
X0401008Y0009768D01*
X0400875Y0009682D01*
X0400740Y0009598D01*
X0400604Y0009519D01*
X0400465Y0009442D01*
X0400324Y0009370D01*
X0400182Y0009300D01*
X0400038Y0009235D01*
X0399892Y0009173D01*
X0399745Y0009115D01*
X0399596Y0009060D01*
X0399446Y0009009D01*
X0399295Y0008962D01*
X0399143Y0008919D01*
X0398990Y0008880D01*
X0398835Y0008844D01*
X0398680Y0008813D01*
X0398524Y0008785D01*
X0398368Y0008761D01*
X0398211Y0008741D01*
X0398053Y0008725D01*
X0397896Y0008713D01*
X0397737Y0008705D01*
X0397579Y0008701D01*
X0397421Y0008701D01*
X0397263Y0008705D01*
X0397104Y0008713D01*
X0396947Y0008725D01*
X0396789Y0008741D01*
X0396632Y0008761D01*
X0396476Y0008785D01*
X0396320Y0008813D01*
X0396165Y0008844D01*
X0396010Y0008880D01*
X0395857Y0008919D01*
X0395705Y0008962D01*
X0395554Y0009009D01*
X0395404Y0009060D01*
X0395255Y0009115D01*
X0395108Y0009173D01*
X0394962Y0009235D01*
X0394818Y0009300D01*
X0394676Y0009370D01*
X0394535Y0009442D01*
X0394396Y0009519D01*
X0394260Y0009598D01*
X0394125Y0009682D01*
X0393992Y0009768D01*
X0393862Y0009858D01*
X0393734Y0009951D01*
X0393608Y0010047D01*
X0393485Y0010147D01*
X0393364Y0010249D01*
X0393246Y0010354D01*
X0393131Y0010463D01*
X0393018Y0010574D01*
X0392908Y0010688D01*
X0392801Y0010805D01*
X0392697Y0010924D01*
X0392596Y0011046D01*
X0392499Y0011171D01*
X0392404Y0011298D01*
X0392313Y0011427D01*
X0392224Y0011558D01*
X0392140Y0011692D01*
X0392058Y0011828D01*
X0391980Y0011965D01*
X0391906Y0012105D01*
X0391835Y0012247D01*
X0391767Y0012390D01*
X0391703Y0012535D01*
X0391643Y0012681D01*
X0391587Y0012829D01*
X0391534Y0012978D01*
X0391485Y0013129D01*
X0391440Y0013281D01*
X0391399Y0013434D01*
X0391361Y0013587D01*
X0391328Y0013742D01*
X0391298Y0013898D01*
X0391272Y0014054D01*
X0391251Y0014211D01*
X0391233Y0014368D01*
X0391219Y0014526D01*
X0391209Y0014684D01*
X0391203Y0014842D01*
X0391201Y0015000D01*
X0066201Y0015000D02*
X0066203Y0015158D01*
X0066209Y0015316D01*
X0066219Y0015474D01*
X0066233Y0015632D01*
X0066251Y0015789D01*
X0066272Y0015946D01*
X0066298Y0016102D01*
X0066328Y0016258D01*
X0066361Y0016413D01*
X0066399Y0016566D01*
X0066440Y0016719D01*
X0066485Y0016871D01*
X0066534Y0017022D01*
X0066587Y0017171D01*
X0066643Y0017319D01*
X0066703Y0017465D01*
X0066767Y0017610D01*
X0066835Y0017753D01*
X0066906Y0017895D01*
X0066980Y0018035D01*
X0067058Y0018172D01*
X0067140Y0018308D01*
X0067224Y0018442D01*
X0067313Y0018573D01*
X0067404Y0018702D01*
X0067499Y0018829D01*
X0067596Y0018954D01*
X0067697Y0019076D01*
X0067801Y0019195D01*
X0067908Y0019312D01*
X0068018Y0019426D01*
X0068131Y0019537D01*
X0068246Y0019646D01*
X0068364Y0019751D01*
X0068485Y0019853D01*
X0068608Y0019953D01*
X0068734Y0020049D01*
X0068862Y0020142D01*
X0068992Y0020232D01*
X0069125Y0020318D01*
X0069260Y0020402D01*
X0069396Y0020481D01*
X0069535Y0020558D01*
X0069676Y0020630D01*
X0069818Y0020700D01*
X0069962Y0020765D01*
X0070108Y0020827D01*
X0070255Y0020885D01*
X0070404Y0020940D01*
X0070554Y0020991D01*
X0070705Y0021038D01*
X0070857Y0021081D01*
X0071010Y0021120D01*
X0071165Y0021156D01*
X0071320Y0021187D01*
X0071476Y0021215D01*
X0071632Y0021239D01*
X0071789Y0021259D01*
X0071947Y0021275D01*
X0072104Y0021287D01*
X0072263Y0021295D01*
X0072421Y0021299D01*
X0072579Y0021299D01*
X0072737Y0021295D01*
X0072896Y0021287D01*
X0073053Y0021275D01*
X0073211Y0021259D01*
X0073368Y0021239D01*
X0073524Y0021215D01*
X0073680Y0021187D01*
X0073835Y0021156D01*
X0073990Y0021120D01*
X0074143Y0021081D01*
X0074295Y0021038D01*
X0074446Y0020991D01*
X0074596Y0020940D01*
X0074745Y0020885D01*
X0074892Y0020827D01*
X0075038Y0020765D01*
X0075182Y0020700D01*
X0075324Y0020630D01*
X0075465Y0020558D01*
X0075604Y0020481D01*
X0075740Y0020402D01*
X0075875Y0020318D01*
X0076008Y0020232D01*
X0076138Y0020142D01*
X0076266Y0020049D01*
X0076392Y0019953D01*
X0076515Y0019853D01*
X0076636Y0019751D01*
X0076754Y0019646D01*
X0076869Y0019537D01*
X0076982Y0019426D01*
X0077092Y0019312D01*
X0077199Y0019195D01*
X0077303Y0019076D01*
X0077404Y0018954D01*
X0077501Y0018829D01*
X0077596Y0018702D01*
X0077687Y0018573D01*
X0077776Y0018442D01*
X0077860Y0018308D01*
X0077942Y0018172D01*
X0078020Y0018035D01*
X0078094Y0017895D01*
X0078165Y0017753D01*
X0078233Y0017610D01*
X0078297Y0017465D01*
X0078357Y0017319D01*
X0078413Y0017171D01*
X0078466Y0017022D01*
X0078515Y0016871D01*
X0078560Y0016719D01*
X0078601Y0016566D01*
X0078639Y0016413D01*
X0078672Y0016258D01*
X0078702Y0016102D01*
X0078728Y0015946D01*
X0078749Y0015789D01*
X0078767Y0015632D01*
X0078781Y0015474D01*
X0078791Y0015316D01*
X0078797Y0015158D01*
X0078799Y0015000D01*
X0078797Y0014842D01*
X0078791Y0014684D01*
X0078781Y0014526D01*
X0078767Y0014368D01*
X0078749Y0014211D01*
X0078728Y0014054D01*
X0078702Y0013898D01*
X0078672Y0013742D01*
X0078639Y0013587D01*
X0078601Y0013434D01*
X0078560Y0013281D01*
X0078515Y0013129D01*
X0078466Y0012978D01*
X0078413Y0012829D01*
X0078357Y0012681D01*
X0078297Y0012535D01*
X0078233Y0012390D01*
X0078165Y0012247D01*
X0078094Y0012105D01*
X0078020Y0011965D01*
X0077942Y0011828D01*
X0077860Y0011692D01*
X0077776Y0011558D01*
X0077687Y0011427D01*
X0077596Y0011298D01*
X0077501Y0011171D01*
X0077404Y0011046D01*
X0077303Y0010924D01*
X0077199Y0010805D01*
X0077092Y0010688D01*
X0076982Y0010574D01*
X0076869Y0010463D01*
X0076754Y0010354D01*
X0076636Y0010249D01*
X0076515Y0010147D01*
X0076392Y0010047D01*
X0076266Y0009951D01*
X0076138Y0009858D01*
X0076008Y0009768D01*
X0075875Y0009682D01*
X0075740Y0009598D01*
X0075604Y0009519D01*
X0075465Y0009442D01*
X0075324Y0009370D01*
X0075182Y0009300D01*
X0075038Y0009235D01*
X0074892Y0009173D01*
X0074745Y0009115D01*
X0074596Y0009060D01*
X0074446Y0009009D01*
X0074295Y0008962D01*
X0074143Y0008919D01*
X0073990Y0008880D01*
X0073835Y0008844D01*
X0073680Y0008813D01*
X0073524Y0008785D01*
X0073368Y0008761D01*
X0073211Y0008741D01*
X0073053Y0008725D01*
X0072896Y0008713D01*
X0072737Y0008705D01*
X0072579Y0008701D01*
X0072421Y0008701D01*
X0072263Y0008705D01*
X0072104Y0008713D01*
X0071947Y0008725D01*
X0071789Y0008741D01*
X0071632Y0008761D01*
X0071476Y0008785D01*
X0071320Y0008813D01*
X0071165Y0008844D01*
X0071010Y0008880D01*
X0070857Y0008919D01*
X0070705Y0008962D01*
X0070554Y0009009D01*
X0070404Y0009060D01*
X0070255Y0009115D01*
X0070108Y0009173D01*
X0069962Y0009235D01*
X0069818Y0009300D01*
X0069676Y0009370D01*
X0069535Y0009442D01*
X0069396Y0009519D01*
X0069260Y0009598D01*
X0069125Y0009682D01*
X0068992Y0009768D01*
X0068862Y0009858D01*
X0068734Y0009951D01*
X0068608Y0010047D01*
X0068485Y0010147D01*
X0068364Y0010249D01*
X0068246Y0010354D01*
X0068131Y0010463D01*
X0068018Y0010574D01*
X0067908Y0010688D01*
X0067801Y0010805D01*
X0067697Y0010924D01*
X0067596Y0011046D01*
X0067499Y0011171D01*
X0067404Y0011298D01*
X0067313Y0011427D01*
X0067224Y0011558D01*
X0067140Y0011692D01*
X0067058Y0011828D01*
X0066980Y0011965D01*
X0066906Y0012105D01*
X0066835Y0012247D01*
X0066767Y0012390D01*
X0066703Y0012535D01*
X0066643Y0012681D01*
X0066587Y0012829D01*
X0066534Y0012978D01*
X0066485Y0013129D01*
X0066440Y0013281D01*
X0066399Y0013434D01*
X0066361Y0013587D01*
X0066328Y0013742D01*
X0066298Y0013898D01*
X0066272Y0014054D01*
X0066251Y0014211D01*
X0066233Y0014368D01*
X0066219Y0014526D01*
X0066209Y0014684D01*
X0066203Y0014842D01*
X0066201Y0015000D01*
X0071201Y0205000D02*
X0071203Y0205158D01*
X0071209Y0205316D01*
X0071219Y0205474D01*
X0071233Y0205632D01*
X0071251Y0205789D01*
X0071272Y0205946D01*
X0071298Y0206102D01*
X0071328Y0206258D01*
X0071361Y0206413D01*
X0071399Y0206566D01*
X0071440Y0206719D01*
X0071485Y0206871D01*
X0071534Y0207022D01*
X0071587Y0207171D01*
X0071643Y0207319D01*
X0071703Y0207465D01*
X0071767Y0207610D01*
X0071835Y0207753D01*
X0071906Y0207895D01*
X0071980Y0208035D01*
X0072058Y0208172D01*
X0072140Y0208308D01*
X0072224Y0208442D01*
X0072313Y0208573D01*
X0072404Y0208702D01*
X0072499Y0208829D01*
X0072596Y0208954D01*
X0072697Y0209076D01*
X0072801Y0209195D01*
X0072908Y0209312D01*
X0073018Y0209426D01*
X0073131Y0209537D01*
X0073246Y0209646D01*
X0073364Y0209751D01*
X0073485Y0209853D01*
X0073608Y0209953D01*
X0073734Y0210049D01*
X0073862Y0210142D01*
X0073992Y0210232D01*
X0074125Y0210318D01*
X0074260Y0210402D01*
X0074396Y0210481D01*
X0074535Y0210558D01*
X0074676Y0210630D01*
X0074818Y0210700D01*
X0074962Y0210765D01*
X0075108Y0210827D01*
X0075255Y0210885D01*
X0075404Y0210940D01*
X0075554Y0210991D01*
X0075705Y0211038D01*
X0075857Y0211081D01*
X0076010Y0211120D01*
X0076165Y0211156D01*
X0076320Y0211187D01*
X0076476Y0211215D01*
X0076632Y0211239D01*
X0076789Y0211259D01*
X0076947Y0211275D01*
X0077104Y0211287D01*
X0077263Y0211295D01*
X0077421Y0211299D01*
X0077579Y0211299D01*
X0077737Y0211295D01*
X0077896Y0211287D01*
X0078053Y0211275D01*
X0078211Y0211259D01*
X0078368Y0211239D01*
X0078524Y0211215D01*
X0078680Y0211187D01*
X0078835Y0211156D01*
X0078990Y0211120D01*
X0079143Y0211081D01*
X0079295Y0211038D01*
X0079446Y0210991D01*
X0079596Y0210940D01*
X0079745Y0210885D01*
X0079892Y0210827D01*
X0080038Y0210765D01*
X0080182Y0210700D01*
X0080324Y0210630D01*
X0080465Y0210558D01*
X0080604Y0210481D01*
X0080740Y0210402D01*
X0080875Y0210318D01*
X0081008Y0210232D01*
X0081138Y0210142D01*
X0081266Y0210049D01*
X0081392Y0209953D01*
X0081515Y0209853D01*
X0081636Y0209751D01*
X0081754Y0209646D01*
X0081869Y0209537D01*
X0081982Y0209426D01*
X0082092Y0209312D01*
X0082199Y0209195D01*
X0082303Y0209076D01*
X0082404Y0208954D01*
X0082501Y0208829D01*
X0082596Y0208702D01*
X0082687Y0208573D01*
X0082776Y0208442D01*
X0082860Y0208308D01*
X0082942Y0208172D01*
X0083020Y0208035D01*
X0083094Y0207895D01*
X0083165Y0207753D01*
X0083233Y0207610D01*
X0083297Y0207465D01*
X0083357Y0207319D01*
X0083413Y0207171D01*
X0083466Y0207022D01*
X0083515Y0206871D01*
X0083560Y0206719D01*
X0083601Y0206566D01*
X0083639Y0206413D01*
X0083672Y0206258D01*
X0083702Y0206102D01*
X0083728Y0205946D01*
X0083749Y0205789D01*
X0083767Y0205632D01*
X0083781Y0205474D01*
X0083791Y0205316D01*
X0083797Y0205158D01*
X0083799Y0205000D01*
X0083797Y0204842D01*
X0083791Y0204684D01*
X0083781Y0204526D01*
X0083767Y0204368D01*
X0083749Y0204211D01*
X0083728Y0204054D01*
X0083702Y0203898D01*
X0083672Y0203742D01*
X0083639Y0203587D01*
X0083601Y0203434D01*
X0083560Y0203281D01*
X0083515Y0203129D01*
X0083466Y0202978D01*
X0083413Y0202829D01*
X0083357Y0202681D01*
X0083297Y0202535D01*
X0083233Y0202390D01*
X0083165Y0202247D01*
X0083094Y0202105D01*
X0083020Y0201965D01*
X0082942Y0201828D01*
X0082860Y0201692D01*
X0082776Y0201558D01*
X0082687Y0201427D01*
X0082596Y0201298D01*
X0082501Y0201171D01*
X0082404Y0201046D01*
X0082303Y0200924D01*
X0082199Y0200805D01*
X0082092Y0200688D01*
X0081982Y0200574D01*
X0081869Y0200463D01*
X0081754Y0200354D01*
X0081636Y0200249D01*
X0081515Y0200147D01*
X0081392Y0200047D01*
X0081266Y0199951D01*
X0081138Y0199858D01*
X0081008Y0199768D01*
X0080875Y0199682D01*
X0080740Y0199598D01*
X0080604Y0199519D01*
X0080465Y0199442D01*
X0080324Y0199370D01*
X0080182Y0199300D01*
X0080038Y0199235D01*
X0079892Y0199173D01*
X0079745Y0199115D01*
X0079596Y0199060D01*
X0079446Y0199009D01*
X0079295Y0198962D01*
X0079143Y0198919D01*
X0078990Y0198880D01*
X0078835Y0198844D01*
X0078680Y0198813D01*
X0078524Y0198785D01*
X0078368Y0198761D01*
X0078211Y0198741D01*
X0078053Y0198725D01*
X0077896Y0198713D01*
X0077737Y0198705D01*
X0077579Y0198701D01*
X0077421Y0198701D01*
X0077263Y0198705D01*
X0077104Y0198713D01*
X0076947Y0198725D01*
X0076789Y0198741D01*
X0076632Y0198761D01*
X0076476Y0198785D01*
X0076320Y0198813D01*
X0076165Y0198844D01*
X0076010Y0198880D01*
X0075857Y0198919D01*
X0075705Y0198962D01*
X0075554Y0199009D01*
X0075404Y0199060D01*
X0075255Y0199115D01*
X0075108Y0199173D01*
X0074962Y0199235D01*
X0074818Y0199300D01*
X0074676Y0199370D01*
X0074535Y0199442D01*
X0074396Y0199519D01*
X0074260Y0199598D01*
X0074125Y0199682D01*
X0073992Y0199768D01*
X0073862Y0199858D01*
X0073734Y0199951D01*
X0073608Y0200047D01*
X0073485Y0200147D01*
X0073364Y0200249D01*
X0073246Y0200354D01*
X0073131Y0200463D01*
X0073018Y0200574D01*
X0072908Y0200688D01*
X0072801Y0200805D01*
X0072697Y0200924D01*
X0072596Y0201046D01*
X0072499Y0201171D01*
X0072404Y0201298D01*
X0072313Y0201427D01*
X0072224Y0201558D01*
X0072140Y0201692D01*
X0072058Y0201828D01*
X0071980Y0201965D01*
X0071906Y0202105D01*
X0071835Y0202247D01*
X0071767Y0202390D01*
X0071703Y0202535D01*
X0071643Y0202681D01*
X0071587Y0202829D01*
X0071534Y0202978D01*
X0071485Y0203129D01*
X0071440Y0203281D01*
X0071399Y0203434D01*
X0071361Y0203587D01*
X0071328Y0203742D01*
X0071298Y0203898D01*
X0071272Y0204054D01*
X0071251Y0204211D01*
X0071233Y0204368D01*
X0071219Y0204526D01*
X0071209Y0204684D01*
X0071203Y0204842D01*
X0071201Y0205000D01*
X0366201Y0205000D02*
X0366203Y0205158D01*
X0366209Y0205316D01*
X0366219Y0205474D01*
X0366233Y0205632D01*
X0366251Y0205789D01*
X0366272Y0205946D01*
X0366298Y0206102D01*
X0366328Y0206258D01*
X0366361Y0206413D01*
X0366399Y0206566D01*
X0366440Y0206719D01*
X0366485Y0206871D01*
X0366534Y0207022D01*
X0366587Y0207171D01*
X0366643Y0207319D01*
X0366703Y0207465D01*
X0366767Y0207610D01*
X0366835Y0207753D01*
X0366906Y0207895D01*
X0366980Y0208035D01*
X0367058Y0208172D01*
X0367140Y0208308D01*
X0367224Y0208442D01*
X0367313Y0208573D01*
X0367404Y0208702D01*
X0367499Y0208829D01*
X0367596Y0208954D01*
X0367697Y0209076D01*
X0367801Y0209195D01*
X0367908Y0209312D01*
X0368018Y0209426D01*
X0368131Y0209537D01*
X0368246Y0209646D01*
X0368364Y0209751D01*
X0368485Y0209853D01*
X0368608Y0209953D01*
X0368734Y0210049D01*
X0368862Y0210142D01*
X0368992Y0210232D01*
X0369125Y0210318D01*
X0369260Y0210402D01*
X0369396Y0210481D01*
X0369535Y0210558D01*
X0369676Y0210630D01*
X0369818Y0210700D01*
X0369962Y0210765D01*
X0370108Y0210827D01*
X0370255Y0210885D01*
X0370404Y0210940D01*
X0370554Y0210991D01*
X0370705Y0211038D01*
X0370857Y0211081D01*
X0371010Y0211120D01*
X0371165Y0211156D01*
X0371320Y0211187D01*
X0371476Y0211215D01*
X0371632Y0211239D01*
X0371789Y0211259D01*
X0371947Y0211275D01*
X0372104Y0211287D01*
X0372263Y0211295D01*
X0372421Y0211299D01*
X0372579Y0211299D01*
X0372737Y0211295D01*
X0372896Y0211287D01*
X0373053Y0211275D01*
X0373211Y0211259D01*
X0373368Y0211239D01*
X0373524Y0211215D01*
X0373680Y0211187D01*
X0373835Y0211156D01*
X0373990Y0211120D01*
X0374143Y0211081D01*
X0374295Y0211038D01*
X0374446Y0210991D01*
X0374596Y0210940D01*
X0374745Y0210885D01*
X0374892Y0210827D01*
X0375038Y0210765D01*
X0375182Y0210700D01*
X0375324Y0210630D01*
X0375465Y0210558D01*
X0375604Y0210481D01*
X0375740Y0210402D01*
X0375875Y0210318D01*
X0376008Y0210232D01*
X0376138Y0210142D01*
X0376266Y0210049D01*
X0376392Y0209953D01*
X0376515Y0209853D01*
X0376636Y0209751D01*
X0376754Y0209646D01*
X0376869Y0209537D01*
X0376982Y0209426D01*
X0377092Y0209312D01*
X0377199Y0209195D01*
X0377303Y0209076D01*
X0377404Y0208954D01*
X0377501Y0208829D01*
X0377596Y0208702D01*
X0377687Y0208573D01*
X0377776Y0208442D01*
X0377860Y0208308D01*
X0377942Y0208172D01*
X0378020Y0208035D01*
X0378094Y0207895D01*
X0378165Y0207753D01*
X0378233Y0207610D01*
X0378297Y0207465D01*
X0378357Y0207319D01*
X0378413Y0207171D01*
X0378466Y0207022D01*
X0378515Y0206871D01*
X0378560Y0206719D01*
X0378601Y0206566D01*
X0378639Y0206413D01*
X0378672Y0206258D01*
X0378702Y0206102D01*
X0378728Y0205946D01*
X0378749Y0205789D01*
X0378767Y0205632D01*
X0378781Y0205474D01*
X0378791Y0205316D01*
X0378797Y0205158D01*
X0378799Y0205000D01*
X0378797Y0204842D01*
X0378791Y0204684D01*
X0378781Y0204526D01*
X0378767Y0204368D01*
X0378749Y0204211D01*
X0378728Y0204054D01*
X0378702Y0203898D01*
X0378672Y0203742D01*
X0378639Y0203587D01*
X0378601Y0203434D01*
X0378560Y0203281D01*
X0378515Y0203129D01*
X0378466Y0202978D01*
X0378413Y0202829D01*
X0378357Y0202681D01*
X0378297Y0202535D01*
X0378233Y0202390D01*
X0378165Y0202247D01*
X0378094Y0202105D01*
X0378020Y0201965D01*
X0377942Y0201828D01*
X0377860Y0201692D01*
X0377776Y0201558D01*
X0377687Y0201427D01*
X0377596Y0201298D01*
X0377501Y0201171D01*
X0377404Y0201046D01*
X0377303Y0200924D01*
X0377199Y0200805D01*
X0377092Y0200688D01*
X0376982Y0200574D01*
X0376869Y0200463D01*
X0376754Y0200354D01*
X0376636Y0200249D01*
X0376515Y0200147D01*
X0376392Y0200047D01*
X0376266Y0199951D01*
X0376138Y0199858D01*
X0376008Y0199768D01*
X0375875Y0199682D01*
X0375740Y0199598D01*
X0375604Y0199519D01*
X0375465Y0199442D01*
X0375324Y0199370D01*
X0375182Y0199300D01*
X0375038Y0199235D01*
X0374892Y0199173D01*
X0374745Y0199115D01*
X0374596Y0199060D01*
X0374446Y0199009D01*
X0374295Y0198962D01*
X0374143Y0198919D01*
X0373990Y0198880D01*
X0373835Y0198844D01*
X0373680Y0198813D01*
X0373524Y0198785D01*
X0373368Y0198761D01*
X0373211Y0198741D01*
X0373053Y0198725D01*
X0372896Y0198713D01*
X0372737Y0198705D01*
X0372579Y0198701D01*
X0372421Y0198701D01*
X0372263Y0198705D01*
X0372104Y0198713D01*
X0371947Y0198725D01*
X0371789Y0198741D01*
X0371632Y0198761D01*
X0371476Y0198785D01*
X0371320Y0198813D01*
X0371165Y0198844D01*
X0371010Y0198880D01*
X0370857Y0198919D01*
X0370705Y0198962D01*
X0370554Y0199009D01*
X0370404Y0199060D01*
X0370255Y0199115D01*
X0370108Y0199173D01*
X0369962Y0199235D01*
X0369818Y0199300D01*
X0369676Y0199370D01*
X0369535Y0199442D01*
X0369396Y0199519D01*
X0369260Y0199598D01*
X0369125Y0199682D01*
X0368992Y0199768D01*
X0368862Y0199858D01*
X0368734Y0199951D01*
X0368608Y0200047D01*
X0368485Y0200147D01*
X0368364Y0200249D01*
X0368246Y0200354D01*
X0368131Y0200463D01*
X0368018Y0200574D01*
X0367908Y0200688D01*
X0367801Y0200805D01*
X0367697Y0200924D01*
X0367596Y0201046D01*
X0367499Y0201171D01*
X0367404Y0201298D01*
X0367313Y0201427D01*
X0367224Y0201558D01*
X0367140Y0201692D01*
X0367058Y0201828D01*
X0366980Y0201965D01*
X0366906Y0202105D01*
X0366835Y0202247D01*
X0366767Y0202390D01*
X0366703Y0202535D01*
X0366643Y0202681D01*
X0366587Y0202829D01*
X0366534Y0202978D01*
X0366485Y0203129D01*
X0366440Y0203281D01*
X0366399Y0203434D01*
X0366361Y0203587D01*
X0366328Y0203742D01*
X0366298Y0203898D01*
X0366272Y0204054D01*
X0366251Y0204211D01*
X0366233Y0204368D01*
X0366219Y0204526D01*
X0366209Y0204684D01*
X0366203Y0204842D01*
X0366201Y0205000D01*
D19*
X0357500Y0191500D02*
X0328000Y0191500D01*
X0297500Y0191500D01*
X0300000Y0191500D01*
X0300000Y0189000D01*
X0305000Y0189000D01*
X0305000Y0191500D01*
X0310000Y0191500D01*
X0310000Y0189000D01*
X0315000Y0189000D01*
X0315000Y0191500D01*
X0320000Y0191500D01*
X0320000Y0189000D01*
X0325000Y0189000D01*
X0325000Y0191500D01*
X0330000Y0191500D01*
X0330000Y0189000D01*
X0335000Y0189000D01*
X0335000Y0191500D01*
X0340000Y0191500D01*
X0340000Y0189000D01*
X0345000Y0189000D01*
X0345000Y0191500D01*
X0350000Y0191500D01*
X0350000Y0189000D01*
X0355000Y0189000D01*
X0355000Y0191500D01*
X0356500Y0191500D01*
X0357500Y0191500D02*
X0357500Y0180000D01*
X0357500Y0168500D01*
X0352500Y0168500D01*
X0352500Y0172500D01*
X0351500Y0174500D01*
X0303500Y0174500D01*
X0302500Y0172500D01*
X0302500Y0168500D01*
X0303500Y0168500D02*
X0303500Y0172500D01*
X0302500Y0172500D01*
X0303500Y0172500D02*
X0351500Y0172500D01*
X0351500Y0168500D01*
X0327500Y0168500D01*
X0297500Y0168500D01*
X0297500Y0180000D01*
X0297500Y0191500D01*
X0351500Y0172500D02*
X0352500Y0172500D01*
X0352500Y0168500D02*
X0351500Y0168500D01*
X0350000Y0146500D02*
X0345000Y0146500D01*
X0345000Y0144000D01*
X0340000Y0144000D01*
X0340000Y0146500D01*
X0335000Y0146500D01*
X0335000Y0144000D01*
X0330000Y0144000D01*
X0330000Y0146500D01*
X0325000Y0146500D01*
X0325000Y0144000D01*
X0320000Y0144000D01*
X0320000Y0146500D01*
X0315000Y0146500D01*
X0315000Y0144000D01*
X0310000Y0144000D01*
X0310000Y0146500D01*
X0305000Y0146500D01*
X0305000Y0144000D01*
X0300000Y0144000D01*
X0300000Y0146500D01*
X0297500Y0146500D01*
X0328000Y0146500D01*
X0357500Y0146500D01*
X0357500Y0135000D01*
X0357500Y0123500D01*
X0352500Y0123500D01*
X0352500Y0127500D01*
X0351500Y0129500D01*
X0303500Y0129500D01*
X0302500Y0127500D01*
X0302500Y0123500D01*
X0303500Y0123500D02*
X0303500Y0127500D01*
X0302500Y0127500D01*
X0303500Y0127500D02*
X0351500Y0127500D01*
X0351500Y0123500D01*
X0327500Y0123500D01*
X0297500Y0123500D01*
X0297500Y0135000D01*
X0297500Y0146500D01*
X0350000Y0146500D02*
X0350000Y0144000D01*
X0355000Y0144000D01*
X0355000Y0146500D01*
X0356500Y0146500D01*
X0352500Y0127500D02*
X0351500Y0127500D01*
X0351500Y0123500D02*
X0352500Y0123500D01*
X0350000Y0101500D02*
X0345000Y0101500D01*
X0345000Y0099000D01*
X0340000Y0099000D01*
X0340000Y0101500D01*
X0335000Y0101500D01*
X0335000Y0099000D01*
X0330000Y0099000D01*
X0330000Y0101500D01*
X0325000Y0101500D01*
X0325000Y0099000D01*
X0320000Y0099000D01*
X0320000Y0101500D01*
X0315000Y0101500D01*
X0315000Y0099000D01*
X0310000Y0099000D01*
X0310000Y0101500D01*
X0305000Y0101500D01*
X0305000Y0099000D01*
X0300000Y0099000D01*
X0300000Y0101500D01*
X0297500Y0101500D01*
X0328000Y0101500D01*
X0357500Y0101500D01*
X0357500Y0090000D01*
X0357500Y0078500D01*
X0352500Y0078500D01*
X0352500Y0082500D01*
X0351500Y0084500D01*
X0303500Y0084500D01*
X0302500Y0082500D01*
X0302500Y0078500D01*
X0303500Y0078500D02*
X0303500Y0082500D01*
X0302500Y0082500D01*
X0303500Y0082500D02*
X0351500Y0082500D01*
X0351500Y0078500D01*
X0327500Y0078500D01*
X0297500Y0078500D01*
X0297500Y0090000D01*
X0297500Y0101500D01*
X0350000Y0101500D02*
X0350000Y0099000D01*
X0355000Y0099000D01*
X0355000Y0101500D01*
X0356500Y0101500D01*
X0352500Y0082500D02*
X0351500Y0082500D01*
X0351500Y0078500D02*
X0352500Y0078500D01*
X0350000Y0056500D02*
X0345000Y0056500D01*
X0345000Y0054000D01*
X0340000Y0054000D01*
X0340000Y0056500D01*
X0335000Y0056500D01*
X0335000Y0054000D01*
X0330000Y0054000D01*
X0330000Y0056500D01*
X0325000Y0056500D01*
X0325000Y0054000D01*
X0320000Y0054000D01*
X0320000Y0056500D01*
X0315000Y0056500D01*
X0315000Y0054000D01*
X0310000Y0054000D01*
X0310000Y0056500D01*
X0305000Y0056500D01*
X0305000Y0054000D01*
X0300000Y0054000D01*
X0300000Y0056500D01*
X0297500Y0056500D01*
X0328000Y0056500D01*
X0357500Y0056500D01*
X0357500Y0045000D01*
X0357500Y0033500D01*
X0352500Y0033500D01*
X0352500Y0037500D01*
X0351500Y0039500D01*
X0303500Y0039500D01*
X0302500Y0037500D01*
X0302500Y0033500D01*
X0303500Y0033500D02*
X0303500Y0037500D01*
X0302500Y0037500D01*
X0303500Y0037500D02*
X0351500Y0037500D01*
X0351500Y0033500D01*
X0327500Y0033500D01*
X0297500Y0033500D01*
X0297500Y0045000D01*
X0297500Y0056500D01*
X0350000Y0056500D02*
X0350000Y0054000D01*
X0355000Y0054000D01*
X0355000Y0056500D01*
X0356500Y0056500D01*
X0352500Y0037500D02*
X0351500Y0037500D01*
X0351500Y0033500D02*
X0352500Y0033500D01*
D20*
X0358569Y0042056D02*
X0360004Y0042056D01*
X0360721Y0042773D01*
X0360721Y0043490D01*
X0360004Y0044208D01*
X0357852Y0044208D01*
X0357852Y0042773D01*
X0358569Y0042056D01*
X0357852Y0044208D02*
X0359287Y0045642D01*
X0360721Y0046360D01*
X0294721Y0041756D02*
X0291852Y0041756D01*
X0293287Y0041756D02*
X0293287Y0046060D01*
X0291852Y0044625D01*
X0291852Y0086756D02*
X0294721Y0086756D01*
X0293287Y0086756D02*
X0293287Y0091060D01*
X0291852Y0089625D01*
X0357852Y0089208D02*
X0357852Y0087773D01*
X0358569Y0087056D01*
X0360004Y0087056D01*
X0360721Y0087773D01*
X0360721Y0088490D01*
X0360004Y0089208D01*
X0357852Y0089208D01*
X0359287Y0090642D01*
X0360721Y0091360D01*
X0360004Y0132056D02*
X0360721Y0132773D01*
X0360721Y0133490D01*
X0360004Y0134208D01*
X0357852Y0134208D01*
X0357852Y0132773D01*
X0358569Y0132056D01*
X0360004Y0132056D01*
X0357852Y0134208D02*
X0359287Y0135642D01*
X0360721Y0136360D01*
X0294721Y0131756D02*
X0291852Y0131756D01*
X0293287Y0131756D02*
X0293287Y0136060D01*
X0291852Y0134625D01*
X0291852Y0176756D02*
X0294721Y0176756D01*
X0293287Y0176756D02*
X0293287Y0181060D01*
X0291852Y0179625D01*
X0357852Y0179208D02*
X0360004Y0179208D01*
X0360721Y0178490D01*
X0360721Y0177773D01*
X0360004Y0177056D01*
X0358569Y0177056D01*
X0357852Y0177773D01*
X0357852Y0179208D01*
X0359287Y0180642D01*
X0360721Y0181360D01*
M02*
