G75*
%MOIN*%
%OFA0B0*%
%FSLAX25Y25*%
%IPPOS*%
%LPD*%
%AMOC8*
5,1,8,0,0,1.08239X$1,22.5*
%
%ADD10R,0.07690X0.03359*%
%ADD11R,0.10288X0.13792*%
%ADD12R,0.07887X0.13398*%
%ADD13R,0.05052X0.04934*%
%ADD14R,0.12611X0.06312*%
%ADD15R,0.06312X0.12611*%
%ADD16C,0.08200*%
%ADD17OC8,0.08200*%
%ADD18C,0.13398*%
%ADD19C,0.06800*%
%ADD20R,0.26200X0.13600*%
%ADD21R,0.05918X0.06706*%
%ADD22C,0.17800*%
%ADD23C,0.09300*%
%ADD24R,0.05550X0.05550*%
%ADD25C,0.03975*%
%ADD26C,0.05550*%
%ADD27C,0.06115*%
D10*
X0221476Y0042500D03*
X0221476Y0047500D03*
X0221476Y0052500D03*
X0221476Y0057500D03*
X0243524Y0057500D03*
X0243524Y0052500D03*
X0243524Y0047500D03*
X0243524Y0042500D03*
X0243524Y0087500D03*
X0243524Y0092500D03*
X0243524Y0097500D03*
X0243524Y0102500D03*
X0221476Y0102500D03*
X0221476Y0097500D03*
X0221476Y0092500D03*
X0221476Y0087500D03*
X0221476Y0130000D03*
X0221476Y0135000D03*
X0221476Y0140000D03*
X0221476Y0145000D03*
X0243524Y0145000D03*
X0243524Y0140000D03*
X0243524Y0135000D03*
X0243524Y0130000D03*
X0243524Y0167500D03*
X0243524Y0172500D03*
X0243524Y0177500D03*
X0243524Y0182500D03*
X0221476Y0182500D03*
X0221476Y0177500D03*
X0221476Y0172500D03*
X0221476Y0167500D03*
D11*
X0232500Y0175000D03*
X0232500Y0137500D03*
X0232500Y0095000D03*
X0232500Y0050000D03*
D12*
X0261476Y0045000D03*
X0283524Y0045000D03*
X0283524Y0090000D03*
X0261476Y0090000D03*
X0261476Y0135000D03*
X0283524Y0135000D03*
X0283524Y0180000D03*
X0261476Y0180000D03*
D13*
X0232500Y0158445D03*
X0232500Y0151555D03*
X0232500Y0123445D03*
X0232500Y0116555D03*
X0232500Y0078445D03*
X0232500Y0071555D03*
X0232500Y0035945D03*
X0232500Y0029055D03*
D14*
X0166949Y0040000D03*
X0148051Y0040000D03*
X0260551Y0067500D03*
X0279449Y0067500D03*
X0279449Y0112500D03*
X0260551Y0112500D03*
X0260551Y0157500D03*
X0279449Y0157500D03*
D15*
X0192500Y0059449D03*
X0192500Y0040551D03*
D16*
X0187500Y0015000D03*
X0177500Y0015000D03*
X0167500Y0015000D03*
X0157500Y0015000D03*
X0147500Y0015000D03*
X0197500Y0015000D03*
X0217500Y0015000D03*
X0227500Y0015000D03*
X0237500Y0015000D03*
X0247500Y0015000D03*
X0257500Y0015000D03*
X0267500Y0015000D03*
X0277500Y0015000D03*
X0287500Y0015000D03*
X0307500Y0015000D03*
X0317500Y0015000D03*
X0327500Y0015000D03*
X0337500Y0015000D03*
X0347500Y0015000D03*
X0357500Y0015000D03*
X0367500Y0015000D03*
X0377500Y0015000D03*
X0387500Y0035000D03*
X0397500Y0035000D03*
X0397500Y0205000D03*
X0387500Y0205000D03*
X0357500Y0205000D03*
X0347500Y0205000D03*
X0337500Y0205000D03*
X0327500Y0205000D03*
X0317500Y0205000D03*
X0307500Y0205000D03*
X0297500Y0205000D03*
X0287500Y0205000D03*
X0267500Y0205000D03*
X0257500Y0205000D03*
X0247500Y0205000D03*
X0237500Y0205000D03*
X0227500Y0205000D03*
X0217500Y0205000D03*
X0207500Y0205000D03*
X0197500Y0205000D03*
X0181500Y0205000D03*
X0171500Y0205000D03*
X0161500Y0205000D03*
X0151500Y0205000D03*
X0141500Y0205000D03*
X0131500Y0205000D03*
X0121500Y0205000D03*
X0111500Y0205000D03*
D17*
X0387500Y0195000D03*
X0397500Y0195000D03*
X0397500Y0185000D03*
X0387500Y0185000D03*
X0387500Y0175000D03*
X0397500Y0175000D03*
X0397500Y0165000D03*
X0387500Y0165000D03*
X0387500Y0155000D03*
X0397500Y0155000D03*
X0397500Y0145000D03*
X0387500Y0145000D03*
X0387500Y0135000D03*
X0397500Y0135000D03*
X0397500Y0125000D03*
X0387500Y0125000D03*
X0387500Y0115000D03*
X0397500Y0115000D03*
X0397500Y0105000D03*
X0387500Y0105000D03*
X0387500Y0095000D03*
X0397500Y0095000D03*
X0397500Y0085000D03*
X0387500Y0085000D03*
X0387500Y0075000D03*
X0397500Y0075000D03*
X0397500Y0065000D03*
X0387500Y0065000D03*
X0387500Y0055000D03*
X0397500Y0055000D03*
X0397500Y0045000D03*
X0387500Y0045000D03*
D18*
X0397500Y0015000D03*
X0072500Y0015000D03*
X0077500Y0205000D03*
X0372500Y0205000D03*
D19*
X0352500Y0183000D02*
X0352500Y0177000D01*
X0342500Y0177000D02*
X0342500Y0183000D01*
X0332500Y0183000D02*
X0332500Y0177000D01*
X0322500Y0177000D02*
X0322500Y0183000D01*
X0312500Y0183000D02*
X0312500Y0177000D01*
X0302500Y0177000D02*
X0302500Y0183000D01*
X0302500Y0138000D02*
X0302500Y0132000D01*
X0312500Y0132000D02*
X0312500Y0138000D01*
X0322500Y0138000D02*
X0322500Y0132000D01*
X0332500Y0132000D02*
X0332500Y0138000D01*
X0342500Y0138000D02*
X0342500Y0132000D01*
X0352500Y0132000D02*
X0352500Y0138000D01*
X0352500Y0093000D02*
X0352500Y0087000D01*
X0342500Y0087000D02*
X0342500Y0093000D01*
X0332500Y0093000D02*
X0332500Y0087000D01*
X0322500Y0087000D02*
X0322500Y0093000D01*
X0312500Y0093000D02*
X0312500Y0087000D01*
X0302500Y0087000D02*
X0302500Y0093000D01*
X0302500Y0048000D02*
X0302500Y0042000D01*
X0312500Y0042000D02*
X0312500Y0048000D01*
X0322500Y0048000D02*
X0322500Y0042000D01*
X0332500Y0042000D02*
X0332500Y0048000D01*
X0342500Y0048000D02*
X0342500Y0042000D01*
X0352500Y0042000D02*
X0352500Y0048000D01*
D20*
X0060000Y0011988D03*
X0127717Y0011988D03*
X0127717Y0167500D03*
X0060000Y0167500D03*
D21*
X0173760Y0025000D03*
X0181240Y0025000D03*
D22*
X0047126Y0178996D03*
X0058937Y0197500D03*
X0035315Y0197500D03*
D23*
X0030000Y0132500D03*
X0030000Y0112500D03*
X0030000Y0080000D03*
X0030000Y0060000D03*
D24*
X0272500Y0045000D03*
X0272500Y0090000D03*
X0272500Y0135000D03*
X0272500Y0180000D03*
D25*
X0237500Y0185000D03*
X0237500Y0185000D03*
X0232500Y0185000D03*
X0232500Y0185000D03*
X0227500Y0185000D03*
X0227500Y0185000D03*
X0232500Y0180000D03*
X0232500Y0175000D03*
X0232500Y0170000D03*
X0232500Y0165000D03*
X0227500Y0165000D03*
X0237500Y0165000D03*
X0212500Y0165000D03*
X0227500Y0147500D03*
X0232500Y0147500D03*
X0237500Y0147500D03*
X0232500Y0142500D03*
X0232500Y0137500D03*
X0232500Y0132500D03*
X0232500Y0127500D03*
X0227500Y0127500D03*
X0237500Y0127500D03*
X0212500Y0125000D03*
X0202500Y0115000D03*
X0227500Y0105000D03*
X0227500Y0105000D03*
X0232500Y0105000D03*
X0237500Y0105000D03*
X0232500Y0100000D03*
X0232500Y0095000D03*
X0232500Y0090000D03*
X0232500Y0085000D03*
X0227500Y0085000D03*
X0237500Y0085000D03*
X0212500Y0085000D03*
X0197500Y0060000D03*
X0227500Y0060000D03*
X0232500Y0060000D03*
X0237500Y0060000D03*
X0232500Y0055000D03*
X0232500Y0050000D03*
X0232500Y0045000D03*
X0232500Y0040000D03*
X0227500Y0040000D03*
X0237500Y0040000D03*
X0212500Y0040000D03*
X0182500Y0035000D03*
X0162500Y0045000D03*
X0147500Y0035000D03*
X0290000Y0067500D03*
X0307500Y0030000D03*
X0290000Y0112500D03*
X0290000Y0157500D03*
X0220000Y0185000D03*
D26*
X0202500Y0160000D03*
X0127500Y0155000D03*
X0077500Y0167500D03*
X0042500Y0165000D03*
X0182500Y0082500D03*
D27*
X0117500Y0025000D03*
M02*
