%
M48
M72
T01C0.01575
T02C0.03150
T03C0.03543
T04C0.04000
T05C0.04500
T06C0.11800
T07C0.12598
%
T01
X147500Y35000
X162500Y45000
X182500Y35000
X212500Y40000
X227500Y40000
X232500Y40000
X237500Y40000
X232500Y45000
X232500Y50000
X232500Y55000
X232500Y60000
X227500Y60000
X237500Y60000
X197500Y60000
X212500Y85000
X227500Y85000
X232500Y85000
X237500Y85000
X232500Y90000
X232500Y95000
X232500Y100000
X232500Y105000
X227500Y105000
X227500Y105000
X237500Y105000
X202500Y115000
X212500Y125000
X227500Y127500
X232500Y127500
X237500Y127500
X232500Y132500
X232500Y137500
X232500Y142500
X232500Y147500
X227500Y147500
X237500Y147500
X237500Y165000
X232500Y165000
X227500Y165000
X232500Y170000
X232500Y175000
X232500Y180000
X232500Y185000
X232500Y185000
X227500Y185000
X227500Y185000
X220000Y185000
X237500Y185000
X237500Y185000
X212500Y165000
X290000Y157500
X290000Y112500
X290000Y67500
X307500Y30000
T02
X272500Y45000
X272500Y90000
X272500Y135000
X202500Y160000
X272500Y180000
X127500Y155000
X77500Y167500
X42500Y165000
X182500Y82500
T03
X117500Y25000
T04
X147500Y15000
X157500Y15000
X167500Y15000
X177500Y15000
X187500Y15000
X197500Y15000
X217500Y15000
X227500Y15000
X237500Y15000
X247500Y15000
X257500Y15000
X267500Y15000
X277500Y15000
X287500Y15000
X307500Y15000
X317500Y15000
X327500Y15000
X337500Y15000
X347500Y15000
X357500Y15000
X367500Y15000
X377500Y15000
X387500Y35000
X397500Y35000
X397500Y45000
X387500Y45000
X387500Y55000
X397500Y55000
X397500Y65000
X387500Y65000
X387500Y75000
X397500Y75000
X397500Y85000
X387500Y85000
X387500Y95000
X397500Y95000
X397500Y105000
X387500Y105000
X387500Y115000
X397500Y115000
X397500Y125000
X387500Y125000
X387500Y135000
X397500Y135000
X397500Y145000
X387500Y145000
X387500Y155000
X397500Y155000
X397500Y165000
X387500Y165000
X387500Y175000
X397500Y175000
X397500Y185000
X387500Y185000
X387500Y195000
X397500Y195000
X397500Y205000
X387500Y205000
X357500Y205000
X347500Y205000
X337500Y205000
X327500Y205000
X317500Y205000
X307500Y205000
X297500Y205000
X287500Y205000
X267500Y205000
X257500Y205000
X247500Y205000
X237500Y205000
X227500Y205000
X217500Y205000
X207500Y205000
X197500Y205000
X181500Y205000
X171500Y205000
X161500Y205000
X151500Y205000
X141500Y205000
X131500Y205000
X121500Y205000
X111500Y205000
X302500Y180000
X312500Y180000
X322500Y180000
X332500Y180000
X342500Y180000
X352500Y180000
X352500Y135000
X342500Y135000
X332500Y135000
X322500Y135000
X312500Y135000
X302500Y135000
X302500Y90000
X312500Y90000
X322500Y90000
X332500Y90000
X342500Y90000
X352500Y90000
X352500Y45000
X342500Y45000
X332500Y45000
X322500Y45000
X312500Y45000
X302500Y45000
T05
X30000Y60000
X30000Y80000
X30000Y112500
X30000Y132500
T06
X47126Y178996
X58937Y197500
X35315Y197500
T07
X72500Y15000
X397500Y15000
X372500Y205000
X77500Y205000
M30
