G75*
%MOIN*%
%OFA0B0*%
%FSLAX25Y25*%
%IPPOS*%
%LPD*%
%AMOC8*
5,1,8,0,0,1.08239X$1,22.5*
%
%ADD10C,0.07400*%
%ADD11OC8,0.07400*%
%ADD12C,0.06000*%
%ADD13C,0.17000*%
%ADD14C,0.08500*%
%ADD15R,0.04750X0.04750*%
%ADD16C,0.01200*%
%ADD17C,0.03175*%
%ADD18C,0.02400*%
%ADD19C,0.03200*%
%ADD20C,0.04000*%
%ADD21C,0.04750*%
%ADD22C,0.15000*%
%ADD23C,0.07600*%
%ADD24C,0.05315*%
D10*
X0147500Y0015000D03*
X0157500Y0015000D03*
X0167500Y0015000D03*
X0177500Y0015000D03*
X0187500Y0015000D03*
X0197500Y0015000D03*
X0217500Y0015000D03*
X0227500Y0015000D03*
X0237500Y0015000D03*
X0247500Y0015000D03*
X0257500Y0015000D03*
X0267500Y0015000D03*
X0277500Y0015000D03*
X0287500Y0015000D03*
X0307500Y0015000D03*
X0317500Y0015000D03*
X0327500Y0015000D03*
X0337500Y0015000D03*
X0347500Y0015000D03*
X0357500Y0015000D03*
X0367500Y0015000D03*
X0377500Y0015000D03*
X0387500Y0035000D03*
X0397500Y0035000D03*
X0397500Y0205000D03*
X0387500Y0205000D03*
X0357500Y0205000D03*
X0347500Y0205000D03*
X0337500Y0205000D03*
X0327500Y0205000D03*
X0317500Y0205000D03*
X0307500Y0205000D03*
X0297500Y0205000D03*
X0287500Y0205000D03*
X0267500Y0205000D03*
X0257500Y0205000D03*
X0247500Y0205000D03*
X0237500Y0205000D03*
X0227500Y0205000D03*
X0217500Y0205000D03*
X0207500Y0205000D03*
X0197500Y0205000D03*
X0181500Y0205000D03*
X0171500Y0205000D03*
X0161500Y0205000D03*
X0151500Y0205000D03*
X0141500Y0205000D03*
X0131500Y0205000D03*
X0121500Y0205000D03*
X0111500Y0205000D03*
D11*
X0387500Y0195000D03*
X0397500Y0195000D03*
X0397500Y0185000D03*
X0387500Y0185000D03*
X0387500Y0175000D03*
X0397500Y0175000D03*
X0397500Y0165000D03*
X0387500Y0165000D03*
X0387500Y0155000D03*
X0397500Y0155000D03*
X0397500Y0145000D03*
X0387500Y0145000D03*
X0387500Y0135000D03*
X0397500Y0135000D03*
X0397500Y0125000D03*
X0387500Y0125000D03*
X0387500Y0115000D03*
X0397500Y0115000D03*
X0397500Y0105000D03*
X0387500Y0105000D03*
X0387500Y0095000D03*
X0397500Y0095000D03*
X0397500Y0085000D03*
X0387500Y0085000D03*
X0387500Y0075000D03*
X0397500Y0075000D03*
X0397500Y0065000D03*
X0387500Y0065000D03*
X0387500Y0055000D03*
X0397500Y0055000D03*
X0397500Y0045000D03*
X0387500Y0045000D03*
D12*
X0352500Y0048000D02*
X0352500Y0042000D01*
X0342500Y0042000D02*
X0342500Y0048000D01*
X0332500Y0048000D02*
X0332500Y0042000D01*
X0322500Y0042000D02*
X0322500Y0048000D01*
X0312500Y0048000D02*
X0312500Y0042000D01*
X0302500Y0042000D02*
X0302500Y0048000D01*
X0302500Y0087000D02*
X0302500Y0093000D01*
X0312500Y0093000D02*
X0312500Y0087000D01*
X0322500Y0087000D02*
X0322500Y0093000D01*
X0332500Y0093000D02*
X0332500Y0087000D01*
X0342500Y0087000D02*
X0342500Y0093000D01*
X0352500Y0093000D02*
X0352500Y0087000D01*
X0352500Y0132000D02*
X0352500Y0138000D01*
X0342500Y0138000D02*
X0342500Y0132000D01*
X0332500Y0132000D02*
X0332500Y0138000D01*
X0322500Y0138000D02*
X0322500Y0132000D01*
X0312500Y0132000D02*
X0312500Y0138000D01*
X0302500Y0138000D02*
X0302500Y0132000D01*
X0302500Y0177000D02*
X0302500Y0183000D01*
X0312500Y0183000D02*
X0312500Y0177000D01*
X0322500Y0177000D02*
X0322500Y0183000D01*
X0332500Y0183000D02*
X0332500Y0177000D01*
X0342500Y0177000D02*
X0342500Y0183000D01*
X0352500Y0183000D02*
X0352500Y0177000D01*
D13*
X0058937Y0197500D03*
X0035315Y0197500D03*
X0047126Y0178996D03*
D14*
X0030000Y0132500D03*
X0030000Y0112500D03*
X0030000Y0080000D03*
X0030000Y0060000D03*
D15*
X0272500Y0045000D03*
X0272500Y0090000D03*
X0272500Y0135000D03*
X0272500Y0180000D03*
D16*
X0292500Y0179983D02*
X0227500Y0179983D01*
X0227500Y0181181D02*
X0292500Y0181181D01*
X0292500Y0182380D02*
X0227500Y0182380D01*
X0227500Y0183578D02*
X0292500Y0183578D01*
X0292500Y0184777D02*
X0227500Y0184777D01*
X0227500Y0185975D02*
X0292500Y0185975D01*
X0292500Y0187174D02*
X0227500Y0187174D01*
X0227500Y0188372D02*
X0292500Y0188372D01*
X0292500Y0189571D02*
X0227500Y0189571D01*
X0227500Y0190000D02*
X0232500Y0195000D01*
X0287500Y0195000D01*
X0292500Y0190000D01*
X0292500Y0045000D01*
X0287500Y0040000D01*
X0232500Y0040000D01*
X0227500Y0045000D01*
X0227500Y0190000D01*
X0228269Y0190769D02*
X0291731Y0190769D01*
X0290532Y0191968D02*
X0229468Y0191968D01*
X0230666Y0193166D02*
X0289334Y0193166D01*
X0288135Y0194365D02*
X0231865Y0194365D01*
X0227500Y0178784D02*
X0292500Y0178784D01*
X0292500Y0177586D02*
X0227500Y0177586D01*
X0227500Y0176387D02*
X0292500Y0176387D01*
X0292500Y0175189D02*
X0227500Y0175189D01*
X0227500Y0173990D02*
X0292500Y0173990D01*
X0292500Y0172792D02*
X0227500Y0172792D01*
X0227500Y0171593D02*
X0292500Y0171593D01*
X0292500Y0170395D02*
X0227500Y0170395D01*
X0227500Y0169196D02*
X0292500Y0169196D01*
X0292500Y0167998D02*
X0227500Y0167998D01*
X0227500Y0166799D02*
X0292500Y0166799D01*
X0292500Y0165601D02*
X0227500Y0165601D01*
X0227500Y0164402D02*
X0292500Y0164402D01*
X0292500Y0163203D02*
X0227500Y0163203D01*
X0227500Y0162005D02*
X0292500Y0162005D01*
X0292500Y0160806D02*
X0227500Y0160806D01*
X0227500Y0159608D02*
X0292500Y0159608D01*
X0292500Y0158409D02*
X0227500Y0158409D01*
X0227500Y0157211D02*
X0292500Y0157211D01*
X0292500Y0156012D02*
X0227500Y0156012D01*
X0227500Y0154814D02*
X0292500Y0154814D01*
X0292500Y0153615D02*
X0227500Y0153615D01*
X0227500Y0152417D02*
X0292500Y0152417D01*
X0292500Y0151218D02*
X0227500Y0151218D01*
X0227500Y0150020D02*
X0292500Y0150020D01*
X0292500Y0148821D02*
X0227500Y0148821D01*
X0227500Y0147623D02*
X0292500Y0147623D01*
X0292500Y0146424D02*
X0227500Y0146424D01*
X0227500Y0145226D02*
X0292500Y0145226D01*
X0292500Y0144027D02*
X0227500Y0144027D01*
X0227500Y0142829D02*
X0292500Y0142829D01*
X0292500Y0141630D02*
X0227500Y0141630D01*
X0227500Y0140432D02*
X0292500Y0140432D01*
X0292500Y0139233D02*
X0227500Y0139233D01*
X0227500Y0138035D02*
X0292500Y0138035D01*
X0292500Y0136836D02*
X0227500Y0136836D01*
X0227500Y0135638D02*
X0292500Y0135638D01*
X0292500Y0134439D02*
X0227500Y0134439D01*
X0227500Y0133241D02*
X0292500Y0133241D01*
X0292500Y0132042D02*
X0227500Y0132042D01*
X0227500Y0130844D02*
X0292500Y0130844D01*
X0292500Y0129645D02*
X0227500Y0129645D01*
X0227500Y0128447D02*
X0292500Y0128447D01*
X0292500Y0127248D02*
X0227500Y0127248D01*
X0227500Y0126050D02*
X0292500Y0126050D01*
X0292500Y0124851D02*
X0227500Y0124851D01*
X0227500Y0123653D02*
X0292500Y0123653D01*
X0292500Y0122454D02*
X0227500Y0122454D01*
X0227500Y0121256D02*
X0292500Y0121256D01*
X0292500Y0120057D02*
X0227500Y0120057D01*
X0227500Y0118859D02*
X0292500Y0118859D01*
X0292500Y0117660D02*
X0227500Y0117660D01*
X0227500Y0116462D02*
X0292500Y0116462D01*
X0292500Y0115263D02*
X0227500Y0115263D01*
X0227500Y0114065D02*
X0292500Y0114065D01*
X0292500Y0112866D02*
X0227500Y0112866D01*
X0227500Y0111668D02*
X0292500Y0111668D01*
X0292500Y0110469D02*
X0227500Y0110469D01*
X0227500Y0109270D02*
X0292500Y0109270D01*
X0292500Y0108072D02*
X0227500Y0108072D01*
X0227500Y0106873D02*
X0292500Y0106873D01*
X0292500Y0105675D02*
X0227500Y0105675D01*
X0227500Y0104476D02*
X0292500Y0104476D01*
X0292500Y0103278D02*
X0227500Y0103278D01*
X0227500Y0102079D02*
X0292500Y0102079D01*
X0292500Y0100881D02*
X0227500Y0100881D01*
X0227500Y0099682D02*
X0292500Y0099682D01*
X0292500Y0098484D02*
X0227500Y0098484D01*
X0227500Y0097285D02*
X0292500Y0097285D01*
X0292500Y0096087D02*
X0227500Y0096087D01*
X0227500Y0094888D02*
X0292500Y0094888D01*
X0292500Y0093690D02*
X0227500Y0093690D01*
X0227500Y0092491D02*
X0292500Y0092491D01*
X0292500Y0091293D02*
X0227500Y0091293D01*
X0227500Y0090094D02*
X0292500Y0090094D01*
X0292500Y0088896D02*
X0227500Y0088896D01*
X0227500Y0087697D02*
X0292500Y0087697D01*
X0292500Y0086499D02*
X0227500Y0086499D01*
X0227500Y0085300D02*
X0292500Y0085300D01*
X0292500Y0084102D02*
X0227500Y0084102D01*
X0227500Y0082903D02*
X0292500Y0082903D01*
X0292500Y0081705D02*
X0227500Y0081705D01*
X0227500Y0080506D02*
X0292500Y0080506D01*
X0292500Y0079308D02*
X0227500Y0079308D01*
X0227500Y0078109D02*
X0292500Y0078109D01*
X0292500Y0076911D02*
X0227500Y0076911D01*
X0227500Y0075712D02*
X0292500Y0075712D01*
X0292500Y0074514D02*
X0227500Y0074514D01*
X0227500Y0073315D02*
X0292500Y0073315D01*
X0292500Y0072117D02*
X0227500Y0072117D01*
X0227500Y0070918D02*
X0292500Y0070918D01*
X0292500Y0069720D02*
X0227500Y0069720D01*
X0227500Y0068521D02*
X0292500Y0068521D01*
X0292500Y0067323D02*
X0227500Y0067323D01*
X0227500Y0066124D02*
X0292500Y0066124D01*
X0292500Y0064926D02*
X0227500Y0064926D01*
X0227500Y0063727D02*
X0292500Y0063727D01*
X0292500Y0062529D02*
X0227500Y0062529D01*
X0227500Y0061330D02*
X0292500Y0061330D01*
X0292500Y0060132D02*
X0227500Y0060132D01*
X0227500Y0058933D02*
X0292500Y0058933D01*
X0292500Y0057734D02*
X0227500Y0057734D01*
X0227500Y0056536D02*
X0292500Y0056536D01*
X0292500Y0055337D02*
X0227500Y0055337D01*
X0227500Y0054139D02*
X0292500Y0054139D01*
X0292500Y0052940D02*
X0227500Y0052940D01*
X0227500Y0051742D02*
X0292500Y0051742D01*
X0292500Y0050543D02*
X0227500Y0050543D01*
X0227500Y0049345D02*
X0292500Y0049345D01*
X0292500Y0048146D02*
X0227500Y0048146D01*
X0227500Y0046948D02*
X0292500Y0046948D01*
X0292500Y0045749D02*
X0227500Y0045749D01*
X0227949Y0044551D02*
X0292051Y0044551D01*
X0290852Y0043352D02*
X0229148Y0043352D01*
X0230346Y0042154D02*
X0289654Y0042154D01*
X0288455Y0040955D02*
X0231545Y0040955D01*
D17*
X0232500Y0040000D03*
X0227500Y0040000D03*
X0232500Y0045000D03*
X0237500Y0040000D03*
X0232500Y0050000D03*
X0232500Y0055000D03*
X0232500Y0060000D03*
X0227500Y0060000D03*
X0237500Y0060000D03*
X0212500Y0040000D03*
X0182500Y0035000D03*
X0162500Y0045000D03*
X0147500Y0035000D03*
X0197500Y0060000D03*
X0212500Y0085000D03*
X0227500Y0085000D03*
X0232500Y0085000D03*
X0237500Y0085000D03*
X0232500Y0090000D03*
X0232500Y0095000D03*
X0232500Y0100000D03*
X0232500Y0105000D03*
X0227500Y0105000D03*
X0227500Y0105000D03*
X0237500Y0105000D03*
X0202500Y0115000D03*
X0212500Y0125000D03*
X0227500Y0127500D03*
X0232500Y0127500D03*
X0237500Y0127500D03*
X0232500Y0132500D03*
X0232500Y0137500D03*
X0232500Y0142500D03*
X0232500Y0147500D03*
X0227500Y0147500D03*
X0237500Y0147500D03*
X0237500Y0165000D03*
X0232500Y0165000D03*
X0227500Y0165000D03*
X0232500Y0170000D03*
X0232500Y0175000D03*
X0232500Y0180000D03*
X0232500Y0185000D03*
X0232500Y0185000D03*
X0227500Y0185000D03*
X0227500Y0185000D03*
X0220000Y0185000D03*
X0237500Y0185000D03*
X0237500Y0185000D03*
X0212500Y0165000D03*
X0290000Y0157500D03*
X0290000Y0112500D03*
X0290000Y0067500D03*
X0307500Y0030000D03*
D18*
X0167500Y0030000D01*
X0157500Y0020000D01*
X0157500Y0015000D01*
X0167500Y0015000D02*
X0167500Y0020000D01*
X0172500Y0025000D01*
X0352500Y0025000D01*
X0372500Y0045000D01*
X0372500Y0190000D01*
X0387500Y0205000D01*
X0397500Y0205000D01*
X0232500Y0150000D02*
X0230000Y0147500D01*
X0227500Y0147500D01*
X0212500Y0165000D02*
X0212500Y0125000D01*
X0212500Y0085000D01*
X0202500Y0085000D01*
X0162500Y0045000D01*
X0167500Y0040000D01*
X0212500Y0040000D01*
X0187500Y0015000D02*
X0177500Y0015000D01*
X0220000Y0185000D02*
X0227500Y0185000D01*
D19*
X0182500Y0035000D02*
X0147500Y0035000D01*
D20*
X0197500Y0060000D02*
X0227500Y0060000D01*
X0182500Y0082500D02*
X0182500Y0095000D01*
X0127500Y0150000D01*
X0127500Y0155000D01*
X0132500Y0155000D01*
X0137500Y0150000D01*
X0162500Y0150000D01*
X0197500Y0115000D01*
X0202500Y0115000D01*
X0132500Y0160000D02*
X0127500Y0155000D01*
X0132500Y0160000D02*
X0202500Y0160000D01*
D21*
X0202500Y0160000D03*
X0127500Y0155000D03*
X0077500Y0167500D03*
X0042500Y0165000D03*
X0182500Y0082500D03*
D22*
X0100000Y0167500D02*
X0077500Y0167500D01*
X0052500Y0167500D01*
X0052500Y0170000D01*
X0047126Y0175374D01*
X0047126Y0178996D01*
X0050000Y0167500D02*
X0035315Y0182185D01*
X0035315Y0197500D01*
X0050000Y0167500D02*
X0052500Y0167500D01*
X0100000Y0167500D02*
X0112500Y0180000D01*
X0237500Y0180000D01*
X0242500Y0180000D02*
X0247500Y0180000D01*
X0242500Y0185000D01*
X0237500Y0185000D01*
D23*
X0097500Y0025000D02*
X0067500Y0055000D01*
X0035000Y0055000D01*
X0030000Y0060000D01*
X0042500Y0072500D01*
X0042500Y0100000D01*
X0030000Y0112500D01*
X0097500Y0025000D02*
X0117500Y0025000D01*
D24*
X0117500Y0025000D03*
M02*
