G75*
%MOIN*%
%OFA0B0*%
%FSLAX25Y25*%
%IPPOS*%
%LPD*%
%AMOC8*
5,1,8,0,0,1.08239X$1,22.5*
%
%ADD10R,0.06890X0.02559*%
%ADD11R,0.09488X0.12992*%
%ADD12R,0.07087X0.12598*%
%ADD13R,0.04252X0.04134*%
%ADD14R,0.11811X0.05512*%
%ADD15R,0.05512X0.11811*%
%ADD16C,0.07400*%
%ADD17OC8,0.07400*%
%ADD18C,0.06000*%
%ADD19R,0.25400X0.12800*%
%ADD20R,0.05118X0.05906*%
%ADD21C,0.17000*%
%ADD22C,0.08500*%
%ADD23C,0.04000*%
%ADD24C,0.02400*%
%ADD25R,0.04750X0.04750*%
%ADD26C,0.01200*%
%ADD27C,0.03175*%
%ADD28C,0.05000*%
%ADD29C,0.01600*%
%ADD30C,0.03200*%
%ADD31C,0.04750*%
%ADD32C,0.10000*%
%ADD33C,0.07600*%
%ADD34C,0.15000*%
%ADD35C,0.05315*%
D10*
X0221476Y0042500D03*
X0221476Y0047500D03*
X0221476Y0052500D03*
X0221476Y0057500D03*
X0243524Y0057500D03*
X0243524Y0052500D03*
X0243524Y0047500D03*
X0243524Y0042500D03*
X0243524Y0087500D03*
X0243524Y0092500D03*
X0243524Y0097500D03*
X0243524Y0102500D03*
X0221476Y0102500D03*
X0221476Y0097500D03*
X0221476Y0092500D03*
X0221476Y0087500D03*
X0221476Y0130000D03*
X0221476Y0135000D03*
X0221476Y0140000D03*
X0221476Y0145000D03*
X0243524Y0145000D03*
X0243524Y0140000D03*
X0243524Y0135000D03*
X0243524Y0130000D03*
X0243524Y0167500D03*
X0243524Y0172500D03*
X0243524Y0177500D03*
X0243524Y0182500D03*
X0221476Y0182500D03*
X0221476Y0177500D03*
X0221476Y0172500D03*
X0221476Y0167500D03*
D11*
X0232500Y0175000D03*
X0232500Y0137500D03*
X0232500Y0095000D03*
X0232500Y0050000D03*
D12*
X0261476Y0045000D03*
X0283524Y0045000D03*
X0283524Y0090000D03*
X0261476Y0090000D03*
X0261476Y0135000D03*
X0283524Y0135000D03*
X0283524Y0180000D03*
X0261476Y0180000D03*
D13*
X0232500Y0158445D03*
X0232500Y0151555D03*
X0232500Y0123445D03*
X0232500Y0116555D03*
X0232500Y0078445D03*
X0232500Y0071555D03*
X0232500Y0035945D03*
X0232500Y0029055D03*
D14*
X0166949Y0040000D03*
X0148051Y0040000D03*
X0260551Y0067500D03*
X0279449Y0067500D03*
X0279449Y0112500D03*
X0260551Y0112500D03*
X0260551Y0157500D03*
X0279449Y0157500D03*
D15*
X0192500Y0059449D03*
X0192500Y0040551D03*
D16*
X0187500Y0015000D03*
X0177500Y0015000D03*
X0167500Y0015000D03*
X0157500Y0015000D03*
X0147500Y0015000D03*
X0197500Y0015000D03*
X0217500Y0015000D03*
X0227500Y0015000D03*
X0237500Y0015000D03*
X0247500Y0015000D03*
X0257500Y0015000D03*
X0267500Y0015000D03*
X0277500Y0015000D03*
X0287500Y0015000D03*
X0307500Y0015000D03*
X0317500Y0015000D03*
X0327500Y0015000D03*
X0337500Y0015000D03*
X0347500Y0015000D03*
X0357500Y0015000D03*
X0367500Y0015000D03*
X0377500Y0015000D03*
X0387500Y0035000D03*
X0397500Y0035000D03*
X0397500Y0205000D03*
X0387500Y0205000D03*
X0357500Y0205000D03*
X0347500Y0205000D03*
X0337500Y0205000D03*
X0327500Y0205000D03*
X0317500Y0205000D03*
X0307500Y0205000D03*
X0297500Y0205000D03*
X0287500Y0205000D03*
X0267500Y0205000D03*
X0257500Y0205000D03*
X0247500Y0205000D03*
X0237500Y0205000D03*
X0227500Y0205000D03*
X0217500Y0205000D03*
X0207500Y0205000D03*
X0197500Y0205000D03*
X0181500Y0205000D03*
X0171500Y0205000D03*
X0161500Y0205000D03*
X0151500Y0205000D03*
X0141500Y0205000D03*
X0131500Y0205000D03*
X0121500Y0205000D03*
X0111500Y0205000D03*
D17*
X0387500Y0195000D03*
X0397500Y0195000D03*
X0397500Y0185000D03*
X0387500Y0185000D03*
X0387500Y0175000D03*
X0397500Y0175000D03*
X0397500Y0165000D03*
X0387500Y0165000D03*
X0387500Y0155000D03*
X0397500Y0155000D03*
X0397500Y0145000D03*
X0387500Y0145000D03*
X0387500Y0135000D03*
X0397500Y0135000D03*
X0397500Y0125000D03*
X0387500Y0125000D03*
X0387500Y0115000D03*
X0397500Y0115000D03*
X0397500Y0105000D03*
X0387500Y0105000D03*
X0387500Y0095000D03*
X0397500Y0095000D03*
X0397500Y0085000D03*
X0387500Y0085000D03*
X0387500Y0075000D03*
X0397500Y0075000D03*
X0397500Y0065000D03*
X0387500Y0065000D03*
X0387500Y0055000D03*
X0397500Y0055000D03*
X0397500Y0045000D03*
X0387500Y0045000D03*
D18*
X0352500Y0048000D02*
X0352500Y0042000D01*
X0342500Y0042000D02*
X0342500Y0048000D01*
X0332500Y0048000D02*
X0332500Y0042000D01*
X0322500Y0042000D02*
X0322500Y0048000D01*
X0312500Y0048000D02*
X0312500Y0042000D01*
X0302500Y0042000D02*
X0302500Y0048000D01*
X0302500Y0087000D02*
X0302500Y0093000D01*
X0312500Y0093000D02*
X0312500Y0087000D01*
X0322500Y0087000D02*
X0322500Y0093000D01*
X0332500Y0093000D02*
X0332500Y0087000D01*
X0342500Y0087000D02*
X0342500Y0093000D01*
X0352500Y0093000D02*
X0352500Y0087000D01*
X0352500Y0132000D02*
X0352500Y0138000D01*
X0342500Y0138000D02*
X0342500Y0132000D01*
X0332500Y0132000D02*
X0332500Y0138000D01*
X0322500Y0138000D02*
X0322500Y0132000D01*
X0312500Y0132000D02*
X0312500Y0138000D01*
X0302500Y0138000D02*
X0302500Y0132000D01*
X0302500Y0177000D02*
X0302500Y0183000D01*
X0312500Y0183000D02*
X0312500Y0177000D01*
X0322500Y0177000D02*
X0322500Y0183000D01*
X0332500Y0183000D02*
X0332500Y0177000D01*
X0342500Y0177000D02*
X0342500Y0183000D01*
X0352500Y0183000D02*
X0352500Y0177000D01*
D19*
X0127717Y0167500D03*
X0060000Y0167500D03*
X0060000Y0011988D03*
X0127717Y0011988D03*
D20*
X0173760Y0025000D03*
X0181240Y0025000D03*
D21*
X0047126Y0178996D03*
X0058937Y0197500D03*
X0035315Y0197500D03*
D22*
X0030000Y0132500D03*
X0030000Y0112500D03*
X0030000Y0080000D03*
X0030000Y0060000D03*
D23*
X0142500Y0070000D02*
X0142500Y0145000D01*
X0132500Y0155000D01*
X0127500Y0155000D01*
X0127500Y0167283D02*
X0127717Y0167500D01*
X0202500Y0160000D02*
X0205000Y0157500D01*
X0212500Y0157500D01*
X0215000Y0160000D01*
X0232500Y0160000D01*
X0232500Y0158445D01*
X0232500Y0160000D02*
X0242500Y0160000D01*
X0245000Y0157500D01*
X0255000Y0157500D01*
X0260551Y0157500D01*
X0255000Y0157500D02*
X0245000Y0167500D01*
X0243524Y0167500D01*
X0243524Y0172500D02*
X0250000Y0172500D01*
X0255000Y0167500D01*
X0300000Y0167500D01*
X0302500Y0170000D01*
X0302500Y0180000D01*
X0312500Y0180000D02*
X0312500Y0187500D01*
X0307500Y0192500D01*
X0255000Y0192500D01*
X0245000Y0182500D01*
X0243524Y0182500D01*
X0243524Y0177500D02*
X0258976Y0177500D01*
X0261476Y0180000D01*
X0272500Y0180000D02*
X0283524Y0180000D01*
X0279449Y0157500D02*
X0290000Y0157500D01*
X0305000Y0147500D02*
X0250000Y0147500D01*
X0247500Y0145000D01*
X0243524Y0145000D01*
X0243524Y0140000D02*
X0252500Y0140000D01*
X0257500Y0135000D01*
X0261476Y0135000D01*
X0272500Y0135000D02*
X0283524Y0135000D01*
X0295000Y0122500D02*
X0302500Y0130000D01*
X0302500Y0135000D01*
X0312500Y0135000D02*
X0312500Y0140000D01*
X0305000Y0147500D01*
X0295000Y0122500D02*
X0260000Y0122500D01*
X0247500Y0135000D01*
X0243524Y0135000D01*
X0243524Y0130000D02*
X0243524Y0128976D01*
X0260000Y0112500D01*
X0232500Y0112500D01*
X0205000Y0112500D01*
X0202500Y0115000D01*
X0243524Y0097500D02*
X0253976Y0097500D01*
X0261476Y0090000D01*
X0252500Y0090000D02*
X0252500Y0085000D01*
X0260000Y0077500D01*
X0295000Y0077500D01*
X0302500Y0085000D01*
X0302500Y0090000D01*
X0312500Y0090000D02*
X0312500Y0097500D01*
X0307500Y0102500D01*
X0247500Y0102500D01*
X0260000Y0112500D02*
X0260551Y0112500D01*
X0279449Y0112500D02*
X0290000Y0112500D01*
X0283524Y0090000D02*
X0272500Y0090000D01*
X0252500Y0090000D02*
X0250000Y0092500D01*
X0243524Y0092500D01*
X0243524Y0087500D02*
X0243524Y0084528D01*
X0260551Y0067500D01*
X0232500Y0067500D01*
X0210000Y0067500D01*
X0197500Y0080000D01*
X0185000Y0080000D01*
X0182500Y0082500D01*
X0162500Y0050000D02*
X0142500Y0070000D01*
X0162500Y0050000D02*
X0177500Y0050000D01*
X0186949Y0040551D01*
X0192500Y0040551D01*
X0192500Y0040000D01*
X0197500Y0040000D01*
X0210000Y0027500D01*
X0232500Y0027500D01*
X0235000Y0027500D01*
X0243524Y0036024D01*
X0243524Y0042500D01*
X0243524Y0047500D02*
X0250000Y0047500D01*
X0252500Y0045000D01*
X0252500Y0035000D01*
X0255000Y0032500D01*
X0295000Y0032500D01*
X0302500Y0040000D01*
X0302500Y0045000D01*
X0312500Y0045000D02*
X0312500Y0052500D01*
X0307500Y0057500D01*
X0243524Y0057500D01*
X0243524Y0052500D02*
X0255000Y0052500D01*
X0261476Y0046024D01*
X0261476Y0045000D01*
X0272500Y0045000D02*
X0283524Y0045000D01*
X0279449Y0067500D02*
X0290000Y0067500D01*
X0196949Y0059449D02*
X0192500Y0059449D01*
X0167500Y0040000D02*
X0162500Y0045000D01*
X0166949Y0040000D02*
X0167500Y0040000D01*
D24*
X0162500Y0045000D02*
X0161949Y0045000D01*
X0153760Y0040709D02*
X0148051Y0040000D01*
X0152500Y0040000D01*
X0181240Y0025000D02*
X0182500Y0025000D01*
X0195000Y0025000D01*
X0197500Y0022500D01*
X0375000Y0022500D01*
X0387500Y0035000D01*
X0337500Y0035000D01*
X0332500Y0040000D01*
X0332500Y0045000D01*
X0332500Y0090000D01*
X0332500Y0135000D01*
X0332500Y0180000D01*
X0342500Y0180000D02*
X0342500Y0190000D01*
X0347500Y0195000D01*
X0387500Y0195000D01*
X0387500Y0185000D02*
X0362500Y0185000D01*
X0357500Y0180000D01*
X0352500Y0180000D01*
X0362500Y0175000D02*
X0342500Y0155000D01*
X0342500Y0135000D01*
X0352500Y0135000D02*
X0352500Y0155000D01*
X0362500Y0165000D01*
X0387500Y0165000D01*
X0387500Y0175000D02*
X0362500Y0175000D01*
X0367500Y0155000D02*
X0362500Y0150000D01*
X0362500Y0130000D01*
X0342500Y0110000D01*
X0342500Y0090000D01*
X0352500Y0090000D02*
X0352500Y0110000D01*
X0367500Y0125000D01*
X0367500Y0140000D01*
X0372500Y0145000D01*
X0387500Y0145000D01*
X0387500Y0135000D02*
X0377500Y0135000D01*
X0372500Y0130000D01*
X0372500Y0120000D01*
X0362500Y0110000D01*
X0362500Y0085000D01*
X0342500Y0065000D01*
X0342500Y0045000D01*
X0352500Y0045000D02*
X0352500Y0065000D01*
X0372500Y0085000D01*
X0372500Y0110000D01*
X0387500Y0125000D01*
X0387500Y0155000D02*
X0367500Y0155000D01*
X0322500Y0135000D02*
X0322500Y0180000D01*
X0322500Y0135000D02*
X0322500Y0090000D01*
X0322500Y0045000D01*
X0307500Y0030000D01*
X0232500Y0029055D02*
X0232500Y0027500D01*
X0232500Y0035945D02*
X0232500Y0040000D01*
X0221476Y0042500D02*
X0215000Y0042500D01*
X0212500Y0040000D01*
X0221476Y0057500D02*
X0225000Y0057500D01*
X0227500Y0060000D01*
X0232500Y0067500D02*
X0232500Y0071555D01*
X0232500Y0078445D02*
X0232500Y0085000D01*
X0221476Y0087500D02*
X0215000Y0087500D01*
X0212500Y0085000D01*
X0221476Y0102500D02*
X0225000Y0102500D01*
X0227500Y0105000D01*
X0232500Y0105000D01*
X0232500Y0112500D02*
X0232500Y0116555D01*
X0217500Y0130000D02*
X0212500Y0125000D01*
X0217500Y0130000D02*
X0221476Y0130000D01*
X0221476Y0145000D02*
X0225000Y0145000D01*
X0227500Y0147500D01*
X0232500Y0147500D02*
X0232500Y0151555D01*
X0215000Y0167500D02*
X0212500Y0165000D01*
X0215000Y0167500D02*
X0221476Y0167500D01*
X0221476Y0182500D02*
X0220000Y0183976D01*
X0220000Y0185000D01*
X0137500Y0165000D02*
X0132500Y0165000D01*
X0127500Y0165000D01*
X0127500Y0155000D01*
X0127500Y0160000D02*
X0132500Y0165000D01*
X0387500Y0035000D02*
X0397500Y0035000D01*
X0060000Y0017500D02*
X0057500Y0015000D01*
X0060000Y0015000D01*
D25*
X0272500Y0045000D03*
X0272500Y0090000D03*
X0272500Y0135000D03*
X0272500Y0180000D03*
D26*
X0237500Y0179983D02*
X0227500Y0179983D01*
X0227500Y0181181D02*
X0237500Y0181181D01*
X0237500Y0182380D02*
X0227500Y0182380D01*
X0227500Y0183578D02*
X0237500Y0183578D01*
X0237500Y0184777D02*
X0227500Y0184777D01*
X0227500Y0185000D02*
X0237500Y0185000D01*
X0237500Y0165000D01*
X0227500Y0165000D01*
X0227500Y0185000D01*
X0227500Y0178784D02*
X0237500Y0178784D01*
X0237500Y0177586D02*
X0227500Y0177586D01*
X0227500Y0176387D02*
X0237500Y0176387D01*
X0237500Y0175189D02*
X0227500Y0175189D01*
X0227500Y0173990D02*
X0237500Y0173990D01*
X0237500Y0172792D02*
X0227500Y0172792D01*
X0227500Y0171593D02*
X0237500Y0171593D01*
X0237500Y0170395D02*
X0227500Y0170395D01*
X0227500Y0169196D02*
X0237500Y0169196D01*
X0237500Y0167998D02*
X0227500Y0167998D01*
X0227500Y0166799D02*
X0237500Y0166799D01*
X0237500Y0165601D02*
X0227500Y0165601D01*
X0227500Y0147500D02*
X0237500Y0147500D01*
X0237500Y0127500D01*
X0227500Y0127500D01*
X0227500Y0147500D01*
X0227500Y0146424D02*
X0237500Y0146424D01*
X0237500Y0145226D02*
X0227500Y0145226D01*
X0227500Y0144027D02*
X0237500Y0144027D01*
X0237500Y0142829D02*
X0227500Y0142829D01*
X0227500Y0141630D02*
X0237500Y0141630D01*
X0237500Y0140432D02*
X0227500Y0140432D01*
X0227500Y0139233D02*
X0237500Y0139233D01*
X0237500Y0138035D02*
X0227500Y0138035D01*
X0227500Y0136836D02*
X0237500Y0136836D01*
X0237500Y0135638D02*
X0227500Y0135638D01*
X0227500Y0134439D02*
X0237500Y0134439D01*
X0237500Y0133241D02*
X0227500Y0133241D01*
X0227500Y0132042D02*
X0237500Y0132042D01*
X0237500Y0130844D02*
X0227500Y0130844D01*
X0227500Y0129645D02*
X0237500Y0129645D01*
X0237500Y0128447D02*
X0227500Y0128447D01*
X0227500Y0105000D02*
X0227500Y0085000D01*
X0237500Y0085000D01*
X0237500Y0105000D01*
X0227500Y0105000D01*
X0227500Y0104476D02*
X0237500Y0104476D01*
X0237500Y0103278D02*
X0227500Y0103278D01*
X0227500Y0102079D02*
X0237500Y0102079D01*
X0237500Y0100881D02*
X0227500Y0100881D01*
X0227500Y0099682D02*
X0237500Y0099682D01*
X0237500Y0098484D02*
X0227500Y0098484D01*
X0227500Y0097285D02*
X0237500Y0097285D01*
X0237500Y0096087D02*
X0227500Y0096087D01*
X0227500Y0094888D02*
X0237500Y0094888D01*
X0237500Y0093690D02*
X0227500Y0093690D01*
X0227500Y0092491D02*
X0237500Y0092491D01*
X0237500Y0091293D02*
X0227500Y0091293D01*
X0227500Y0090094D02*
X0237500Y0090094D01*
X0237500Y0088896D02*
X0227500Y0088896D01*
X0227500Y0087697D02*
X0237500Y0087697D01*
X0237500Y0086499D02*
X0227500Y0086499D01*
X0227500Y0085300D02*
X0237500Y0085300D01*
X0237500Y0060000D02*
X0227500Y0060000D01*
X0227500Y0040000D01*
X0237500Y0040000D01*
X0237500Y0060000D01*
X0237500Y0058933D02*
X0227500Y0058933D01*
X0227500Y0057734D02*
X0237500Y0057734D01*
X0237500Y0056536D02*
X0227500Y0056536D01*
X0227500Y0055337D02*
X0237500Y0055337D01*
X0237500Y0054139D02*
X0227500Y0054139D01*
X0227500Y0052940D02*
X0237500Y0052940D01*
X0237500Y0051742D02*
X0227500Y0051742D01*
X0227500Y0050543D02*
X0237500Y0050543D01*
X0237500Y0049345D02*
X0227500Y0049345D01*
X0227500Y0048146D02*
X0237500Y0048146D01*
X0237500Y0046948D02*
X0227500Y0046948D01*
X0227500Y0045749D02*
X0237500Y0045749D01*
X0237500Y0044551D02*
X0227500Y0044551D01*
X0227500Y0043352D02*
X0237500Y0043352D01*
X0237500Y0042154D02*
X0227500Y0042154D01*
X0227500Y0040955D02*
X0237500Y0040955D01*
D27*
X0237500Y0040000D03*
X0232500Y0040000D03*
X0227500Y0040000D03*
X0232500Y0045000D03*
X0232500Y0050000D03*
X0232500Y0055000D03*
X0232500Y0060000D03*
X0227500Y0060000D03*
X0237500Y0060000D03*
X0212500Y0040000D03*
X0182500Y0035000D03*
X0162500Y0045000D03*
X0147500Y0035000D03*
X0197500Y0060000D03*
X0212500Y0085000D03*
X0227500Y0085000D03*
X0232500Y0085000D03*
X0237500Y0085000D03*
X0232500Y0090000D03*
X0232500Y0095000D03*
X0232500Y0100000D03*
X0232500Y0105000D03*
X0227500Y0105000D03*
X0227500Y0105000D03*
X0237500Y0105000D03*
X0202500Y0115000D03*
X0212500Y0125000D03*
X0227500Y0127500D03*
X0232500Y0127500D03*
X0237500Y0127500D03*
X0232500Y0132500D03*
X0232500Y0137500D03*
X0232500Y0142500D03*
X0232500Y0147500D03*
X0227500Y0147500D03*
X0237500Y0147500D03*
X0237500Y0165000D03*
X0232500Y0165000D03*
X0227500Y0165000D03*
X0232500Y0170000D03*
X0232500Y0175000D03*
X0232500Y0180000D03*
X0232500Y0185000D03*
X0232500Y0185000D03*
X0227500Y0185000D03*
X0227500Y0185000D03*
X0220000Y0185000D03*
X0237500Y0185000D03*
X0237500Y0185000D03*
X0212500Y0165000D03*
X0290000Y0157500D03*
X0290000Y0112500D03*
X0290000Y0067500D03*
X0307500Y0030000D03*
D28*
X0166949Y0040000D02*
X0162500Y0040000D01*
X0162500Y0030000D01*
X0157500Y0025000D01*
X0137500Y0025000D01*
X0127717Y0015217D01*
X0127717Y0011988D01*
X0147500Y0035000D02*
X0067500Y0035000D01*
X0060000Y0027500D01*
X0060000Y0017500D02*
X0060000Y0011988D01*
X0147500Y0035000D02*
X0152500Y0040000D01*
D29*
X0172500Y0065000D02*
X0187500Y0050000D01*
X0207500Y0050000D01*
X0210000Y0047500D01*
X0221476Y0047500D01*
X0221476Y0052500D02*
X0215000Y0052500D01*
X0197500Y0070000D01*
X0167500Y0070000D01*
X0157500Y0080000D01*
X0157500Y0185000D01*
X0141500Y0201000D01*
X0141500Y0205000D01*
X0131500Y0205000D02*
X0131500Y0201000D01*
X0152500Y0180000D01*
X0152500Y0075000D01*
X0162500Y0065000D01*
X0172500Y0065000D01*
X0196949Y0059449D02*
X0197500Y0060000D01*
X0175000Y0092500D02*
X0162500Y0105000D01*
X0162500Y0190000D01*
X0171500Y0199000D01*
X0171500Y0205000D01*
X0181500Y0205000D02*
X0181500Y0199000D01*
X0167500Y0185000D01*
X0167500Y0110000D01*
X0180000Y0097500D01*
X0221476Y0097500D01*
X0221476Y0092500D02*
X0175000Y0092500D01*
X0232500Y0123445D02*
X0232500Y0127500D01*
X0221476Y0135000D02*
X0182500Y0135000D01*
X0172500Y0145000D01*
X0172500Y0180000D01*
X0197500Y0205000D01*
X0207500Y0205000D02*
X0177500Y0175000D01*
X0177500Y0150000D01*
X0187500Y0140000D01*
X0221476Y0140000D01*
X0221476Y0172500D02*
X0215000Y0172500D01*
X0207500Y0180000D01*
X0207500Y0185000D01*
X0217500Y0195000D01*
X0232500Y0195000D01*
X0237500Y0200000D01*
X0237500Y0205000D01*
X0247500Y0205000D02*
X0247500Y0195000D01*
X0242500Y0190000D01*
X0217500Y0190000D01*
X0212500Y0185000D01*
X0212500Y0180000D01*
X0215000Y0177500D01*
X0221476Y0177500D01*
D30*
X0243524Y0102500D02*
X0247500Y0102500D01*
X0250000Y0102500D01*
X0172500Y0034449D02*
X0166949Y0040000D01*
X0172500Y0034449D02*
X0172500Y0025000D01*
X0173760Y0025000D01*
X0172500Y0025000D02*
X0167500Y0020000D01*
X0167500Y0015000D01*
X0182500Y0025000D02*
X0182500Y0035000D01*
X0182500Y0025000D02*
X0187500Y0020000D01*
X0187500Y0015000D01*
X0060000Y0015000D02*
X0060000Y0011988D01*
X0060000Y0015000D02*
X0060000Y0017500D01*
X0060000Y0027500D01*
X0057500Y0195000D02*
X0067500Y0195000D01*
X0067500Y0200000D01*
X0062500Y0200000D01*
X0060000Y0197500D02*
X0057500Y0195000D01*
X0060000Y0197500D02*
X0065000Y0197500D01*
D31*
X0077500Y0167500D03*
X0042500Y0165000D03*
X0127500Y0155000D03*
X0202500Y0160000D03*
X0182500Y0082500D03*
D32*
X0127500Y0155000D02*
X0127500Y0160000D01*
X0127500Y0165000D01*
X0127500Y0167283D01*
X0077500Y0167500D02*
X0060000Y0167500D01*
X0045000Y0167500D01*
X0042500Y0165000D01*
D33*
X0057500Y0014488D02*
X0060000Y0011988D01*
X0057500Y0014488D02*
X0057500Y0050000D01*
X0057500Y0055000D01*
X0057500Y0070000D01*
X0047500Y0080000D01*
X0030000Y0080000D01*
X0047500Y0080000D02*
X0057500Y0090000D01*
X0057500Y0120000D01*
X0045000Y0132500D01*
X0030000Y0132500D01*
X0042500Y0145000D01*
X0042500Y0165000D01*
X0117500Y0025000D02*
X0127283Y0015217D01*
X0127717Y0015217D01*
D34*
X0127717Y0167500D02*
X0127500Y0167717D01*
X0127500Y0175000D01*
X0117500Y0185000D01*
X0077500Y0185000D01*
X0067500Y0195000D01*
X0065000Y0197500D01*
X0058937Y0197500D01*
D35*
X0117500Y0025000D03*
M02*
